<?xml version="1.0" standalone="no"?>
<!DOCTYPE svg PUBLIC "-//W3C//DTD SVG 1.1//EN" "http://www.w3.org/Graphics/SVG/1.1/DTD/svg11.dtd" >
<svg xmlns="http://www.w3.org/2000/svg">
<metadata>
This is a custom SVG webfont generated by Font Squirrel.
Copyright   : Copyright  1985 1987 1997 1998 2001 Adobe Systems Incorporated  All Rights Reserved
Designer    : Herb Lubalin
Foundry URL : httpwwwadobecomtype
</metadata>
<defs>
<font id="ITCLubalinGraphStdBook" horiz-adv-x="1163" >
<font-face units-per-em="2048" ascent="1473" descent="-575" />
<missing-glyph horiz-adv-x="602" />
<glyph unicode="&#xfb01;" horiz-adv-x="1003" d="M31 0v125h176v809h-176v127h176v18q2 45 4 86t12 78t29.5 72t56.5 65q51 49 117 67.5t135 22.5v-116q-39 -4 -75.5 -15.5t-69.5 -35.5q-55 -41 -63.5 -95.5t-10.5 -117.5v-29h455v-936h176v-125h-942zM340 125h324v809h-324v-809zM664 1227v207h133v-207h-133z" />
<glyph unicode="&#xfb02;" horiz-adv-x="1003" d="M31 0v125h176v809h-176v127h176v18q2 47 5 89t13.5 80t32 73t61.5 68q53 47 125 64t142 17h209v-1345h176v-125h-940zM340 125h322v1229h-50q-57 0 -104 -8.5t-92 -42.5q-29 -23 -44.5 -47.5t-21.5 -53t-8 -59.5t-2 -64v-18h180v-127h-180v-809z" />
<glyph unicode=" "  horiz-adv-x="602" />
<glyph unicode="&#x09;" horiz-adv-x="602" />
<glyph unicode="&#xa0;" horiz-adv-x="602" />
<glyph unicode="!" horiz-adv-x="280" d="M72 0v219h139v-219h-139zM72 367v1067h139v-1067h-139z" />
<glyph unicode="&#x22;" horiz-adv-x="561" d="M72 1434h141l-25 -457h-94zM338 1434h139l-22 -457h-97z" />
<glyph unicode="#" d="M57 522v92h303l31 236h-278v94h295l67 490h94l-65 -490h244l69 490h92l-65 -490h262v-94h-281l-28 -236h258v-92h-277l-71 -522h-95l72 522h-244l-73 -522h-95l72 522h-287zM457 614h243l31 236h-244z" />
<glyph unicode="$" d="M133 1079q0 78 30 145.5t80 118t117.5 81t143.5 34.5v197h123v-197q68 -14 121 -49t83 -94v117h115v-340h-115q0 43 -17 81.5t-45 70.5t-65.5 54.5t-76.5 32.5v-528q84 -12 157.5 -45t128 -86.5t86 -127t31.5 -163.5q0 -86 -32.5 -157.5t-88 -126t-128 -89.5t-154.5 -41 v-186h-123v186q-80 27 -135.5 59.5t-102.5 104.5v-131h-114v385h114q4 -104 73 -179t165 -110v594l-64 21q-68 20 -120 45.5t-99 79.5q-45 49 -66.5 113t-21.5 130zM279 1083q0 -109 64.5 -170t160.5 -84v502q-47 -2 -88 -23.5t-71 -55t-48 -77t-18 -92.5zM627 96 q111 14 183.5 91t72.5 192q0 119 -74 190.5t-182 94.5v-568z" />
<glyph unicode="%" horiz-adv-x="1605" d="M72 1139q0 68 27.5 127t72.5 103t106.5 68.5t127.5 24.5q68 0 127 -25.5t104 -70.5t71.5 -105.5t26.5 -127.5q0 -72 -26.5 -131.5t-70.5 -104.5t-105.5 -71.5t-129.5 -26.5q-70 0 -131 26.5t-105 73.5t-69.5 107.5t-25.5 132.5zM188 1139q0 -47 16.5 -87t45.5 -70 t68.5 -48.5t87.5 -18.5q45 0 84.5 17.5t67.5 47.5t45.5 68.5t17.5 86.5q0 41 -17.5 79.5t-46.5 68.5t-67.5 47.5t-81.5 17.5q-45 0 -84 -16.5t-69 -45.5t-48.5 -66.5t-18.5 -80.5zM436 0l635 1434h115l-633 -1434h-117zM881 313q0 68 27.5 127.5t72.5 103.5t106.5 69.5 t126.5 25.5q68 0 128.5 -26.5t105.5 -71.5t71.5 -105.5t26.5 -128.5t-26.5 -129t-70.5 -106t-105.5 -72t-129.5 -27q-70 0 -131 28t-106 74t-70.5 107t-25.5 131zM999 313q0 -47 16.5 -87t45.5 -69.5t67.5 -47t85.5 -17.5q43 0 84 17.5t69 46t45.5 67.5t17.5 86 q0 43 -17.5 82t-46.5 67.5t-67.5 46t-81.5 17.5q-45 0 -84 -16.5t-69 -44t-47.5 -66.5t-17.5 -82z" />
<glyph unicode="&#x26;" horiz-adv-x="1443" d="M72 389q0 78 28.5 142.5t75.5 116.5t108.5 93t125.5 74l-29 27q-35 31 -65.5 63.5t-52 68.5t-35 77t-13.5 94q0 70 26.5 130t71.5 103t106.5 67.5t133.5 24.5q66 0 126 -24.5t105 -67.5t72 -101t27 -126t-22.5 -120t-62.5 -94t-89.5 -75t-102.5 -59l320 -305l188 407h258 v-125h-174l-178 -377l342 -333l-92 -93l-326 320q-37 -72 -78 -132.5t-94 -102.5t-120.5 -66.5t-153.5 -24.5t-164 33t-135.5 89.5t-92 132t-34.5 163.5zM215 393q0 -59 22.5 -113.5t62.5 -94.5t93 -64.5t115 -24.5q72 0 124 24.5t91 64.5t68.5 92.5t58.5 109.5l-352 338 q-51 -25 -102.5 -54.5t-92.5 -69.5t-64.5 -91t-23.5 -117zM348 1149q0 -41 10.5 -73t31 -58.5t44 -50t51.5 -49.5l39 -35q37 18 80 42.5t78 55.5t56.5 70t21.5 90q0 41 -15.5 80t-43 67.5t-65.5 46t-83 17.5q-41 0 -78 -15.5t-66.5 -43t-45 -64.5t-15.5 -80z" />
<glyph unicode="'" horiz-adv-x="280" d="M72 1434h141l-25 -457h-94z" />
<glyph unicode="(" horiz-adv-x="681" d="M72 586q0 147 43 283.5t129 256.5q31 45 70.5 91.5t87 88.5t97.5 74.5t103 53.5v-160q-178 -113 -279.5 -294t-101.5 -392q0 -104 25.5 -205.5t75 -192t120 -165t160.5 -129.5v-162q-123 55 -220 145t-166 203t-106.5 241t-37.5 263z" />
<glyph unicode=")" horiz-adv-x="681" d="M72 -104q90 55 160.5 129.5t119.5 165t75 191.5t26 206q0 211 -101.5 392t-279.5 294v160q109 -43 202 -128t158 -180q84 -121 127 -257t43 -283q0 -135 -37 -263t-106.5 -241t-166.5 -203t-220 -145v162z" />
<glyph unicode="*" horiz-adv-x="681" d="M72 1126v84h202l-110 172l74 48l108 -183l105 187l73 -43l-106 -181l205 4v-84h-205l104 -167l-71 -43l-103 174l-98 -181l-72 41l101 176z" />
<glyph unicode="+" horiz-adv-x="1323" d="M143 655v123h447v449h125v-449h446v-123h-446v-446h-125v446h-447z" />
<glyph unicode="," horiz-adv-x="602" d="M162 -195l149 369h127l-149 -369h-127z" />
<glyph unicode="-" horiz-adv-x="602" d="M51 457v133h500v-133h-500z" />
<glyph unicode="." horiz-adv-x="602" d="M233 0v219h138v-219h-138z" />
<glyph unicode="/" d="M72 -391l893 1825h108l-895 -1825h-106z" />
<glyph unicode="0" d="M76 498v448q0 106 27.5 193.5t101.5 165.5q72 78 168 121.5t202 43.5q100 0 191.5 -37.5t163.5 -107.5q84 -82 114.5 -174t30.5 -205v-448q0 -106 -26.5 -193.5t-98.5 -167.5q-74 -78 -170 -122t-205 -44q-100 0 -191 39t-161 109q-84 82 -115.5 173t-31.5 206zM219 498 q0 -72 13.5 -134.5t58.5 -119.5q51 -70 126 -106t158 -36q86 0 165 38t128 110q41 57 53.5 117.5t12.5 130.5v446q0 72 -12.5 134.5t-59.5 119.5q-49 68 -126 104.5t-161 36.5t-161.5 -39.5t-128.5 -109.5q-39 -57 -52.5 -116.5t-13.5 -129.5v-446z" />
<glyph unicode="1" d="M272 1319v115h418v-1309h189v-125h-519v125h191v1194h-279z" />
<glyph unicode="2" d="M119 0v125l606 590q31 33 62.5 65.5t55 69.5t39 78t15.5 92q0 66 -23.5 123t-67.5 99t-100.5 66.5t-123.5 24.5q-70 0 -130.5 -27.5t-102.5 -73.5t-64.5 -108.5t-18.5 -132.5h-137q-4 100 30 187.5t97 153t149.5 102t186.5 36.5q84 0 169 -32.5t144 -89.5 q66 -68 99.5 -153t33.5 -179q0 -68 -19.5 -123t-50 -103.5t-73.5 -92.5t-86 -87l-506 -485h600v223h129v-348h-913z" />
<glyph unicode="3" d="M106 410h146q4 -61 30.5 -117.5t68.5 -98.5t98.5 -68t119.5 -26q72 0 130.5 26t103.5 72t68.5 106.5t23.5 129.5q0 70 -27.5 128.5t-76 100.5t-111 66.5t-127.5 24.5h-74v110h70q51 0 97 10.5t89 45.5q41 35 63.5 83t22.5 101q0 109 -68.5 178.5t-174.5 69.5 q-45 0 -87 -18.5t-74 -49.5t-51.5 -72t-21.5 -88h-135q2 76 32.5 139.5t83 109.5t120 71.5t139.5 25.5q74 0 141.5 -25.5t118.5 -71.5t80.5 -110.5t29.5 -142.5q0 -100 -48 -184t-144 -121q63 -20 115.5 -59t89.5 -91.5t57 -115t20 -127.5q0 -94 -37.5 -177t-100 -142.5 t-146.5 -95.5t-176 -36q-96 0 -180.5 33t-149 90.5t-103.5 137.5t-45 178z" />
<glyph unicode="4" d="M49 352v115l672 967h172v-967h209v-115h-209v-227h188v-125h-516v125h189v227h-705zM207 467h547v795z" />
<glyph unicode="5" d="M66 389h149q12 -63 45 -115.5t80 -90.5t105.5 -59.5t121.5 -21.5q76 0 142.5 27t118 75t82 113.5t30.5 141.5q0 80 -28.5 145.5t-78 115.5t-116 78.5t-146.5 28.5q-90 0 -167.5 -38.5t-131.5 -112.5l-125 31l132 727h708v-125h-594l-90 -461q129 106 299 106 q100 0 187.5 -38.5t153 -104.5t103 -155t37.5 -187q0 -109 -41 -200t-110.5 -156.5t-163.5 -103.5t-199 -38q-96 0 -180 31t-150.5 85t-111.5 131t-61 171z" />
<glyph unicode="6" d="M70 489q0 94 32.5 172t83.5 154l422 619h158l-367 -537q51 35 98.5 51.5t110.5 16.5q98 0 184.5 -38t151 -104.5t100 -153.5t35.5 -184q0 -106 -37.5 -199t-104.5 -164t-158 -111t-199 -40q-109 0 -202 41t-160.5 112t-107.5 165t-40 200zM209 479q0 -76 27.5 -143.5 t78 -117.5t118 -78.5t142.5 -28.5q76 0 142.5 27.5t117 76.5t80 115.5t29.5 142.5q0 78 -28.5 144.5t-79 117.5t-117 82t-144.5 31q-76 0 -143 -30t-116.5 -80t-78 -117.5t-28.5 -141.5z" />
<glyph unicode="7" d="M141 1051v383h871v-136l-588 -1298h-158l600 1309h-587v-258h-138z" />
<glyph unicode="8" d="M119 406q0 66 19.5 127t57 112t89 89t112.5 61q-94 41 -148 120.5t-54 186.5q0 80 30.5 148.5t83.5 117.5t124 75.5t151 26.5q72 0 138 -27.5t116.5 -75.5t80 -112.5t29.5 -138.5q0 -106 -50 -186t-144 -127q59 -20 111.5 -58t89 -89.5t58 -113t21.5 -124.5 q0 -94 -36.5 -176t-99 -141.5t-146.5 -94.5t-177 -35q-94 0 -176 33t-145.5 90.5t-99 137.5t-35.5 174zM258 414q0 -66 25.5 -123.5t67.5 -100.5t99.5 -67.5t122.5 -24.5q68 0 124.5 26t98.5 69t65.5 100t23.5 121q0 63 -24.5 120.5t-67.5 99.5t-100.5 67.5t-123.5 25.5 q-63 0 -119.5 -25.5t-98.5 -67.5t-67.5 -99.5t-25.5 -120.5zM326 1100q0 -51 18 -97.5t52 -79t78 -52t95 -19.5t96.5 19.5t79 52t53 79t19.5 95.5q0 51 -19.5 97t-52 79t-77.5 53.5t-97 20.5q-51 0 -95 -19.5t-79 -53.5t-53 -79t-18 -96z" />
<glyph unicode="9" d="M68 954q0 104 41 199.5t110.5 165.5t161.5 110.5t199 40.5q106 0 198 -40.5t161 -111.5t107.5 -165t38.5 -199q0 -102 -29.5 -178t-86.5 -158l-414 -618h-174l371 530q-49 -31 -97.5 -49t-105.5 -18q-100 0 -189.5 41t-153 107.5t-101 155.5t-37.5 187zM209 965 q0 -78 27.5 -146.5t78 -120t119 -81t146.5 -29.5t145.5 30.5t115.5 82t76.5 120t28.5 144.5t-29.5 141t-79 115.5t-116 80t-139.5 29.5q-76 0 -143.5 -28.5t-119 -77.5t-81 -115.5t-29.5 -144.5z" />
<glyph unicode=":" horiz-adv-x="602" d="M233 0v219h138v-219h-138zM233 735v219h138v-219h-138z" />
<glyph unicode=";" horiz-adv-x="602" d="M92 -195l150 369h125l-148 -369h-127zM238 735v219h127v-219h-127z" />
<glyph unicode="&#x3c;" horiz-adv-x="1323" d="M111 659v117l1083 498v-125l-944 -432l944 -424v-127z" />
<glyph unicode="=" horiz-adv-x="1323" d="M143 508v123h1018v-123h-1018zM143 807v123h1018v-123h-1018z" />
<glyph unicode="&#x3e;" horiz-adv-x="1323" d="M111 166v127l942 424l-942 432v125l1083 -498v-117z" />
<glyph unicode="?" horiz-adv-x="1042" d="M72 1032q0 92 34.5 173t94 143.5t141.5 98.5t176 36q92 0 173 -34t142.5 -94.5t97.5 -140t36 -172.5q0 -66 -13.5 -113.5t-40 -86.5t-62.5 -75t-79 -77q-76 -72 -122 -147.5t-50 -182.5h-141q0 137 54 228.5t153 179.5q33 31 61.5 58.5t50 58t33.5 67.5t12 86 q0 61 -24.5 117.5t-66.5 97.5t-98 65.5t-118 24.5q-66 0 -120 -25.5t-96 -68.5t-64.5 -99t-22.5 -118h-141zM459 0v219h141v-219h-141z" />
<glyph unicode="@" horiz-adv-x="1806" d="M145 717q0 158 64.5 296t175.5 240.5t257 159.5t308 57q137 0 264 -44t222.5 -124.5t153 -194.5t57.5 -253q0 -98 -25 -185t-84 -165q-59 -74 -147 -128t-189 -54q-59 0 -90 30.5t-35 89.5q-55 -66 -122.5 -98.5t-157.5 -32.5q-70 0 -126.5 29t-95 75t-60 106.5 t-21.5 125.5q0 90 36.5 179t100 159t148.5 114t184 44q84 0 149.5 -42t89.5 -118l33 98h94l-151 -514q-8 -23 -15.5 -49t-7.5 -53q0 -68 76 -68q29 0 61.5 11.5t61 29t55.5 40t45 44.5q63 70 88 153t25 177q0 115 -43 209t-131 174q-96 84 -209 122t-240 38 q-145 0 -268 -48.5t-227 -142.5q-217 -199 -218 -487q0 -152 56.5 -275t155 -210t230.5 -135t281 -48q82 0 163 16.5t156 49t139.5 80t117.5 106.5l37 -57q-113 -139 -271.5 -206t-341.5 -67q-147 0 -300.5 51.5t-266.5 147.5q-119 102 -180.5 246.5t-61.5 300.5zM592 641 q0 -49 15.5 -93t44 -77t70.5 -52.5t97 -19.5q100 0 180 68q41 35 59.5 71.5t37.5 86.5q8 23 18 56.5t20.5 70t16.5 70.5t6 59q0 82 -56.5 129t-139.5 47q-80 0 -148 -38t-117 -98.5t-76.5 -134t-27.5 -145.5z" />
<glyph unicode="A" horiz-adv-x="1644" d="M14 0v133h179l520 1167h-191v134h375l561 -1301h180v-133h-526v133h186l-143 328h-663l-146 -328h180v-133h-512zM535 580h579l-287 690z" />
<glyph unicode="B" d="M49 0v133h182v1167h-182v134h590q74 0 143.5 -12.5t132.5 -59.5q139 -106 140 -283q0 -102 -53.5 -185t-145.5 -128q127 -45 197.5 -145.5t70.5 -233.5q0 -82 -32.5 -158.5t-92.5 -132.5q-70 -63 -150.5 -79.5t-174.5 -16.5h-625zM375 133h248q70 0 136 6t122 41 q55 35 76.5 99.5t21.5 126.5q0 68 -28.5 129t-86.5 102q-57 39 -122.5 46t-135.5 7h-231v-557zM375 815h221q66 0 121 6t110 51q43 37 63.5 85.5t20.5 105.5q0 59 -23.5 111.5t-70.5 85.5q-49 35 -103.5 37.5t-111.5 2.5h-227v-485z" />
<glyph unicode="C" horiz-adv-x="1484" d="M47 729q0 154 58.5 290t164.5 245q96 98 232.5 152t290.5 54q145 0 273 -51t222 -155v170h133v-351h-133q-39 61 -94 106.5t-120.5 76t-136.5 46t-142 15.5q-127 0 -235.5 -46t-191.5 -128t-130.5 -190.5t-47.5 -233.5t46.5 -236.5t127 -194.5t189.5 -132t238 -49 q152 0 282.5 66.5t218.5 191.5h162q-47 -94 -116.5 -168t-155.5 -126t-185.5 -81t-201.5 -29q-147 0 -286.5 58.5t-244.5 160.5q-111 109 -164 247t-53 292z" />
<glyph unicode="D" horiz-adv-x="1443" d="M47 0v133h184v1167h-184v134h637q154 0 275.5 -42t234.5 -153q106 -104 159.5 -241.5t53.5 -284.5q0 -143 -53.5 -274.5t-151.5 -235.5q-111 -117 -235.5 -160t-282.5 -43h-637zM375 133h280q131 0 238.5 30t200.5 128q78 84 123 196.5t45 227.5q0 121 -45.5 238.5 t-135.5 201.5q-47 45 -94 73.5t-98 44t-106.5 21.5t-120.5 6h-287v-1167z" />
<glyph unicode="E" horiz-adv-x="1122" d="M49 0v133h182v1167h-182v134h1008v-371h-144v237h-538v-518h555v-118h-555v-531h538v236h144v-369h-1008z" />
<glyph unicode="F" horiz-adv-x="1122" d="M49 0v133h182v1167h-182v134h1010v-375h-144v241h-540v-522h547v-119h-547v-526h184v-133h-510z" />
<glyph unicode="G" horiz-adv-x="1564" d="M47 727q0 158 57.5 293t153.5 227q113 106 250 164.5t295 58.5q150 0 284 -58t230 -165v187h133v-361h-133q-104 127 -236 189q-129 68 -282 67q-127 0 -237.5 -47t-193.5 -129t-130.5 -191.5t-47.5 -234.5q0 -127 46.5 -237.5t128 -193.5t191.5 -131t239 -48 q102 0 194 30.5t169 87t132.5 136.5t79.5 178h-719v123h879v-672h-133v334q-90 -174 -252 -268.5t-357 -94.5q-92 0 -185 27t-176 75t-153.5 113.5t-117.5 147.5q-12 23 -32 63.5t-37 92t-28.5 111.5t-11.5 126z" />
<glyph unicode="H" horiz-adv-x="1443" d="M49 0v133h182v1167h-182v134h510v-134h-184v-520h712v520h-182v134h510v-134h-182v-1167h182v-133h-510v133h182v535h-712v-535h184v-133h-510z" />
<glyph unicode="I" horiz-adv-x="602" d="M49 0v133h182v1167h-182v134h508v-134h-182v-1167h182v-133h-508z" />
<glyph unicode="J" horiz-adv-x="1042" d="M41 330h149q6 -47 26 -87t49.5 -70t69.5 -48.5t89 -18.5q57 0 104 25t82 70q41 51 47.5 111.5t6.5 125.5v862h-185v134h512v-134h-182v-892q0 -86 -12.5 -154t-67.5 -139q-55 -70 -137 -107t-172 -37q-78 0 -146.5 28t-120 75t-81 111.5t-31.5 144.5z" />
<glyph unicode="K" horiz-adv-x="1404" d="M49 0v133h182v1167h-182v134h508v-134h-182v-532l590 532h-160v134h518v-134h-172l-616 -550l653 -617h168v-133h-525v133h166l-622 590v-590h182v-133h-508z" />
<glyph unicode="L" horiz-adv-x="1042" d="M49 0v133h182v1167h-182v134h508v-134h-182v-1167h471v236h143v-369h-940z" />
<glyph unicode="M" horiz-adv-x="1966" d="M39 0v133h182v1167h-182v134h401l518 -1217l572 1217h397v-134h-184v-1167h184v-133h-514v133h184v1116l-585 -1249h-113l-534 1245v-1112h188v-133h-514z" />
<glyph unicode="N" horiz-adv-x="1605" d="M49 0v133h182v1167h-182v134h328l860 -1205v1071h-184v134h510v-134h-183v-1300h-147l-858 1198v-1065h184v-133h-510z" />
<glyph unicode="O" horiz-adv-x="1605" d="M47 721q0 156 58.5 293t161 239.5t241.5 159.5t295 57q154 0 291 -57t239.5 -158.5t161.5 -236.5t59 -287q0 -158 -58 -296t-159.5 -240.5t-240 -163t-293.5 -60.5q-156 0 -294 58.5t-241.5 160t-162 237.5t-58.5 294zM190 725q0 -127 47.5 -237.5t130.5 -193.5 t194.5 -130t238.5 -47v-2q127 0 237.5 48t193.5 131t130 193.5t47 237.5q0 123 -47 232.5t-129 191.5t-192.5 130t-237.5 48t-238.5 -47t-194.5 -129t-131.5 -191.5t-48.5 -234.5z" />
<glyph unicode="P" d="M49 0v133h182v1167h-182v134h586q90 0 174 -19.5t158 -73.5q80 -59 123 -149t43 -188q0 -190 -140 -324q-76 -74 -158.5 -94.5t-185.5 -20.5h-274v-432h182v-133h-508zM375 698h260q68 0 128 10.5t114 55.5q111 92 110 235q0 68 -30.5 129.5t-84.5 104.5 q-57 43 -113.5 55t-125.5 12h-258v-602z" />
<glyph unicode="Q" horiz-adv-x="1724" d="M49 725q0 154 58.5 290t159 237.5t237.5 159.5t291 58q158 0 296 -57t241.5 -158.5t162.5 -238.5t59 -293q0 -147 -56 -287.5t-167 -242.5q57 -39 121 -66t133 -35v160h115v-293h-12q-118 0 -230 38q-117 40 -219 109q-203 -135 -440 -135q-158 0 -295 59.5t-238.5 162 t-159 238.5t-57.5 294zM195 729q0 -41 9 -83t21 -83q74 25 152 39t158 14q106 0 198 -25.5t174 -70.5t159 -105.5t153 -127.5q92 84 141 194.5t49 233.5q0 129 -47 239.5t-129 193.5t-193.5 131t-240.5 48q-125 0 -235.5 -47t-192.5 -129t-129 -190.5t-47 -231.5zM258 446 q37 -78 94.5 -137t129 -103t151.5 -66.5t164 -22.5q90 0 171 19.5t156 70.5l-41 35q-63 55 -123.5 103t-136.5 83q-70 33 -143.5 51.5t-149.5 18.5q-143 -1 -272 -52z" />
<glyph unicode="R" horiz-adv-x="1284" d="M49 0v133h184v1167h-184v134h619q104 0 193 -18.5t173 -88.5q82 -72 122 -164t40 -198q0 -90 -33 -170t-91 -140.5t-138 -95.5t-172 -35l299 -391h192v-133h-280l-443 618h54q82 0 159.5 5.5t147.5 48.5q76 47 119 122.5t43 163.5q0 78 -28 143.5t-81 117.5 q-66 57 -134.5 69t-152.5 12h-280v-1167h172v-133h-500z" />
<glyph unicode="S" horiz-adv-x="1003" d="M47 1090q0 76 21.5 131t52.5 96q57 78 150.5 115.5t195.5 37.5q86 0 167 -37.5t118 -115.5v117h118v-344h-118q-14 123 -94 189.5t-193 66.5q-53 0 -103.5 -18.5t-87 -51.5t-60.5 -79t-24 -103t25 -110.5t70 -88.5q49 -37 114.5 -53.5t124.5 -30.5q78 -18 151 -42 t136 -79q66 -53 100.5 -130t34.5 -161q0 -74 -17.5 -136t-66.5 -122q-131 -170 -356 -170q-100 0 -184 42t-142 128v-141h-121v385h121q14 -129 99.5 -206t220.5 -77q59 0 114.5 21.5t97.5 58.5t65.5 89.5t23.5 113.5q0 78 -28 128t-75 84t-106.5 52.5t-124.5 34.5 q-74 20 -141.5 40.5t-130.5 66.5q-74 55 -111 132t-37 167z" />
<glyph unicode="T" horiz-adv-x="1083" d="M45 1051v383h1014v-383h-123v249h-311v-1167h182v-133h-510v133h182v1167h-311v-249h-123z" />
<glyph unicode="U" horiz-adv-x="1404" d="M49 1300v134h502v-134h-174v-790q0 -72 9 -138.5t52 -127.5q45 -66 114 -96.5t148 -30.5q74 0 138.5 25.5t111.5 84.5q49 63 61.5 134t12.5 147v792h-172v134h500v-134h-185v-825q0 -100 -21.5 -186t-92.5 -166q-66 -74 -157 -113t-194 -39q-102 0 -191 36t-159 112 q-78 84 -98.5 175t-20.5 200v806h-184z" />
<glyph unicode="V" horiz-adv-x="1564" d="M14 1300v134h512v-134h-178l440 -1099l451 1099h-184v134h504v-134h-173l-526 -1300h-151l-514 1300h-181z" />
<glyph unicode="W" horiz-adv-x="2086" d="M14 1300v134h512v-134h-186l307 -1079l334 1213h115l336 -1211l301 1077h-193v134h514v-134h-182l-361 -1300h-155l-316 1151l-323 -1151h-152l-377 1300h-174z" />
<glyph unicode="X" horiz-adv-x="1484" d="M45 0v133h178l436 604l-409 563h-174v134h514v-134h-174l332 -458l325 458h-182v134h516v-134h-166l-410 -563l441 -604h168v-133h-514v133h182l-360 498l-363 -498h174v-133h-514z" />
<glyph unicode="Y" horiz-adv-x="1363" d="M14 1300v134h500v-134h-176l354 -682l338 682h-184v134h502v-134h-172l-412 -819v-348h184v-133h-512v133h185v348l-437 819h-170z" />
<glyph unicode="Z" horiz-adv-x="1042" d="M47 0v119l744 1181h-596v-239h-125v373h897v-115l-746 -1186h670v238h125v-371h-969z" />
<glyph unicode="[" horiz-adv-x="602" d="M70 -258v1692h452v-129h-303v-1430h303v-133h-452z" />
<glyph unicode="\" d="M162 1434h139l598 -1434h-135z" />
<glyph unicode="]" horiz-adv-x="602" d="M72 -125h301v1430h-301v129h450v-1692h-450v133z" />
<glyph unicode="^" horiz-adv-x="1323" d="M100 350l494 1084h113l497 -1084h-125l-430 938l-426 -938h-123z" />
<glyph unicode="_" horiz-adv-x="1003" d="M0 -152h1004v-98h-1004v98z" />
<glyph unicode="`" horiz-adv-x="841" d="M143 1462l56 117l489 -285l-49 -100z" />
<glyph unicode="a" horiz-adv-x="1323" d="M29 522q0 55 8 99.5t19.5 79t27.5 63.5t33 59q33 55 81 101.5t107.5 80t127 50t138.5 16.5q145 0 253 -63.5t180 -184.5v230h307v-123h-174v-805h174v-125h-307v219q-70 -121 -180.5 -184.5t-250.5 -63.5q-143 0 -267 66.5t-193 181.5q-41 63 -65 139q-20 65 -20 138 q0 13 1 26zM160 520q0 -84 33.5 -160.5t91 -134t133.5 -91.5t162 -34q90 0 167.5 33t135 90.5t90.5 135t33 165.5q0 86 -33 162t-90.5 132t-134 90t-162.5 34q-88 0 -165 -34t-134.5 -91t-92 -134t-34.5 -163z" />
<glyph unicode="b" horiz-adv-x="1323" d="M31 0v125h176v1184h-176v125h309v-615q63 119 173 185.5t243 66.5q115 0 216 -43t176 -116.5t118 -175t43 -216.5q0 -86 -27 -165t-61 -136q-29 -47 -75 -91t-104.5 -79t-127 -56.5t-142.5 -21.5q-135 0 -249.5 63.5t-182.5 184.5v-219h-309zM334 520q0 -88 33.5 -164.5 t92 -133t135.5 -87.5t165 -31t163.5 33t132 90.5t88.5 135t32 163.5t-33 161t-89.5 131t-132 89t-163.5 33q-90 0 -167 -33t-134.5 -89t-90 -132t-32.5 -166z" />
<glyph unicode="c" horiz-adv-x="1122" d="M29 516q0 115 41 214t112 173q76 76 173.5 122t211.5 46q113 0 205 -43t166 -125v150h123v-316h-123q-59 94 -155.5 148.5t-207.5 54.5q-88 0 -162.5 -34t-131 -91t-89 -134t-32.5 -163q0 -88 33.5 -163.5t91 -132t135.5 -87.5t166 -31q57 0 112.5 15.5t102.5 44.5 t85 70.5t62 95.5h148q-31 -82 -83 -148.5t-121 -112.5t-151 -72t-168 -26q-113 0 -212 43t-172.5 118t-116.5 174t-43 210z" />
<glyph unicode="d" horiz-adv-x="1323" d="M29 526q0 111 43 209.5t115.5 173t170 118.5t207.5 44q139 0 257 -67.5t182 -192.5v498h-177v125h310v-1309h176v-125h-309v223q-68 -119 -180.5 -185.5t-252.5 -66.5q-61 0 -126.5 19.5t-126 52.5t-112.5 79t-85 101q-41 63 -66.5 144t-25.5 159zM160 518 q0 -88 34.5 -165t93 -134t135.5 -90t163 -33q88 0 165.5 34t135 92.5t89.5 137t32 166.5q0 86 -33 163t-90.5 133.5t-135 90t-163.5 33.5q-88 0 -166 -34.5t-135.5 -93t-91 -135.5t-33.5 -165z" />
<glyph unicode="e" d="M27 516q0 113 42 213t113.5 176t171 121t213.5 45q117 0 218.5 -43t177 -116.5t117.5 -175t42 -218.5v-41h-964q4 -82 39.5 -152.5t92 -121.5t128 -82t153.5 -31q115 0 211.5 52.5t155.5 152.5h139q-33 -74 -84 -133.5t-117.5 -101.5t-143.5 -65.5t-157 -23.5 q-115 0 -214 42t-173.5 117t-117.5 174t-43 212zM158 586h839q-12 80 -50 147.5t-96 115.5t-131 75.5t-155 27.5q-76 0 -144.5 -29.5t-123.5 -79.5t-93 -116.5t-46 -140.5z" />
<glyph unicode="f" horiz-adv-x="602" d="M31 0v125h178v809h-178v127h176v16q2 45 4 86t12 78t29.5 73t56.5 66q51 49 117 67.5t135 22.5v-116q-39 -4 -75.5 -15.5t-69.5 -38.5q-55 -41 -63.5 -95t-10.5 -118v-26h180v-127h-180v-809h180v-125h-491z" />
<glyph unicode="g" horiz-adv-x="1323" d="M27 524q0 96 26.5 174t63.5 131q80 115 200.5 178.5t257.5 63.5t251 -64.5t171 -177.5v224h310v-123h-177v-785q0 -61 -5 -114.5t-18 -103.5t-39 -96t-69 -91q-80 -90 -186 -133t-223 -43q-78 0 -155 21.5t-142.5 61.5t-116.5 100t-78 138h152q49 -98 144 -152.5 t204 -54.5q82 0 160 36t131 93q68 70 88 144t20 168v112q-61 -123 -174.5 -191.5t-255.5 -68.5q-55 0 -122.5 17.5t-131 49.5t-120 80t-89.5 113q-29 51 -53 127t-24 166zM158 520q0 -88 34.5 -164.5t93 -135t135.5 -91.5t165 -33t164.5 34t134 92.5t90.5 136t33 165.5 q0 86 -33 164t-90.5 135.5t-135 92t-165.5 34.5t-165 -34.5t-135.5 -93t-92 -136.5t-33.5 -166z" />
<glyph unicode="h" horiz-adv-x="1284" d="M31 0v125h176v1184h-176v125h309v-578q51 100 142 157.5t206 57.5q188 0 316 -147q68 -82 83 -172t15 -191v-436h176v-125h-485v125h176v383q0 74 -4 147.5t-41 137.5q-41 70 -112 110.5t-153 40.5q-70 0 -131 -26.5t-106 -77.5q-31 -35 -48.5 -69t-23.5 -70.5t-8 -75.5 t-2 -80v-420h176v-125h-485z" />
<glyph unicode="i" horiz-adv-x="520" d="M31 0v125h180v805h-176v123h309v-928h176v-125h-489zM211 1227v207h133v-207h-133z" />
<glyph unicode="j" horiz-adv-x="481" d="M29 -274q74 14 112.5 47.5t56 82t18.5 105.5t1 117v852h-176v123h309v-1033q0 -90 -14 -160.5t-50 -122.5t-98.5 -86t-158.5 -52v127zM217 1227v207h133v-207h-133z" />
<glyph unicode="k" d="M31 0v125h180v1184h-180v125h313v-850l387 346h-160v123h496v-123h-172l-395 -361l444 -444h191v-125h-519v125h148l-420 426v-426h160v-125h-473z" />
<glyph unicode="l" horiz-adv-x="561" d="M31 0v125h188v1184h-176v125h309v-1309h174v-125h-495z" />
<glyph unicode="m" horiz-adv-x="1966" d="M33 0v125h176v805h-176v123h309v-183q45 94 128 147.5t192 53.5q113 0 197.5 -52t135.5 -149l23 -39q23 53 59.5 98.5t83.5 77t102.5 48t110.5 16.5q154 0 241 -62.5t134 -177.5q18 -47 23.5 -98t5.5 -137v-471h178v-125h-488v125h179v440q0 37 -3.5 77t-10.5 77 t-20.5 69.5t-31.5 55.5q-45 51 -103.5 75.5t-121.5 24.5q-57 0 -118.5 -25.5t-102.5 -72.5q-53 -59 -64.5 -116.5t-11.5 -131.5v-473h178v-125h-485v125h176v444q0 94 -21.5 167t-44.5 108q-39 59 -101.5 79.5t-121.5 20.5q-78 0 -130 -25.5t-91 -72.5q-51 -59 -63.5 -124 t-12.5 -138v-459h176v-125h-485z" />
<glyph unicode="n" horiz-adv-x="1323" d="M31 0v125h176v805h-176v123h309v-185q49 98 146.5 150.5t205.5 52.5q45 0 98.5 -11t103.5 -37t93 -63.5t68 -91.5q20 -39 39.5 -108.5t19.5 -165.5v-469h176v-125h-485v125h176v422q0 70 -7 137.5t-42 128.5q-23 37 -53.5 61.5t-68.5 40t-77 21.5t-78 6q-70 0 -135 -29.5 t-110 -81.5q-53 -61 -61.5 -127.5t-8.5 -142.5v-436h176v-125h-485z" />
<glyph unicode="o" d="M27 520q0 115 44 216.5t118.5 175t176 116.5t216.5 43q113 0 212 -43t174.5 -115.5t118.5 -172t43 -210.5q0 -115 -43 -217t-117.5 -178t-175 -120t-216.5 -44q-115 0 -215.5 43t-175 118t-117.5 175t-43 213zM158 524q0 -86 32.5 -162.5t90 -134t133 -91.5t164.5 -34 q86 0 163.5 33t134 90.5t89 134t32.5 162.5t-31.5 162t-89 133t-134 91t-162.5 34q-88 0 -164 -34t-133.5 -90t-91 -132t-33.5 -162z" />
<glyph unicode="p" horiz-adv-x="1323" d="M31 -266h176v1196h-176v123h309v-234q70 125 181.5 188.5t252.5 63.5q63 0 128 -14.5t125 -45t111.5 -78.5t90.5 -114q29 -53 57.5 -124.5t28.5 -172.5q0 -115 -42 -214t-116 -175t-172 -119t-211 -43q-133 0 -252 65.5t-182 186.5v-489h176v-125h-485v125zM338 524 q0 -88 32.5 -165.5t90 -136t133.5 -92.5t164 -34t164.5 34t134 91.5t91.5 135t34 165.5q0 98 -34 178t-91.5 136.5t-131.5 86.5q-66 26 -139 26q-10 0 -20 -1q-86 -4 -163 -34.5t-136 -85t-94 -131.5t-35 -173z" />
<glyph unicode="q" horiz-adv-x="1323" d="M29 520q0 70 16 146.5t59 150.5q29 49 75 95t105.5 82t131 56.5t151.5 20.5q141 0 254 -64.5t180 -189.5v236h310v-123h-176v-1196h176v-125h-486v125h176v487q-31 -59 -77.5 -105t-104 -78t-121 -49.5t-131.5 -17.5q-115 0 -213 43t-169.5 118t-113.5 174t-42 214z M160 522q0 -88 34.5 -165.5t92 -136t134.5 -91.5t163 -33q88 0 164.5 33t134 91.5t91.5 136t34 165.5q0 80 -33 156t-91.5 136t-137 97t-168.5 37q-15 1 -31 1q-73 0 -135 -24q-76 -30 -131.5 -87.5t-88 -137.5t-32.5 -178z" />
<glyph unicode="r" horiz-adv-x="720" d="M31 0v125h176v805h-176v123h309v-213q16 53 51 93t79 66.5t97.5 40t108.5 13.5v-123q-176 -16 -256 -113.5t-80 -267.5v-424h176v-125h-485z" />
<glyph unicode="s" horiz-adv-x="841" d="M53 0v301h109q10 -96 86 -159.5t184 -63.5q43 0 84 14t74 40t51 63.5t18 83.5q0 55 -20.5 88.5t-54 54t-77.5 31t-87 20.5q-63 14 -122.5 29.5t-115.5 50.5q-57 37 -91 94.5t-34 126.5q0 55 12.5 98t43.5 82q25 31 56.5 53.5t68 36t76.5 20.5t77 7q74 0 136.5 -26.5 t103.5 -90.5v99h108v-267h-108q-2 41 -20.5 74t-49.5 55q-63 47 -147 48q-41 0 -78 -11.5t-65.5 -34t-46 -56.5t-17.5 -77q0 -49 21.5 -81.5t55 -52t74.5 -32t82 -20.5q61 -12 123 -28.5t115 -49.5q66 -37 98.5 -98.5t32.5 -132.5q0 -51 -14.5 -90t-32.5 -72 q-37 -74 -125 -115t-182 -41q-96 0 -170 37t-123 119v-127h-109z" />
<glyph unicode="t" horiz-adv-x="641" d="M27 930v123h202v381h131v-381h234v-123h-234v-805h250v-125h-381v930h-202z" />
<glyph unicode="u" horiz-adv-x="1284" d="M18 930v123h310v-568q0 -74 9 -143.5t56 -132.5q86 -114 226 -114q14 0 28 1q78 6 137.5 37t98.5 78q27 33 43 63.5t22 63.5t8 68.5t2 74.5v449h-176v123h310v-928h178v-125h-312v176q-51 -96 -143 -150.5t-207 -54.5q-57 0 -111.5 17.5t-101.5 45t-85 65.5t-60 77 q-27 43 -41 104.5t-14 155.5v494h-177z" />
<glyph unicode="v" horiz-adv-x="1284" d="M14 930v123h484v-123h-160l307 -772l313 772h-167v123h479v-123h-168l-385 -930h-150l-377 930h-176z" />
<glyph unicode="w" horiz-adv-x="1806" d="M14 930v123h478v-123h-166l264 -758l270 780h111l248 -770l268 748h-170v123h479v-123h-176l-334 -930h-137l-236 729l-266 -729h-137l-320 930h-176z" />
<glyph unicode="x" horiz-adv-x="1204" d="M31 0v125h172l299 403l-301 402h-164v123h471v-123h-146l230 -305l225 305h-153v123h475v-123h-164l-295 -402l301 -403h174v-125h-479v125h141l-225 309l-225 -309h141v-125h-477z" />
<glyph unicode="y" horiz-adv-x="1284" d="M14 930v123h482v-123h-166l297 -772l315 772h-166v123h477v-123h-168l-501 -1196h172v-125h-488v125h178l107 258l-371 938h-168z" />
<glyph unicode="z" horiz-adv-x="841" d="M27 0v113l604 817h-455v-203h-119v326h740v-121l-592 -807h504v194h118v-319h-800z" />
<glyph unicode="{" horiz-adv-x="602" d="M72 598q55 10 102 45q45 33 51 76t6 94v328q0 82 12.5 139t46.5 92t90 50.5t142 11.5q-90 -27 -123.5 -80.5t-33.5 -143.5v-346q0 -51 -6.5 -94t-24 -78t-52 -58.5t-92.5 -35.5q109 -25 142 -86t33 -164v-371q0 -92 31.5 -144t125.5 -81q-61 -2 -113.5 5t-103.5 46 q-53 39 -63.5 95.5t-10.5 115.5v369q0 47 -5 79t-38 70q-42 50 -116 66z" />
<glyph unicode="|" horiz-adv-x="1323" d="M590 -502v2007h125v-2007h-125z" />
<glyph unicode="}" horiz-adv-x="602" d="M74 -248q92 29 123.5 81t31.5 144v371q0 102 33 163.5t141 86.5q-55 12 -89.5 35.5t-53 58.5t-25 78t-6.5 94v346q0 90 -32.5 143.5t-122.5 80.5q86 4 142 -11.5t89 -50.5t45 -92t12 -139v-328q0 -51 6.5 -94t53.5 -76q43 -35 100 -45q-35 -8 -64.5 -24.5t-51.5 -41.5 q-33 -39 -38.5 -70.5t-5.5 -78.5v-369q0 -59 -9 -115.5t-62 -95.5q-51 -39 -103.5 -45t-113.5 -6z" />
<glyph unicode="~" horiz-adv-x="1323" d="M106 618q29 43 60 84t67.5 71t81.5 47.5t105 17.5q57 0 123.5 -21.5t130.5 -50.5q68 -25 126 -47.5t105 -22.5q74 0 118 45t83 103l94 -62q-29 -39 -57.5 -75.5t-62 -65.5t-76.5 -46t-95 -17q-55 0 -102 15t-96 34l-107 39q-45 16 -93 34.5t-95 18.5q-41 0 -72 -13.5 t-56.5 -36t-46 -52t-40.5 -60.5z" />
<glyph unicode="&#xa1;" horiz-adv-x="280" d="M72 -381v1067h139v-1067h-139zM72 836v217h139v-217h-139z" />
<glyph unicode="&#xa2;" d="M152 713q0 86 30.5 163.5t85 136t127 98.5t158.5 50v191h115v-191q70 -10 126 -40.5t101 -84.5v113h94v-260h-123q-31 53 -84 89t-114 46v-625q63 16 110 48t84 85h150q-45 -109 -137.5 -176t-206.5 -90v-186h-115v186q-86 8 -158.5 47t-126 99.5t-85 138.5t-31.5 162z M289 711q0 -59 20.5 -109.5t55 -93.5t83 -70.5t105.5 -38.5v625q-59 -10 -107.5 -38t-83 -70t-54 -94t-19.5 -111z" />
<glyph unicode="&#xa3;" d="M8 664v112h176q-39 55 -58.5 110.5t-19.5 123.5q0 92 38 175t103.5 145.5t149.5 98t176 35.5q113 0 195 -43t147 -129v140h132v-349h-132q-8 57 -37.5 104.5t-73.5 81.5t-98.5 52t-109.5 18q-72 0 -134.5 -26.5t-108.5 -71.5t-72.5 -108.5t-26.5 -135.5q0 -127 96 -221 h490v-112h-406q63 -63 112.5 -134t49.5 -170q0 -145 -102 -243h170q66 0 132 10t124 49q51 41 79.5 101.5t28.5 125.5q0 43 -14 76h131q8 -23 9 -42t1 -42q0 -88 -32.5 -163.5t-100.5 -133.5q-74 -63 -159 -80.5t-181 -17.5h-586v117h232q63 35 93 101.5t30 135.5 q0 51 -16.5 93t-44.5 80t-60.5 72t-67.5 65h-254z" />
<glyph unicode="&#xa4;" d="M100 285l111 108q-51 59 -75.5 135t-24.5 152t24.5 153.5t75.5 137.5l-111 106l80 82l109 -106q129 100 291 100q78 0 153.5 -25.5t134.5 -74.5l109 106l80 -82l-105 -106q51 -63 75 -135t24 -156t-26 -152.5t-73 -134.5l105 -108l-82 -78l-107 106q-59 -49 -134 -75.5 t-150 -26.5q-86 0 -157 25.5t-138 76.5l-107 -106zM231 684q0 -72 27 -135.5t74 -111.5t110.5 -75.5t135.5 -27.5q74 0 137 26.5t111 72.5t77 110.5t29 136.5q0 74 -27.5 137.5t-75 111.5t-112 76.5t-135.5 28.5q-72 0 -136.5 -27.5t-112.5 -75.5t-75 -111.5t-27 -135.5z " />
<glyph unicode="&#xa5;" d="M18 1309v125h426v-125h-153l303 -693l283 693h-154v125h424v-125h-143l-193 -471h272v-88h-313l-47 -113h360v-90h-399l-29 -74v-348h156v-125h-432v125h156v348l-35 74h-402v90h363l-47 113h-316v88h273l-207 471h-146z" />
<glyph unicode="&#xa6;" horiz-adv-x="1323" d="M590 -352v704h125v-704h-125zM590 651v705h125v-705h-125z" />
<glyph unicode="&#xa7;" horiz-adv-x="882" d="M53 55v25l125 -4q-4 -57 15.5 -98t54.5 -70t82 -42t100 -13q47 0 90 14t77 40.5t53.5 65.5t19.5 90q0 47 -22.5 88.5t-61.5 69.5q-39 29 -81 38t-87 20q-61 12 -118.5 36.5t-102.5 61.5t-74 89t-29 124q0 115 66.5 190.5t175.5 102.5q-86 35 -146.5 98t-60.5 164 q0 63 24.5 116.5t67.5 91.5t100.5 59.5t120.5 21.5q57 0 116.5 -16.5t108 -49.5t78 -82t29.5 -117l-119 5q0 39 -18.5 67.5t-49 47t-66.5 27.5t-70 9q-84 0 -142.5 -53t-58.5 -139q0 -49 21.5 -83t55 -60.5t74.5 -43t78 -28.5q53 -16 97.5 -33t87.5 -49q57 -45 89.5 -107.5 t32.5 -134.5q0 -96 -57 -169t-147 -103q90 -29 147 -99.5t57 -169.5q0 -76 -29.5 -135t-78.5 -99t-114.5 -60.5t-137.5 -20.5t-137.5 20.5t-117.5 61.5t-85 100t-33 135zM209 600q0 -47 19.5 -84t50 -64.5t71.5 -43t84 -15.5q47 0 89 14.5t74 40t50.5 65.5t18.5 89 q0 41 -19.5 77t-51.5 62.5t-72 42t-77 15.5q-43 0 -86 -13.5t-76.5 -39t-54 -61.5t-20.5 -85z" />
<glyph unicode="&#xa8;" horiz-adv-x="681" d="M145 1257v252h138v-252h-138zM399 1257v252h140v-252h-140z" />
<glyph unicode="&#xa9;" horiz-adv-x="1644" d="M84 723q0 154 58.5 291t158.5 238.5t234.5 159.5t289.5 58q150 0 285 -57t235.5 -158.5t158 -237.5t57.5 -288q0 -160 -56.5 -298t-158 -240.5t-237.5 -161t-292 -58.5q-154 0 -287 59.5t-232 162t-156.5 238.5t-57.5 292zM184 725q0 -135 50.5 -254t137.5 -208 t203.5 -140t249.5 -51v4q129 -2 246 48t203 138t136 206t50 251q0 135 -50 254t-136 207t-203 139t-250 51q-131 0 -247.5 -51t-202.5 -139t-136.5 -206t-50.5 -249zM406 717q0 98 32.5 182t91 145.5t141.5 95.5t181 34q57 0 117.5 -14.5t114 -45.5t91 -77t52.5 -107 l-137 -33q-16 96 -82 144.5t-162 48.5q-78 0 -136.5 -31t-96.5 -82t-56 -117.5t-18 -136.5q0 -72 17 -136.5t56 -112.5t95.5 -77.5t134.5 -29.5q100 0 165.5 53t98.5 149l121 -37q-23 -66 -64 -113.5t-95 -78.5t-117.5 -46t-125.5 -15q-96 0 -174 32.5t-132 90t-83.5 138.5 t-29.5 177z" />
<glyph unicode="&#xaa;" horiz-adv-x="841" d="M29 1141q0 53 15 106t52 94q63 70 120.5 99.5t137.5 29.5q160 0 248 -129v113h197v-88h-105v-459h105v-86h-197v115q-41 -66 -106.5 -98.5t-139.5 -32.5q-70 0 -142.5 39t-113.5 92q-47 59 -59 108.5t-12 96.5zM123 1139q0 -49 18.5 -93.5t51 -77t75.5 -53t92 -20.5 q51 0 96.5 19.5t77 52t51 76.5t19.5 98q0 49 -19.5 92t-52 76.5t-75.5 52t-95 18.5q-49 0 -92 -18.5t-76.5 -52t-52 -77.5t-18.5 -93z" />
<glyph unicode="&#xab;" horiz-adv-x="641" d="M72 483v80l231 344l31 -112l-172 -275l172 -272l-31 -109zM328 483v78l217 324l28 -117l-155 -248l155 -248l-28 -106z" />
<glyph unicode="&#xac;" horiz-adv-x="1323" d="M8 807v123h1288v-619h-120v496h-1168z" />
<glyph unicode="&#xad;" horiz-adv-x="602" d="M51 457v133h500v-133h-500z" />
<glyph unicode="&#xae;" horiz-adv-x="1644" d="M84 725q0 156 59.5 292t159.5 237.5t235.5 158.5t288.5 57q152 0 288 -58t235.5 -160.5t157 -240t57.5 -290.5q0 -158 -58.5 -294t-159 -237.5t-237.5 -160t-289 -58.5q-156 0 -289 60.5t-233 163t-157.5 238.5t-57.5 292zM184 725q0 -137 50.5 -255t137.5 -207 t205.5 -140t253.5 -51v4q131 -2 247 50t201 140t135 207t50 252t-51 252t-138 206t-204 137t-250 50q-131 0 -247.5 -51t-202.5 -139t-136.5 -206t-50.5 -249zM522 285v893h402q51 0 106 -6.5t105 -34.5q55 -33 79.5 -87.5t24.5 -115.5q0 -127 -76 -184.5t-194 -61.5 l254 -403h-146l-237 403h-193v-403h-125zM647 784h230q43 0 83.5 5.5t74.5 21.5t55.5 47t21.5 84q0 47 -20.5 77t-52 44t-70.5 18t-76 4h-246v-301z" />
<glyph unicode="&#xaf;" horiz-adv-x="921" d="M143 1331v111h641v-111h-641z" />
<glyph unicode="&#xb0;" horiz-adv-x="802" d="M100 1169q0 63 23.5 118.5t64.5 95.5t96.5 63.5t116.5 23.5t116.5 -23.5t95.5 -63.5t64.5 -95t24.5 -119q0 -61 -24.5 -116.5t-64.5 -95t-95 -64.5t-117 -25q-61 0 -116.5 25t-95 64.5t-64.5 95t-25 116.5zM180 1169q0 -45 17.5 -85t47 -70.5t69.5 -47t87 -16.5 q45 0 85 16.5t70 47t48.5 70.5t18.5 85t-18.5 85t-48.5 71t-70 48.5t-87 17.5q-45 0 -85 -17.5t-69.5 -48.5t-47 -71t-17.5 -85z" />
<glyph unicode="&#xb1;" horiz-adv-x="1323" d="M152 209v123h1019v-123h-1019zM152 778v123h448v326h125v-326h446v-123h-446v-325h-125v325h-448z" />
<glyph unicode="&#xb2;" horiz-adv-x="698" d="M49 588v74l395 356q43 39 77 81t34 101q0 80 -58.5 134.5t-144.5 54.5q-102 0 -153.5 -61.5t-51.5 -143.5h-92q0 61 22.5 113.5t62.5 91t95.5 60t120.5 21.5q59 0 112.5 -19t92.5 -56t62.5 -87.5t23.5 -109.5q0 -82 -46 -137t-103 -107l-330 -292h391v135h84v-209h-594z " />
<glyph unicode="&#xb3;" horiz-adv-x="698" d="M35 836h96q6 -78 62.5 -132.5t142.5 -54.5q45 0 84 15.5t67.5 43t45 63.5t16.5 79q0 41 -19.5 76t-50 60.5t-71.5 39.5t-82 14h-50v68h66q27 0 55.5 9t51 25.5t37 44t14.5 64.5q0 63 -44 105.5t-114 42.5q-61 0 -105 -39t-49 -98h-88q2 47 22.5 84.5t54.5 66.5t77 43 t92 14q47 0 90 -14t77 -43t53.5 -67.5t19.5 -85.5q0 -59 -31 -109.5t-94 -73.5q84 -25 134 -89t50 -146q0 -57 -24.5 -106.5t-65.5 -85.5t-95 -57.5t-114 -21.5q-63 0 -118.5 19.5t-97.5 53.5t-66.5 83.5t-28.5 108.5z" />
<glyph unicode="&#xb4;" horiz-adv-x="841" d="M143 1296l494 279l59 -115l-506 -262z" />
<glyph unicode="&#xb5;" horiz-adv-x="1284" d="M18 930v123h310v-592q0 -68 15 -134.5t53 -117.5t98.5 -82t152.5 -31q4 0 31 3t61.5 14.5t73.5 34t72 63.5t53 102.5t20 147.5v469h-176v123h310v-928h178v-125h-312v176h-4q-47 -96 -139 -150.5t-207 -54.5q-76 0 -150.5 31t-129.5 80v-473h-133v1321h-177z" />
<glyph unicode="&#xb6;" horiz-adv-x="1003" d="M72 1073q0 80 32.5 149.5t90.5 123.5q63 57 133.5 72.5t154.5 15.5h498v-125h-176v-1567h-105v1567h-163v-1567h-107v975q-76 2 -140.5 29.5t-112.5 74.5t-76.5 111.5t-28.5 140.5z" />
<glyph unicode="&#xb7;" horiz-adv-x="602" d="M233 610v219h138v-219h-138z" />
<glyph unicode="&#xb8;" horiz-adv-x="641" d="M143 -354h93q10 -27 29.5 -43.5t47.5 -16.5q37 0 58.5 24.5t21.5 59.5q0 37 -23.5 59.5t-60.5 22.5q-49 0 -71 -35l-78 29l80 236h94l-53 -160q16 8 26 10t27 2q68 0 109.5 -48t41.5 -116q0 -35 -13 -67.5t-34.5 -56t-53.5 -38t-67 -14.5q-70 0 -118 40t-56 112z" />
<glyph unicode="&#xb9;" horiz-adv-x="698" d="M125 1364v70h281v-785h129v-76h-351v76h127v715h-186z" />
<glyph unicode="&#xba;" horiz-adv-x="681" d="M29 1139q0 68 25.5 129t70.5 106t105.5 70.5t129.5 25.5q70 0 129.5 -25.5t104.5 -69.5t70.5 -103.5t25.5 -126.5q0 -72 -24.5 -132.5t-69.5 -106.5t-105.5 -72.5t-132.5 -26.5q-68 0 -128 25.5t-105 71.5t-70.5 105.5t-25.5 129.5zM115 1141q0 -51 18.5 -96.5t52 -78 t77.5 -53t95 -20.5t96.5 19.5t78 53t52 77.5t19.5 98q0 49 -19.5 94t-52 79t-76.5 52t-96 18q-51 0 -95 -18t-78.5 -52t-53 -79t-18.5 -94z" />
<glyph unicode="&#xbb;" horiz-adv-x="641" d="M72 272l159 248l-159 248l30 117l220 -324v-78l-220 -317zM313 248l170 272l-170 275l31 112l229 -344v-80l-229 -344z" />
<glyph unicode="&#xbc;" horiz-adv-x="1744" d="M145 1362v72h281v-787h127v-74h-346v74h125v715h-187zM451 0l634 1434h115l-635 -1434h-114zM954 211v70l437 577h110v-577h137v-70h-137v-137h125v-74h-338v74h123v137h-457zM1055 281h356v477z" />
<glyph unicode="&#xbd;" horiz-adv-x="1744" d="M125 1364v70h281v-785h129v-76h-351v76h127v715h-186zM475 0l637 1434h115l-635 -1434h-117zM1077 0v74l393 356q45 39 79 81t34 101q0 80 -59.5 134.5t-145.5 54.5q-100 0 -152 -61.5t-52 -143.5h-91q0 59 22.5 111.5t62.5 92.5t95.5 61.5t120.5 21.5q59 0 112.5 -19.5 t92.5 -56.5t61.5 -87t22.5 -110q0 -82 -45 -137t-102 -106l-330 -293h391v135h82v-209h-592z" />
<glyph unicode="&#xbe;" horiz-adv-x="1744" d="M53 836h99q4 -78 61 -132.5t141 -54.5q47 0 86 15.5t68 43t44 63.5t15 79q0 41 -18.5 76t-50 60.5t-71.5 39.5t-81 14h-49v68h63q29 0 57.5 9t51.5 25.5t37 44t14 64.5q0 63 -44 105.5t-116 42.5q-59 0 -103 -39t-48 -98h-88q2 47 21.5 84.5t54 66.5t77.5 43t91 14 q49 0 92 -14t75.5 -43t53 -67.5t20.5 -85.5q0 -59 -30.5 -109.5t-94.5 -73.5q82 -25 132.5 -89t50.5 -146q0 -57 -24 -106.5t-64.5 -85.5t-95 -57.5t-115.5 -21.5t-116.5 19.5t-97.5 53.5t-68 83.5t-30 108.5zM545 0l635 1434h114l-635 -1434h-114zM1034 211v70l436 577h111 v-577h137v-70h-137v-137h125v-74h-338v74h123v137h-457zM1137 281h354v475z" />
<glyph unicode="&#xbf;" horiz-adv-x="1042" d="M72 12q0 63 14 110.5t40 87.5t61.5 77t78.5 75q78 72 124 147t50 183h140q0 -68 -13.5 -124t-41 -104t-65.5 -91t-87 -88q-33 -31 -61.5 -58.5t-49 -58.5t-33 -69t-12.5 -85q0 -63 23.5 -118.5t66.5 -96.5t97.5 -64.5t119.5 -23.5q63 0 118.5 24.5t96.5 68.5t64.5 99.5 t23.5 119.5h140q0 -92 -34 -175.5t-94.5 -143.5t-142.5 -97t-174 -37t-174 35t-142.5 94t-97 140t-36.5 173zM440 836v217h140v-217h-140z" />
<glyph unicode="&#xc0;" horiz-adv-x="1644" d="M14 0v133h179l520 1167h-191v134h375l561 -1301h180v-133h-526v133h186l-143 328h-663l-146 -328h180v-133h-512zM535 580h579l-287 690zM545 1843l55 115l490 -285l-50 -100z" />
<glyph unicode="&#xc1;" horiz-adv-x="1644" d="M14 0v133h179l520 1167h-191v134h375l561 -1301h180v-133h-526v133h186l-143 328h-663l-146 -328h180v-133h-512zM535 580h579l-287 690zM545 1675l493 281l60 -115l-506 -264z" />
<glyph unicode="&#xc2;" horiz-adv-x="1644" d="M14 0v133h179l520 1167h-191v134h375l561 -1301h180v-133h-526v133h186l-143 328h-663l-146 -328h180v-133h-512zM444 1618l344 276h78l351 -276h-173l-219 164l-215 -164h-166zM535 580h579l-287 690z" />
<glyph unicode="&#xc3;" horiz-adv-x="1644" d="M14 0v133h179l520 1167h-191v134h375l561 -1301h180v-133h-526v133h186l-143 328h-663l-146 -328h180v-133h-512zM506 1782q31 35 79 56.5t93 21.5q37 0 66.5 -10.5t58.5 -22.5q31 -14 60.5 -25.5t66.5 -11.5q90 0 141 65l76 -90q-41 -41 -91 -66.5t-108 -25.5 q-41 0 -72.5 11.5t-60.5 24.5t-55.5 24.5t-54.5 11.5q-37 0 -67 -17.5t-54 -44.5zM535 580h579l-287 690z" />
<glyph unicode="&#xc4;" horiz-adv-x="1644" d="M14 0v133h179l520 1167h-191v134h375l561 -1301h180v-133h-526v133h186l-143 328h-663l-146 -328h180v-133h-512zM535 580h579l-287 690zM627 1638v250h137v-250h-137zM881 1638v250h139v-250h-139z" />
<glyph unicode="&#xc5;" horiz-adv-x="1644" d="M14 0v133h179l520 1167h-191v134h375l561 -1301h180v-133h-526v133h186l-143 328h-663l-146 -328h180v-133h-512zM535 580h579l-287 690zM606 1759q0 45 17.5 83t46 67.5t67.5 45t84 15.5q43 0 82 -16.5t66.5 -46t45 -68.5t17.5 -82t-17.5 -81t-45 -67.5t-66.5 -46 t-82 -16.5q-47 0 -86 16.5t-66.5 45t-45 67.5t-17.5 84zM694 1757q0 -53 37 -88t90 -35q51 0 87 37t36 88q0 53 -38 88t-87 35q-55 0 -90 -37t-35 -88z" />
<glyph unicode="&#xc6;" horiz-adv-x="2007" d="M14 0v133h183l813 1167h-179v134h1113v-371h-146v237h-534v-518h561v-118h-561v-531h534v236h146v-369h-1006v133h182v340h-528l-248 -340h182v-133h-512zM662 586h458v671z" />
<glyph unicode="&#xc7;" horiz-adv-x="1484" d="M47 729q0 154 58.5 290t164.5 245q96 98 232.5 152t290.5 54q145 0 273 -51t222 -155v170h133v-351h-133q-39 61 -94 106.5t-120.5 76t-136.5 46t-142 15.5q-127 0 -235.5 -46t-191.5 -128t-130.5 -190.5t-47.5 -233.5t46.5 -236.5t127 -194.5t189.5 -132t238 -49 q152 0 282.5 66.5t218.5 191.5h162q-47 -94 -116.5 -168t-155.5 -126t-185.5 -81t-201.5 -29h-19q-8 0 -16 2l-49 -151q16 8 26.5 10t24.5 2q70 0 111.5 -48t41.5 -116q0 -35 -13 -67.5t-34.5 -56t-53.5 -38t-66 -14.5q-72 0 -119 40t-58 112h93q10 -27 30.5 -43.5 t48.5 -16.5q35 0 57.5 24.5t22.5 59.5q0 37 -24.5 59.5t-59.5 22.5q-49 0 -73 -35l-76 29l80 240q-109 16 -214.5 68t-191.5 136q-111 109 -164 247t-53 292z" />
<glyph unicode="&#xc8;" horiz-adv-x="1122" d="M49 0v133h182v1167h-182v134h1008v-371h-144v237h-538v-518h555v-118h-555v-531h538v236h144v-369h-1008zM283 1843l57 115l489 -285l-51 -100z" />
<glyph unicode="&#xc9;" horiz-adv-x="1122" d="M49 0v133h182v1167h-182v134h1008v-371h-144v237h-538v-518h555v-118h-555v-531h538v236h144v-369h-1008zM283 1675l493 281l62 -115l-506 -264z" />
<glyph unicode="&#xca;" horiz-adv-x="1122" d="M49 0v133h182v1167h-182v134h1008v-371h-144v237h-538v-518h555v-118h-555v-531h538v236h144v-369h-1008zM182 1618l346 276h78l348 -276h-172l-219 164l-213 -164h-168z" />
<glyph unicode="&#xcb;" horiz-adv-x="1122" d="M49 0v133h182v1167h-182v134h1008v-371h-144v237h-538v-518h555v-118h-555v-531h538v236h144v-369h-1008zM365 1638v250h139v-250h-139zM621 1638v250h137v-250h-137z" />
<glyph unicode="&#xcc;" horiz-adv-x="602" d="M23 1843l55 115l489 -285l-49 -100zM49 0v133h182v1167h-182v134h508v-134h-182v-1167h182v-133h-508z" />
<glyph unicode="&#xcd;" horiz-adv-x="602" d="M23 1675l493 281l59 -115l-505 -264zM49 0v133h182v1167h-182v134h508v-134h-182v-1167h182v-133h-508z" />
<glyph unicode="&#xce;" horiz-adv-x="602" d="M-78 1618l344 276h80l348 -276h-172l-219 164l-215 -164h-166zM49 0v133h182v1167h-182v134h508v-134h-182v-1167h182v-133h-508z" />
<glyph unicode="&#xcf;" horiz-adv-x="602" d="M49 0v133h182v1167h-182v134h508v-134h-182v-1167h182v-133h-508zM104 1638v250h140v-250h-140zM358 1638v250h140v-250h-140z" />
<glyph unicode="&#xd0;" horiz-adv-x="1443" d="M47 0v133h184v535h-184v112h184v520h-184v134h637q154 0 275.5 -42t234.5 -153q106 -104 159.5 -241.5t53.5 -284.5q0 -143 -53.5 -274.5t-151.5 -235.5q-111 -117 -235.5 -160t-282.5 -43h-637zM375 133h280q131 0 238.5 30t200.5 128q78 84 123 196.5t45 227.5 q0 121 -45.5 238.5t-135.5 201.5q-47 45 -94 73.5t-98 44t-106.5 21.5t-120.5 6h-287v-520h330v-112h-330v-535z" />
<glyph unicode="&#xd1;" horiz-adv-x="1605" d="M49 0v133h182v1167h-182v134h328l860 -1205v1071h-184v134h510v-134h-183v-1300h-147l-858 1198v-1065h184v-133h-510zM485 1782q31 35 79 56.5t93 21.5q37 0 67 -10.5t58 -22.5q31 -14 60.5 -25.5t66.5 -11.5q90 0 144 65l73 -90q-41 -41 -91 -66.5t-107 -25.5 q-41 0 -73 11.5t-60.5 24.5t-55 24.5t-55.5 11.5q-35 0 -65.5 -17.5t-55.5 -44.5z" />
<glyph unicode="&#xd2;" horiz-adv-x="1605" d="M47 721q0 156 58.5 293t161 239.5t241.5 159.5t295 57q154 0 291 -57t239.5 -158.5t161.5 -236.5t59 -287q0 -158 -58 -296t-159.5 -240.5t-240 -163t-293.5 -60.5q-156 0 -294 58.5t-241.5 160t-162 237.5t-58.5 294zM190 725q0 -127 47.5 -237.5t130.5 -193.5 t194.5 -130t238.5 -47v-2q127 0 237.5 48t193.5 131t130 193.5t47 237.5q0 123 -47 232.5t-129 191.5t-192.5 130t-237.5 48t-238.5 -47t-194.5 -129t-131.5 -191.5t-48.5 -234.5zM524 1843l56 115l489 -285l-49 -100z" />
<glyph unicode="&#xd3;" horiz-adv-x="1605" d="M47 721q0 156 58.5 293t161 239.5t241.5 159.5t295 57q154 0 291 -57t239.5 -158.5t161.5 -236.5t59 -287q0 -158 -58 -296t-159.5 -240.5t-240 -163t-293.5 -60.5q-156 0 -294 58.5t-241.5 160t-162 237.5t-58.5 294zM190 725q0 -127 47.5 -237.5t130.5 -193.5 t194.5 -130t238.5 -47v-2q127 0 237.5 48t193.5 131t130 193.5t47 237.5q0 123 -47 232.5t-129 191.5t-192.5 130t-237.5 48t-238.5 -47t-194.5 -129t-131.5 -191.5t-48.5 -234.5zM524 1675l494 281l59 -115l-506 -264z" />
<glyph unicode="&#xd4;" horiz-adv-x="1605" d="M47 721q0 156 58.5 293t161 239.5t241.5 159.5t295 57q154 0 291 -57t239.5 -158.5t161.5 -236.5t59 -287q0 -158 -58 -296t-159.5 -240.5t-240 -163t-293.5 -60.5q-156 0 -294 58.5t-241.5 160t-162 237.5t-58.5 294zM190 725q0 -127 47.5 -237.5t130.5 -193.5 t194.5 -130t238.5 -47v-2q127 0 237.5 48t193.5 131t130 193.5t47 237.5q0 123 -47 232.5t-129 191.5t-192.5 130t-237.5 48t-238.5 -47t-194.5 -129t-131.5 -191.5t-48.5 -234.5zM424 1618l344 276h80l348 -276h-172l-219 164l-215 -164h-166z" />
<glyph unicode="&#xd5;" horiz-adv-x="1605" d="M47 721q0 156 58.5 293t161 239.5t241.5 159.5t295 57q154 0 291 -57t239.5 -158.5t161.5 -236.5t59 -287q0 -158 -58 -296t-159.5 -240.5t-240 -163t-293.5 -60.5q-156 0 -294 58.5t-241.5 160t-162 237.5t-58.5 294zM190 725q0 -127 47.5 -237.5t130.5 -193.5 t194.5 -130t238.5 -47v-2q127 0 237.5 48t193.5 131t130 193.5t47 237.5q0 123 -47 232.5t-129 191.5t-192.5 130t-237.5 48t-238.5 -47t-194.5 -129t-131.5 -191.5t-48.5 -234.5zM485 1782q31 35 79 56.5t93 21.5q37 0 67 -10.5t58 -22.5q31 -14 60.5 -25.5t66.5 -11.5 q90 0 144 65l73 -90q-41 -41 -91 -66.5t-107 -25.5q-41 0 -73 11.5t-60.5 24.5t-55 24.5t-55.5 11.5q-35 0 -65.5 -17.5t-55.5 -44.5z" />
<glyph unicode="&#xd6;" horiz-adv-x="1605" d="M47 721q0 156 58.5 293t161 239.5t241.5 159.5t295 57q154 0 291 -57t239.5 -158.5t161.5 -236.5t59 -287q0 -158 -58 -296t-159.5 -240.5t-240 -163t-293.5 -60.5q-156 0 -294 58.5t-241.5 160t-162 237.5t-58.5 294zM190 725q0 -127 47.5 -237.5t130.5 -193.5 t194.5 -130t238.5 -47v-2q127 0 237.5 48t193.5 131t130 193.5t47 237.5q0 123 -47 232.5t-129 191.5t-192.5 130t-237.5 48t-238.5 -47t-194.5 -129t-131.5 -191.5t-48.5 -234.5zM606 1638v250h139v-250h-139zM860 1638v250h139v-250h-139z" />
<glyph unicode="&#xd7;" horiz-adv-x="1323" d="M213 356l360 363l-360 360l88 88l361 -360l362 360l88 -88l-360 -360l360 -363l-88 -88l-362 363l-361 -363z" />
<glyph unicode="&#xd8;" horiz-adv-x="1605" d="M47 717q0 158 58.5 296t161 240.5t241.5 159.5t299 57q59 0 110.5 -8t99.5 -23.5t95 -40t98 -52.5l23 -13l162 199l86 -70l-162 -198q231 -223 231 -547q0 -154 -59 -289t-160.5 -236.5t-239 -161t-290.5 -59.5q-96 0 -191.5 23.5t-179.5 68.5l-63 35l-172 -215l-86 70 l176 215q-238 223 -238 549zM190 719q0 -131 49.5 -234.5t139.5 -197.5l764 932q-86 51 -163 79.5t-177 28.5q-129 0 -240.5 -47t-194.5 -131t-130.5 -193.5t-47.5 -236.5zM463 217q82 -47 159.5 -73.5t172.5 -26.5q129 0 241.5 48t193.5 130t128 193.5t47 238.5 q0 125 -47 227.5t-133 194.5z" />
<glyph unicode="&#xd9;" horiz-adv-x="1404" d="M49 1300v134h502v-134h-174v-790q0 -72 9 -138.5t52 -127.5q45 -66 114 -96.5t148 -30.5q74 0 138.5 25.5t111.5 84.5q49 63 61.5 134t12.5 147v792h-172v134h500v-134h-185v-825q0 -100 -21.5 -186t-92.5 -166q-66 -74 -157 -113t-194 -39q-102 0 -191 36t-159 112 q-78 84 -98.5 175t-20.5 200v806h-184zM424 1843l55 115l490 -285l-49 -100z" />
<glyph unicode="&#xda;" horiz-adv-x="1404" d="M49 1300v134h502v-134h-174v-790q0 -72 9 -138.5t52 -127.5q45 -66 114 -96.5t148 -30.5q74 0 138.5 25.5t111.5 84.5q49 63 61.5 134t12.5 147v792h-172v134h500v-134h-185v-825q0 -100 -21.5 -186t-92.5 -166q-66 -74 -157 -113t-194 -39q-102 0 -191 36t-159 112 q-78 84 -98.5 175t-20.5 200v806h-184zM424 1675l494 281l59 -115l-506 -264z" />
<glyph unicode="&#xdb;" horiz-adv-x="1404" d="M49 1300v134h502v-134h-174v-790q0 -72 9 -138.5t52 -127.5q45 -66 114 -96.5t148 -30.5q74 0 138.5 25.5t111.5 84.5q49 63 61.5 134t12.5 147v792h-172v134h500v-134h-185v-825q0 -100 -21.5 -186t-92.5 -166q-66 -74 -157 -113t-194 -39q-102 0 -191 36t-159 112 q-78 84 -98.5 175t-20.5 200v806h-184zM324 1618l344 276h80l348 -276h-172l-219 164l-216 -164h-165z" />
<glyph unicode="&#xdc;" horiz-adv-x="1404" d="M49 1300v134h502v-134h-174v-790q0 -72 9 -138.5t52 -127.5q45 -66 114 -96.5t148 -30.5q74 0 138.5 25.5t111.5 84.5q49 63 61.5 134t12.5 147v792h-172v134h500v-134h-185v-825q0 -100 -21.5 -186t-92.5 -166q-66 -74 -157 -113t-194 -39q-102 0 -191 36t-159 112 q-78 84 -98.5 175t-20.5 200v806h-184zM506 1638v250h139v-250h-139zM760 1638v250h139v-250h-139z" />
<glyph unicode="&#xdd;" horiz-adv-x="1363" d="M14 1300v134h500v-134h-176l354 -682l338 682h-184v134h502v-134h-172l-412 -819v-348h184v-133h-512v133h185v348l-437 819h-170zM403 1675l494 281l59 -115l-505 -264z" />
<glyph unicode="&#xde;" d="M49 0v133h182v1167h-182v134h508v-134h-182v-145h260q100 0 190 -24.5t159 -74.5t109 -127t40 -181q0 -106 -39 -186.5t-103.5 -134.5t-152.5 -81t-189 -27h-274v-186h182v-133h-508zM375 451h260q72 0 136.5 16t112.5 51t75.5 90.5t27.5 134.5q0 72 -28.5 125.5t-79 88 t-115 51t-131.5 16.5h-258v-573z" />
<glyph unicode="&#xdf;" d="M27 0v125h176v866q0 90 16.5 164t73.5 148q59 74 145 114.5t180 40.5q80 0 154 -29.5t128 -82t87 -122t33 -153.5q0 -109 -54.5 -197t-158.5 -124q74 -10 134 -43t102 -84.5t66 -117t24 -140.5q0 -86 -31 -159t-84 -125t-127 -83t-160 -31q-104 0 -199 51v129 q45 -29 85 -42t96 -13q57 0 108 22.5t89 59.5t59.5 88t21.5 109q0 66 -29.5 125t-78.5 100q-53 43 -117 56.5t-129 13.5h-51l-19 -2v124q63 -4 118.5 13.5t97.5 53.5t66.5 88t24.5 116q0 55 -19 103t-56 83t-85 56.5t-102 21.5q-63 0 -119.5 -30.5t-95.5 -82.5 q-41 -57 -46 -115.5t-5 -125.5v-969h-319z" />
<glyph unicode="&#xe0;" horiz-adv-x="1323" d="M29 522q0 55 8 99.5t19.5 79t27.5 63.5t33 59q33 55 81 101.5t107.5 80t127 50t138.5 16.5q145 0 253 -63.5t180 -184.5v230h307v-123h-174v-805h174v-125h-307v219q-70 -121 -180.5 -184.5t-250.5 -63.5q-143 0 -267 66.5t-193 181.5q-41 63 -64.5 139t-19.5 164z M160 520q0 -84 33.5 -160.5t91 -134t133.5 -91.5t162 -34q90 0 167.5 33t135 90.5t90.5 135t33 165.5q0 86 -33 162t-90.5 132t-134 90t-162.5 34q-88 0 -165 -34t-134.5 -91t-92 -134t-34.5 -163zM383 1462l57 117l490 -285l-51 -100z" />
<glyph unicode="&#xe1;" horiz-adv-x="1323" d="M29 522q0 55 8 99.5t19.5 79t27.5 63.5t33 59q33 55 81 101.5t107.5 80t127 50t138.5 16.5q145 0 253 -63.5t180 -184.5v230h307v-123h-174v-805h174v-125h-307v219q-70 -121 -180.5 -184.5t-250.5 -63.5q-143 0 -267 66.5t-193 181.5q-41 63 -64.5 139t-19.5 164z M160 520q0 -84 33.5 -160.5t91 -134t133.5 -91.5t162 -34q90 0 167.5 33t135 90.5t90.5 135t33 165.5q0 86 -33 162t-90.5 132t-134 90t-162.5 34q-88 0 -165 -34t-134.5 -91t-92 -134t-34.5 -163zM383 1296l494 279l61 -115l-506 -262z" />
<glyph unicode="&#xe2;" horiz-adv-x="1323" d="M29 522q0 55 8 99.5t19.5 79t27.5 63.5t33 59q33 55 81 101.5t107.5 80t127 50t138.5 16.5q145 0 253 -63.5t180 -184.5v230h307v-123h-174v-805h174v-125h-307v219q-70 -121 -180.5 -184.5t-250.5 -63.5q-143 0 -267 66.5t-193 181.5q-41 63 -64.5 139t-19.5 164z M160 520q0 -84 33.5 -160.5t91 -134t133.5 -91.5t162 -34q90 0 167.5 33t135 90.5t90.5 135t33 165.5q0 86 -33 162t-90.5 132t-134 90t-162.5 34q-88 0 -165 -34t-134.5 -91t-92 -134t-34.5 -163zM283 1239l346 277h78l348 -277h-172l-219 164l-213 -164h-168z" />
<glyph unicode="&#xe3;" horiz-adv-x="1323" d="M29 522q0 55 8 99.5t19.5 79t27.5 63.5t33 59q33 55 81 101.5t107.5 80t127 50t138.5 16.5q145 0 253 -63.5t180 -184.5v230h307v-123h-174v-805h174v-125h-307v219q-70 -121 -180.5 -184.5t-250.5 -63.5q-143 0 -267 66.5t-193 181.5q-41 63 -64.5 139t-19.5 164z M160 520q0 -84 33.5 -160.5t91 -134t133.5 -91.5t162 -34q90 0 167.5 33t135 90.5t90.5 135t33 165.5q0 86 -33 162t-90.5 132t-134 90t-162.5 34q-88 0 -165 -34t-134.5 -91t-92 -134t-34.5 -163zM346 1403q29 35 77 56.5t95 21.5q35 0 65.5 -11.5t59.5 -21.5 q29 -14 59.5 -25.5t65.5 -11.5q90 0 143 66l74 -91q-39 -41 -89 -66.5t-110 -25.5q-39 0 -71.5 11.5t-60 24.5t-55.5 23.5t-54 10.5q-37 0 -66.5 -16.5t-54.5 -42.5z" />
<glyph unicode="&#xe4;" horiz-adv-x="1323" d="M29 522q0 55 8 99.5t19.5 79t27.5 63.5t33 59q33 55 81 101.5t107.5 80t127 50t138.5 16.5q145 0 253 -63.5t180 -184.5v230h307v-123h-174v-805h174v-125h-307v219q-70 -121 -180.5 -184.5t-250.5 -63.5q-143 0 -267 66.5t-193 181.5q-41 63 -64.5 139t-19.5 164z M160 520q0 -84 33.5 -160.5t91 -134t133.5 -91.5t162 -34q90 0 167.5 33t135 90.5t90.5 135t33 165.5q0 86 -33 162t-90.5 132t-134 90t-162.5 34q-88 0 -165 -34t-134.5 -91t-92 -134t-34.5 -163zM465 1257v252h139v-252h-139zM721 1257v252h137v-252h-137z" />
<glyph unicode="&#xe5;" horiz-adv-x="1323" d="M29 522q0 55 8 99.5t19.5 79t27.5 63.5t33 59q33 55 81 101.5t107.5 80t127 50t138.5 16.5q145 0 253 -63.5t180 -184.5v230h307v-123h-174v-805h174v-125h-307v219q-70 -121 -180.5 -184.5t-250.5 -63.5q-143 0 -267 66.5t-193 181.5q-41 63 -64.5 139t-19.5 164z M160 520q0 -84 33.5 -160.5t91 -134t133.5 -91.5t162 -34q90 0 167.5 33t135 90.5t90.5 135t33 165.5q0 86 -33 162t-90.5 132t-134 90t-162.5 34q-88 0 -165 -34t-134.5 -91t-92 -134t-34.5 -163zM446 1380q0 45 16.5 83t46.5 67t68.5 45t81.5 16q45 0 83 -17.5t67 -46 t45 -67.5t16 -82t-16 -82t-45 -67.5t-66.5 -46t-83.5 -17.5q-45 0 -83.5 17.5t-67.5 45t-45.5 67.5t-16.5 85zM535 1376q0 -51 36.5 -87t87.5 -36q53 0 88 38t35 89q0 53 -36.5 88t-88.5 35q-53 0 -87.5 -37t-34.5 -90z" />
<glyph unicode="&#xe6;" horiz-adv-x="2125" d="M29 516q0 74 19.5 157t72.5 150q90 117 206.5 182.5t245.5 65.5q137 0 251 -64.5t177 -183.5v230h134v-244q68 127 179 194.5t257 67.5q164 0 280.5 -75.5t180.5 -186.5q35 -63 56 -135t21 -156v-37h-974q6 -82 42.5 -151.5t94 -120.5t130.5 -79t154 -28q59 0 108.5 12.5 t91.5 36t80 60.5t77 86h151l-41 -70q-68 -115 -183.5 -185.5t-266.5 -70.5q-68 0 -133.5 17.5t-122.5 50.5t-104.5 80t-77.5 108v-227h-134v240q-59 -127 -167.5 -198t-253.5 -71q-150 0 -277 74t-199 195q-47 74 -61 141t-14 135zM160 530q0 -88 32.5 -165.5t90 -136 t134.5 -92.5t165 -34q90 0 167.5 33t134 90.5t87 136t30.5 168.5q0 86 -32.5 161t-90 130.5t-133 87t-161.5 31.5q-84 0 -161 -33t-135.5 -88t-93 -129t-34.5 -160zM1135 588h841q-12 76 -49 140.5t-94 111.5t-127 73.5t-150 26.5t-149.5 -25.5t-125.5 -71.5t-94 -111.5 t-52 -143.5z" />
<glyph unicode="&#xe7;" horiz-adv-x="1122" d="M29 516q0 115 41 214t112 173q76 76 173.5 122t211.5 46q113 0 205 -43t166 -125v150h123v-316h-123q-59 94 -155.5 148.5t-207.5 54.5q-88 0 -162.5 -34t-131 -91t-89 -134t-32.5 -163q0 -88 33.5 -163.5t91 -132t135.5 -87.5t166 -31q57 0 112.5 15.5t102.5 44.5 t85 70.5t62 95.5h148q-31 -82 -83 -147.5t-120 -111.5t-148.5 -73t-166.5 -27l-48 -149q16 8 25.5 10t26.5 2q70 0 111.5 -48t41.5 -116q0 -35 -13 -67.5t-35.5 -56t-53.5 -38t-68 -14.5q-70 0 -117 40t-57 112h92q10 -27 31 -43.5t47 -16.5q37 0 59.5 24.5t22.5 59.5 q0 37 -24.5 59.5t-61.5 22.5q-47 0 -72 -35l-75 29l77 236q-98 14 -182 62t-145.5 121t-96 162t-34.5 189z" />
<glyph unicode="&#xe8;" d="M27 516q0 113 42 213t113.5 176t171 121t213.5 45q117 0 218.5 -43t177 -116.5t117.5 -175t42 -218.5v-41h-964q4 -82 39.5 -152.5t92 -121.5t128 -82t153.5 -31q115 0 211.5 52.5t155.5 152.5h139q-33 -74 -84 -133.5t-117.5 -101.5t-143.5 -65.5t-157 -23.5 q-115 0 -214 42t-173.5 117t-117.5 174t-43 212zM158 586h839q-12 80 -50 147.5t-96 115.5t-131 75.5t-155 27.5q-76 0 -144.5 -29.5t-123.5 -79.5t-93 -116.5t-46 -140.5zM303 1462l55 117l492 -285l-51 -100z" />
<glyph unicode="&#xe9;" d="M27 516q0 113 42 213t113.5 176t171 121t213.5 45q117 0 218.5 -43t177 -116.5t117.5 -175t42 -218.5v-41h-964q4 -82 39.5 -152.5t92 -121.5t128 -82t153.5 -31q115 0 211.5 52.5t155.5 152.5h139q-33 -74 -84 -133.5t-117.5 -101.5t-143.5 -65.5t-157 -23.5 q-115 0 -214 42t-173.5 117t-117.5 174t-43 212zM158 586h839q-12 80 -50 147.5t-96 115.5t-131 75.5t-155 27.5q-76 0 -144.5 -29.5t-123.5 -79.5t-93 -116.5t-46 -140.5zM303 1296l494 279l59 -115l-504 -262z" />
<glyph unicode="&#xea;" d="M27 516q0 113 42 213t113.5 176t171 121t213.5 45q117 0 218.5 -43t177 -116.5t117.5 -175t42 -218.5v-41h-964q4 -82 39.5 -152.5t92 -121.5t128 -82t153.5 -31q115 0 211.5 52.5t155.5 152.5h139q-33 -74 -84 -133.5t-117.5 -101.5t-143.5 -65.5t-157 -23.5 q-115 0 -214 42t-173.5 117t-117.5 174t-43 212zM158 586h839q-12 80 -50 147.5t-96 115.5t-131 75.5t-155 27.5q-76 0 -144.5 -29.5t-123.5 -79.5t-93 -116.5t-46 -140.5zM203 1239l346 277h78l348 -277h-172l-219 164l-215 -164h-166z" />
<glyph unicode="&#xeb;" d="M27 516q0 113 42 213t113.5 176t171 121t213.5 45q117 0 218.5 -43t177 -116.5t117.5 -175t42 -218.5v-41h-964q4 -82 39.5 -152.5t92 -121.5t128 -82t153.5 -31q115 0 211.5 52.5t155.5 152.5h139q-33 -74 -84 -133.5t-117.5 -101.5t-143.5 -65.5t-157 -23.5 q-115 0 -214 42t-173.5 117t-117.5 174t-43 212zM158 586h839q-12 80 -50 147.5t-96 115.5t-131 75.5t-155 27.5q-76 0 -144.5 -29.5t-123.5 -79.5t-93 -116.5t-46 -140.5zM385 1257v252h139v-252h-139zM641 1257v252h137v-252h-137z" />
<glyph unicode="&#xec;" horiz-adv-x="520" d="M-18 1462l57 117l489 -285l-51 -100zM31 0v125h180v805h-176v123h309v-928h176v-125h-489z" />
<glyph unicode="&#xed;" horiz-adv-x="520" d="M-18 1296l493 279l62 -115l-506 -262zM31 0v125h180v805h-176v123h309v-928h176v-125h-489z" />
<glyph unicode="&#xee;" horiz-adv-x="520" d="M-119 1239l346 277h78l348 -277h-172l-219 164l-213 -164h-168zM31 0v125h180v805h-176v123h309v-928h176v-125h-489z" />
<glyph unicode="&#xef;" horiz-adv-x="520" d="M31 0v125h180v805h-176v123h309v-928h176v-125h-489zM63 1257v252h140v-252h-140zM319 1257v252h138v-252h-138z" />
<glyph unicode="&#xf0;" d="M27 520q0 115 44 216.5t118.5 175t176 116.5t216.5 43q137 0 266 -104q-59 80 -139 143.5t-146 101.5l-295 -116l-96 73l279 107q-72 35 -129.5 58.5t-94.5 33.5l148 66q25 -8 86 -32t141 -67l254 99l92 -74l-239 -92q72 -51 147.5 -121t136 -158t99 -195.5t38.5 -232.5 t-43 -233.5t-117.5 -188.5t-175 -124t-216.5 -44q-115 0 -215.5 43t-175 118t-117.5 175t-43 213zM158 524q0 -86 32.5 -162.5t90 -134t133 -91.5t164.5 -34q86 0 163.5 33t134 90.5t89 134t32.5 162.5t-31.5 162t-89 133t-134 91t-162.5 34q-88 0 -164 -34t-133.5 -90 t-91 -132t-33.5 -162z" />
<glyph unicode="&#xf1;" horiz-adv-x="1323" d="M31 0v125h176v805h-176v123h309v-185q49 98 146.5 150.5t205.5 52.5q45 0 98.5 -11t103.5 -37t93 -63.5t68 -91.5q20 -39 39.5 -108.5t19.5 -165.5v-469h176v-125h-485v125h176v422q0 70 -7 137.5t-42 128.5q-23 37 -53.5 61.5t-68.5 40t-77 21.5t-78 6q-70 0 -135 -29.5 t-110 -81.5q-53 -61 -61.5 -127.5t-8.5 -142.5v-436h176v-125h-485zM346 1403q29 35 77 56.5t95 21.5q35 0 65.5 -11.5t59.5 -21.5q29 -14 59.5 -25.5t65.5 -11.5q90 0 143 66l74 -91q-39 -41 -89 -66.5t-110 -25.5q-39 0 -71.5 11.5t-60 24.5t-55.5 23.5t-54 10.5 q-37 0 -66.5 -16.5t-54.5 -42.5z" />
<glyph unicode="&#xf2;" d="M27 520q0 115 44 216.5t118.5 175t176 116.5t216.5 43q113 0 212 -43t174.5 -115.5t118.5 -172t43 -210.5q0 -115 -43 -217t-117.5 -178t-175 -120t-216.5 -44q-115 0 -215.5 43t-175 118t-117.5 175t-43 213zM158 524q0 -86 32.5 -162.5t90 -134t133 -91.5t164.5 -34 q86 0 163.5 33t134 90.5t89 134t32.5 162.5t-31.5 162t-89 133t-134 91t-162.5 34q-88 0 -164 -34t-133.5 -90t-91 -132t-33.5 -162zM303 1462l55 117l492 -285l-51 -100z" />
<glyph unicode="&#xf3;" d="M27 520q0 115 44 216.5t118.5 175t176 116.5t216.5 43q113 0 212 -43t174.5 -115.5t118.5 -172t43 -210.5q0 -115 -43 -217t-117.5 -178t-175 -120t-216.5 -44q-115 0 -215.5 43t-175 118t-117.5 175t-43 213zM158 524q0 -86 32.5 -162.5t90 -134t133 -91.5t164.5 -34 q86 0 163.5 33t134 90.5t89 134t32.5 162.5t-31.5 162t-89 133t-134 91t-162.5 34q-88 0 -164 -34t-133.5 -90t-91 -132t-33.5 -162zM303 1296l494 279l59 -115l-504 -262z" />
<glyph unicode="&#xf4;" d="M27 520q0 115 44 216.5t118.5 175t176 116.5t216.5 43q113 0 212 -43t174.5 -115.5t118.5 -172t43 -210.5q0 -115 -43 -217t-117.5 -178t-175 -120t-216.5 -44q-115 0 -215.5 43t-175 118t-117.5 175t-43 213zM158 524q0 -86 32.5 -162.5t90 -134t133 -91.5t164.5 -34 q86 0 163.5 33t134 90.5t89 134t32.5 162.5t-31.5 162t-89 133t-134 91t-162.5 34q-88 0 -164 -34t-133.5 -90t-91 -132t-33.5 -162zM203 1239l346 277h78l348 -277h-172l-219 164l-215 -164h-166z" />
<glyph unicode="&#xf5;" d="M27 520q0 115 44 216.5t118.5 175t176 116.5t216.5 43q113 0 212 -43t174.5 -115.5t118.5 -172t43 -210.5q0 -115 -43 -217t-117.5 -178t-175 -120t-216.5 -44q-115 0 -215.5 43t-175 118t-117.5 175t-43 213zM158 524q0 -86 32.5 -162.5t90 -134t133 -91.5t164.5 -34 q86 0 163.5 33t134 90.5t89 134t32.5 162.5t-31.5 162t-89 133t-134 91t-162.5 34q-88 0 -164 -34t-133.5 -90t-91 -132t-33.5 -162zM264 1403q31 35 79 56.5t95 21.5q35 0 66 -11.5t57 -21.5q31 -14 60.5 -25.5t66.5 -11.5q90 0 143 66l74 -91q-41 -41 -91 -66.5 t-107 -25.5q-41 0 -73 11.5t-59.5 24.5t-55 23.5t-56.5 10.5q-35 0 -65.5 -16.5t-53.5 -42.5z" />
<glyph unicode="&#xf6;" d="M27 520q0 115 44 216.5t118.5 175t176 116.5t216.5 43q113 0 212 -43t174.5 -115.5t118.5 -172t43 -210.5q0 -115 -43 -217t-117.5 -178t-175 -120t-216.5 -44q-115 0 -215.5 43t-175 118t-117.5 175t-43 213zM158 524q0 -86 32.5 -162.5t90 -134t133 -91.5t164.5 -34 q86 0 163.5 33t134 90.5t89 134t32.5 162.5t-31.5 162t-89 133t-134 91t-162.5 34q-88 0 -164 -34t-133.5 -90t-91 -132t-33.5 -162zM385 1257v252h139v-252h-139zM641 1257v252h137v-252h-137z" />
<glyph unicode="&#xf7;" horiz-adv-x="1323" d="M156 655v123h1011v-123h-1011zM600 281v219h125v-219h-125zM600 936v219h125v-219h-125z" />
<glyph unicode="&#xf8;" d="M29 520q0 117 44 218.5t118.5 175t176 115.5t218.5 42q154 0 282 -74l113 158l82 -63l-111 -154q84 -80 135.5 -183.5t51.5 -219.5q0 -119 -43 -221.5t-118 -179.5t-177.5 -120t-220.5 -43q-76 0 -143.5 18.5t-135.5 57.5l-111 -156l-81 62l110 153q-92 80 -141 185.5 t-49 228.5zM160 532q0 -94 38 -172.5t105 -142.5l485 672q-51 29 -99 43t-111 14q-84 0 -160 -33.5t-133.5 -90t-91 -131.5t-33.5 -159zM385 152q53 -23 97 -35.5t104 -12.5q90 0 167.5 33t133 90.5t87.5 134t32 164.5q0 90 -37 165t-101 136z" />
<glyph unicode="&#xf9;" horiz-adv-x="1284" d="M18 930v123h310v-568q0 -74 9 -143.5t56 -132.5q94 -125 254 -113q78 6 137.5 37t98.5 78q27 33 43 63.5t22 63.5t8 68.5t2 74.5v449h-176v123h310v-928h178v-125h-312v176q-51 -96 -143 -150.5t-207 -54.5q-57 0 -111.5 17.5t-101.5 45t-85 65.5t-60 77 q-27 43 -41 104.5t-14 155.5v494h-177zM362 1462l58 117l489 -285l-51 -100z" />
<glyph unicode="&#xfa;" horiz-adv-x="1284" d="M18 930v123h310v-568q0 -74 9 -143.5t56 -132.5q94 -125 254 -113q78 6 137.5 37t98.5 78q27 33 43 63.5t22 63.5t8 68.5t2 74.5v449h-176v123h310v-928h178v-125h-312v176q-51 -96 -143 -150.5t-207 -54.5q-57 0 -111.5 17.5t-101.5 45t-85 65.5t-60 77 q-27 43 -41 104.5t-14 155.5v494h-177zM362 1296l494 279l62 -115l-506 -262z" />
<glyph unicode="&#xfb;" horiz-adv-x="1284" d="M18 930v123h310v-568q0 -74 9 -143.5t56 -132.5q94 -125 254 -113q78 6 137.5 37t98.5 78q27 33 43 63.5t22 63.5t8 68.5t2 74.5v449h-176v123h310v-928h178v-125h-312v176q-51 -96 -143 -150.5t-207 -54.5q-57 0 -111.5 17.5t-101.5 45t-85 65.5t-60 77 q-27 43 -41 104.5t-14 155.5v494h-177zM262 1239l346 277h78l350 -277h-174l-217 164l-215 -164h-168z" />
<glyph unicode="&#xfc;" horiz-adv-x="1284" d="M18 930v123h310v-568q0 -74 9 -143.5t56 -132.5q94 -125 254 -113q78 6 137.5 37t98.5 78q27 33 43 63.5t22 63.5t8 68.5t2 74.5v449h-176v123h310v-928h178v-125h-312v176q-51 -96 -143 -150.5t-207 -54.5q-57 0 -111.5 17.5t-101.5 45t-85 65.5t-60 77 q-27 43 -41 104.5t-14 155.5v494h-177zM446 1257v252h138v-252h-138zM700 1257v252h140v-252h-140z" />
<glyph unicode="&#xfd;" horiz-adv-x="1284" d="M14 930v123h482v-123h-166l297 -772l315 772h-166v123h477v-123h-168l-501 -1196h172v-125h-488v125h178l107 258l-371 938h-168zM362 1296l494 279l62 -115l-506 -262z" />
<glyph unicode="&#xfe;" horiz-adv-x="1323" d="M31 -266h176v1575h-176v125h309v-615h4q66 125 177.5 188.5t252.5 63.5q115 0 213 -43t172 -117.5t115 -174t41 -214.5t-42 -214t-116 -175t-172 -119t-211 -43q-66 0 -131 17.5t-121.5 49.5t-102.5 78t-75 107h-4v-489h176v-125h-485v125zM338 524q0 -88 32.5 -165.5 t90 -136t133.5 -92.5t164 -34t164.5 34t134 91.5t91.5 135t34 165.5q0 98 -34 178t-91.5 136.5t-132 86t-158.5 25.5q-86 -4 -163 -34.5t-136 -85t-94 -131.5t-35 -173z" />
<glyph unicode="&#xff;" horiz-adv-x="1284" d="M14 930v123h482v-123h-166l297 -772l315 772h-166v123h477v-123h-168l-501 -1196h172v-125h-488v125h178l107 258l-371 938h-168zM446 1257v252h138v-252h-138zM700 1257v252h140v-252h-140z" />
<glyph unicode="&#x131;" horiz-adv-x="520" d="M31 0v125h180v805h-176v123h309v-928h176v-125h-489z" />
<glyph unicode="&#x141;" horiz-adv-x="1042" d="M49 485v144l201 147v524h-182v134h510v-134h-183v-448l256 180v-139l-256 -180v-580h469v236h146v-369h-942v133h182v506z" />
<glyph unicode="&#x142;" horiz-adv-x="561" d="M43 575v130l178 141v463h-172v125h303v-502l180 137v-129l-180 -139v-676h178v-125h-485v125h176v590z" />
<glyph unicode="&#x152;" horiz-adv-x="2246" d="M47 733q0 111 23.5 198t58.5 148q47 86 115.5 158t152.5 124t181.5 80.5t203.5 28.5q203 0 366 -101t243 -290v355h823v-367h-146v233h-532v-518h522v-118h-522v-531h532v236h144v-369h-821v371q-39 -92 -102.5 -166t-142.5 -125t-172 -80t-194 -29q-94 0 -190 29 t-183.5 80t-161 125t-120.5 166q-27 51 -52.5 146t-25.5 216zM190 729q0 -125 46.5 -236.5t126 -194.5t188 -132t235.5 -49t234.5 49t187.5 133t125 194.5t45 235.5q0 123 -45 230.5t-125 191.5q-78 82 -185.5 129t-234.5 47t-234.5 -46t-191.5 -128q-80 -82 -126 -190.5 t-46 -233.5z" />
<glyph unicode="&#x153;" horiz-adv-x="2125" d="M31 522q0 115 44 215.5t118.5 174t177 116.5t219.5 43q78 0 152.5 -21.5t139 -61.5t115 -98.5t78.5 -131.5q63 150 195.5 231.5t294.5 81.5q111 0 211 -43t176 -116.5t120 -172t44 -209.5v-49h-971q4 -80 38 -149.5t90 -120.5t129 -80t154 -29q113 0 208.5 51.5 t156.5 147.5h150q-29 -76 -82.5 -136.5t-121 -103.5t-145 -66.5t-161.5 -23.5q-158 0 -289 79t-197 224q-31 -70 -82 -126t-116.5 -95t-140 -60.5t-152.5 -21.5q-115 0 -216.5 43t-176 119t-117.5 176t-43 213zM154 518q0 -86 34.5 -162.5t93 -133t135.5 -89.5t163 -33 q90 0 167.5 33t136 91.5t91.5 136t33 165.5q0 86 -34 163t-91.5 133.5t-136 90t-164.5 33.5q-90 0 -167 -34.5t-135.5 -93t-92 -135.5t-33.5 -165zM1147 590h825q-14 74 -50 139.5t-90 113.5t-123 75.5t-148 27.5q-78 0 -149 -27.5t-126 -74.5t-93 -112.5t-46 -141.5z" />
<glyph unicode="&#x160;" horiz-adv-x="1003" d="M47 1090q0 76 21.5 131t52.5 96q57 78 150.5 115.5t195.5 37.5q86 0 167 -37.5t118 -115.5v117h118v-344h-118q-14 123 -94 189.5t-193 66.5q-53 0 -103.5 -18.5t-87 -51.5t-60.5 -79t-24 -103t25 -110.5t70 -88.5q49 -37 114.5 -53.5t124.5 -30.5q78 -18 151 -42 t136 -79q66 -53 100.5 -130t34.5 -161q0 -74 -17.5 -136t-66.5 -122q-131 -170 -356 -170q-100 0 -184 42t-142 128v-141h-121v385h121q14 -129 99.5 -206t220.5 -77q59 0 114.5 21.5t97.5 58.5t65.5 89.5t23.5 113.5q0 78 -28 128t-75 84t-106.5 52.5t-124.5 34.5 q-74 20 -141.5 40.5t-130.5 66.5q-74 55 -111 132t-37 167zM123 1894h172l219 -163l215 163h166l-350 -276h-80z" />
<glyph unicode="&#x161;" horiz-adv-x="841" d="M43 1516h172l219 -164l215 164h166l-352 -277h-78zM53 0v301h109q10 -96 86 -159.5t184 -63.5q43 0 84 14t74 40t51 63.5t18 83.5q0 55 -20.5 88.5t-54 54t-77.5 31t-87 20.5q-63 14 -122.5 29.5t-115.5 50.5q-57 37 -91 94.5t-34 126.5q0 55 12.5 98t43.5 82 q25 31 56.5 53.5t68 36t76.5 20.5t77 7q74 0 136.5 -26.5t103.5 -90.5v99h108v-267h-108q-2 41 -20.5 74t-49.5 55q-63 47 -147 48q-41 0 -78 -11.5t-65.5 -34t-46 -56.5t-17.5 -77q0 -49 21.5 -81.5t55 -52t74.5 -32t82 -20.5q61 -12 123 -28.5t115 -49.5 q66 -37 98.5 -98.5t32.5 -132.5q0 -51 -14.5 -90t-32.5 -72q-37 -74 -125 -115t-182 -41q-96 0 -170 37t-123 119v-127h-109z" />
<glyph unicode="&#x178;" horiz-adv-x="1363" d="M14 1300v134h500v-134h-176l354 -682l338 682h-184v134h502v-134h-172l-412 -819v-348h184v-133h-512v133h185v348l-437 819h-170zM485 1638v250h140v-250h-140zM741 1638v250h138v-250h-138z" />
<glyph unicode="&#x17d;" horiz-adv-x="1042" d="M47 0v119l744 1181h-596v-239h-125v373h897v-115l-746 -1186h670v238h125v-371h-969zM143 1894h172l220 -163l215 163h165l-352 -276h-78z" />
<glyph unicode="&#x17e;" horiz-adv-x="841" d="M27 0v113l604 817h-455v-203h-119v326h740v-121l-592 -807h504v194h118v-319h-800zM43 1516h172l219 -164l215 164h166l-352 -277h-78z" />
<glyph unicode="&#x192;" d="M127 -285l20 111q41 4 81 13t75 32q59 39 78.5 89t34.5 110l137 727h-176l18 100h176q10 45 19.5 100.5t22 110.5t27.5 107.5t42 89.5q61 84 155.5 121.5t200.5 43.5l-22 -112q-66 -2 -125.5 -28.5t-97.5 -78.5q-18 -29 -30.5 -75t-22 -97t-17.5 -100t-16 -82h178 l-19 -100h-180l-137 -729q-16 -84 -45 -147.5t-103 -117.5q-61 -47 -129.5 -65.5t-144.5 -22.5z" />
<glyph unicode="&#x2c6;" horiz-adv-x="1042" d="M143 1239l344 277h78l350 -277h-172l-219 164l-215 -164h-166z" />
<glyph unicode="&#x2c7;" horiz-adv-x="1042" d="M143 1516h172l220 -164l215 164h165l-352 -277h-78z" />
<glyph unicode="&#x2c9;" horiz-adv-x="921" d="M143 1331v111h641v-111h-641z" />
<glyph unicode="&#x2d8;" horiz-adv-x="962" d="M152 1511h96q2 -43 24.5 -71.5t54 -49t71.5 -28.5t75 -8q37 0 75 8t70.5 28.5t55 49t26.5 71.5h97q-2 -66 -30 -114.5t-73 -82.5t-102 -50.5t-119 -16.5q-59 0 -117.5 16.5t-103.5 50.5t-72.5 82.5t-27.5 114.5z" />
<glyph unicode="&#x2d9;" horiz-adv-x="401" d="M143 1257v252h133v-252h-133z" />
<glyph unicode="&#x2da;" horiz-adv-x="720" d="M145 1380q0 45 16.5 83t46.5 67t68.5 45t81.5 16q45 0 83 -17.5t67 -46t45 -67.5t16 -82t-16 -82t-45 -67.5t-67 -46t-83 -17.5t-83.5 17.5t-67.5 45t-45.5 67.5t-16.5 85zM233 1376q0 -51 37 -87t88 -36q53 0 88 38t35 89q0 53 -36.5 88t-88.5 35q-53 0 -88 -37t-35 -90 z" />
<glyph unicode="&#x2db;" horiz-adv-x="641" d="M170 -176q0 53 21.5 95t58.5 81h96q-35 -27 -54.5 -54.5t-19.5 -74.5q0 -57 36 -104.5t95 -47.5q23 0 41.5 6.5t38.5 14.5v-96q-55 -23 -110 -23q-90 0 -146.5 56.5t-56.5 146.5z" />
<glyph unicode="&#x2dc;" horiz-adv-x="921" d="M145 1403q29 35 77 56.5t95 21.5q35 0 66 -11.5t59 -21.5q29 -14 59.5 -25.5t65.5 -11.5q90 0 144 66l73 -91q-39 -41 -89 -66.5t-109 -25.5q-39 0 -72 11.5t-60.5 24.5t-55 23.5t-54.5 10.5q-37 0 -66.5 -16.5t-54.5 -42.5z" />
<glyph unicode="&#x2dd;" horiz-adv-x="921" d="M143 1249l271 377l96 -49l-287 -373zM399 1239l271 375l96 -49l-287 -371z" />
<glyph unicode="&#x3a9;" horiz-adv-x="1513" d="M109 0v109h319v6q-59 49 -111.5 115.5t-92.5 149.5t-63.5 180t-23.5 210q0 158 49.5 285t133 219t198.5 142t246 50q139 0 252.5 -55t192.5 -150.5t123 -219t44 -263.5q0 -117 -24.5 -218t-66.5 -185t-95 -150.5t-109 -109.5v-6h324v-109h-492v80q61 41 121 105.5 t106 149.5t74.5 191.5t28.5 229.5q0 102 -30.5 209.5t-91 194.5t-150.5 141.5t-209 54.5q-111 0 -203 -47t-155.5 -129t-98.5 -192.5t-35 -233.5q0 -119 29 -223.5t75 -192.5t105.5 -153.5t120.5 -104.5v-80h-491z" />
<glyph unicode="&#x3bc;" horiz-adv-x="1284" d="M18 930v123h310v-592q0 -68 15 -134.5t53 -117.5t98.5 -82t152.5 -31q4 0 31 3t61.5 14.5t73.5 34t72 63.5t53 102.5t20 147.5v469h-176v123h310v-928h178v-125h-312v176h-4q-47 -96 -139 -150.5t-207 -54.5q-76 0 -150.5 31t-129.5 80v-473h-133v1321h-177z" />
<glyph unicode="&#x3c0;" horiz-adv-x="1179" d="M23 1020q39 23 105.5 37t182.5 14h826l-15 -113h-172v-653q0 -133 8.5 -198.5t20.5 -106.5h-127q-14 25 -24.5 91.5t-10.5 199.5v667h-401q-4 -104 -18.5 -239t-35 -271.5t-47 -256t-57.5 -191.5h-129q29 82 55.5 202t47 252t35 265t18.5 239q-104 0 -155.5 -7t-84.5 -19 z" />
<glyph unicode="&#x2000;" horiz-adv-x="985" />
<glyph unicode="&#x2001;" horiz-adv-x="1970" />
<glyph unicode="&#x2002;" horiz-adv-x="985" />
<glyph unicode="&#x2003;" horiz-adv-x="1970" />
<glyph unicode="&#x2004;" horiz-adv-x="655" />
<glyph unicode="&#x2005;" horiz-adv-x="491" />
<glyph unicode="&#x2006;" horiz-adv-x="327" />
<glyph unicode="&#x2007;" horiz-adv-x="327" />
<glyph unicode="&#x2008;" horiz-adv-x="245" />
<glyph unicode="&#x2009;" horiz-adv-x="393" />
<glyph unicode="&#x200a;" horiz-adv-x="108" />
<glyph unicode="&#x2010;" horiz-adv-x="602" d="M51 457v133h500v-133h-500z" />
<glyph unicode="&#x2011;" horiz-adv-x="602" d="M51 457v133h500v-133h-500z" />
<glyph unicode="&#x2012;" horiz-adv-x="602" d="M51 457v133h500v-133h-500z" />
<glyph unicode="&#x2013;" horiz-adv-x="1003" d="M-12 457v133h1028v-133h-1028z" />
<glyph unicode="&#x2014;" horiz-adv-x="2007" d="M-12 457v133h2031v-133h-2031z" />
<glyph unicode="&#x2018;" horiz-adv-x="401" d="M72 1434h127l149 -369h-127z" />
<glyph unicode="&#x2019;" horiz-adv-x="401" d="M72 1065l149 369h127l-149 -369h-127z" />
<glyph unicode="&#x201a;" horiz-adv-x="401" d="M72 -195l149 369h127l-149 -369h-127z" />
<glyph unicode="&#x201c;" horiz-adv-x="681" d="M72 1434h127l149 -369h-127zM330 1434h127l149 -369h-127z" />
<glyph unicode="&#x201d;" horiz-adv-x="681" d="M72 1065l149 369h127l-149 -369h-127zM332 1065l149 369h127l-151 -369h-125z" />
<glyph unicode="&#x201e;" horiz-adv-x="681" d="M72 -195l149 369h127l-149 -369h-127zM330 -195l149 369h127l-149 -369h-127z" />
<glyph unicode="&#x2020;" horiz-adv-x="1122" d="M72 879v110h430v445h139v-445h426v-110h-426v-1143h-139v1143h-430z" />
<glyph unicode="&#x2021;" horiz-adv-x="1122" d="M72 537v108h420v246h-420v108h420v435h141v-435h424v-108h-424v-246h424v-108h-424v-801h-141v801h-420z" />
<glyph unicode="&#x2022;" horiz-adv-x="1204" d="M283 358v717h639v-717h-639z" />
<glyph unicode="&#x2026;" horiz-adv-x="2007" d="M264 0v219h139v-219h-139zM934 0v219h137v-219h-137zM1602 0v219h139v-219h-139z" />
<glyph unicode="&#x202f;" horiz-adv-x="393" />
<glyph unicode="&#x2030;" horiz-adv-x="2408" d="M72 1139q0 68 27.5 127t72.5 103t106.5 68.5t127.5 24.5q68 0 127 -25.5t104 -70.5t71.5 -105.5t26.5 -127.5q0 -72 -26.5 -131.5t-70.5 -104.5t-105.5 -71.5t-129.5 -26.5q-70 0 -131 26.5t-105 73.5t-69.5 107.5t-25.5 132.5zM188 1139q0 -47 16.5 -87t45.5 -70 t68.5 -48.5t87.5 -18.5q45 0 84.5 17.5t67.5 47.5t45.5 68.5t17.5 86.5q0 43 -17.5 80.5t-46.5 67.5t-67.5 47.5t-81.5 17.5q-45 0 -84 -16.5t-69 -45.5t-48.5 -66.5t-18.5 -80.5zM436 0l635 1434h115l-633 -1434h-117zM883 313q0 68 27.5 127.5t72.5 103.5t105.5 69.5 t125.5 25.5q68 0 128.5 -26.5t105.5 -71.5t71.5 -105.5t26.5 -128.5t-26.5 -129t-70.5 -106t-105.5 -72t-129.5 -27q-70 0 -131 28t-105 74t-69.5 107t-25.5 131zM999 313q0 -47 16.5 -87t45.5 -69.5t67.5 -47t85.5 -17.5q43 0 84 17.5t69 47t45.5 68.5t17.5 84 q0 43 -17.5 82t-46.5 67.5t-67.5 46t-81.5 17.5q-45 0 -84 -16.5t-69 -44t-47.5 -66.5t-17.5 -82zM1663 313q0 68 27.5 127.5t72.5 103.5t106.5 69.5t127.5 25.5q68 0 128 -26.5t105 -71.5t72 -105.5t27 -128.5t-27 -129t-72 -106t-106.5 -72t-128.5 -27q-70 0 -130.5 28 t-105.5 74t-70.5 107t-25.5 131zM1780 313q0 -47 17.5 -87t46 -69.5t68.5 -47t85 -17.5t85 17.5t67.5 47t45 68.5t17.5 84q0 43 -17.5 82t-46 67.5t-66.5 46t-83 17.5q-43 0 -83 -16.5t-69.5 -44t-48 -66.5t-18.5 -82z" />
<glyph unicode="&#x2039;" horiz-adv-x="401" d="M72 483v80l231 344l31 -112l-172 -275l172 -272l-31 -109z" />
<glyph unicode="&#x203a;" horiz-adv-x="401" d="M72 248l172 272l-172 275l28 112l234 -344v-80l-234 -344z" />
<glyph unicode="&#x2044;" horiz-adv-x="118" d="M-309 0l637 1434h114l-635 -1434h-116z" />
<glyph unicode="&#x205f;" horiz-adv-x="491" />
<glyph unicode="&#x20ac;" d="M0 582v90h150q-2 16 -3 29v28v33q0 16 3 33h-150v88h156q12 96 41.5 189t81.5 175q66 100 164 161.5t231 61.5q113 0 194.5 -49t139.5 -157v170h102v-351h-135q-18 55 -45 103.5t-63 84.5t-84 58.5t-109 22.5q-96 0 -168 -49.5t-123 -137.5q-33 -57 -54.5 -128.5 t-31.5 -153.5h528v-88h-536q-2 -16 -2 -33v-33v-29q0 -14 2 -28h536v-90h-530q10 -84 31.5 -162t54.5 -144q47 -84 120.5 -134t178.5 -50q57 0 109.5 16.5t94.5 51.5t71.5 88t41.5 127h129q-29 -199 -145.5 -301.5t-304.5 -102.5q-139 0 -238.5 63.5t-163.5 166.5 q-51 84 -80.5 182t-39.5 199h-154z" />
<glyph unicode="&#x2113;" horiz-adv-x="999" d="M63 379q45 39 86 72.5t80 72.5v576q0 143 28 237.5t72 150.5t99 78.5t111 22.5q63 0 111 -25.5t79 -69.5t46.5 -104.5t15.5 -129.5q0 -100 -31 -196.5t-88.5 -192t-139 -190.5t-180.5 -189v-64q0 -92 21.5 -156.5t54.5 -105.5t77 -59.5t89 -18.5q51 0 95 19.5t81 48 t64.5 64.5t48.5 73l67 -55q-135 -256 -383 -256q-88 0 -151.5 32.5t-103.5 86t-59.5 124t-21.5 148.5v28q-29 -23 -60.5 -49t-61.5 -51zM352 625q74 76 136.5 153.5t108.5 157.5t71.5 159t25.5 160q0 102 -34.5 168t-122.5 66q-31 0 -63 -18.5t-59.5 -63.5t-45 -116.5 t-17.5 -176.5v-489z" />
<glyph unicode="&#x2122;" horiz-adv-x="1966" d="M0 1319v115h662v-115h-259v-703h-143v703h-260zM807 616v818h209l233 -578l244 578h205v-818h-127v703l-283 -703h-76l-276 703v-703h-129z" />
<glyph unicode="&#x2126;" horiz-adv-x="1513" d="M109 0v109h319v6q-59 49 -111.5 115.5t-92.5 149.5t-63.5 180t-23.5 210q0 158 49.5 285t133 219t198.5 142t246 50q139 0 252.5 -55t192.5 -150.5t123 -219t44 -263.5q0 -117 -24.5 -218t-66.5 -185t-95 -150.5t-109 -109.5v-6h324v-109h-492v80q61 41 121 105.5 t106 149.5t74.5 191.5t28.5 229.5q0 102 -30.5 209.5t-91 194.5t-150.5 141.5t-209 54.5q-111 0 -203 -47t-155.5 -129t-98.5 -192.5t-35 -233.5q0 -119 29 -223.5t75 -192.5t105.5 -153.5t120.5 -104.5v-80h-491z" />
<glyph unicode="&#x212e;" horiz-adv-x="1806" d="M70 721q0 156 65.5 293t179 238.5t264 159.5t322.5 58t324.5 -58t266.5 -159.5t179.5 -238.5t65.5 -293v-21h-1350q-12 0 -12 -8v-409q0 -14 5 -24.5t13 -20.5q98 -102 229.5 -162t280.5 -60q162 0 301 67t238 179h117q-111 -131 -283 -210t-375 -79q-172 0 -322.5 58.5 t-264 160t-179 237.5t-65.5 292zM375 754q0 -12 12 -13h1034q8 0 9 13v409q0 31 -21 49q-98 96 -227 154.5t-279 58.5t-279.5 -59t-228.5 -160q-20 -25 -20 -51v-401z" />
<glyph unicode="&#x2202;" horiz-adv-x="1126" d="M90 455q0 121 36 218t98.5 164.5t142 104.5t168.5 37q74 0 134 -23.5t105 -57.5t74 -68.5t41 -59.5h2q2 20 2 49v47q0 147 -32 265t-87 201t-129 128t-153 45q-98 0 -167 -31.5t-112 -68.5l-51 94q53 43 135 80t207 37q98 0 191 -47t166 -144.5t117 -245t44 -345.5 q0 -180 -34 -334t-100.5 -270.5t-166.5 -183t-236 -66.5q-100 0 -173.5 40.5t-123 108.5t-74 153t-24.5 173zM223 459q0 -80 18.5 -146.5t55.5 -116t87 -78t112 -28.5h2q78 0 142.5 44t112.5 120t77.5 173t41.5 206q-12 35 -39.5 78t-68.5 78.5t-94.5 59t-116.5 23.5 q-68 0 -128 -31.5t-105.5 -88t-71 -131t-25.5 -162.5z" />
<glyph unicode="&#x2206;" horiz-adv-x="1351" d="M66 0v96l538 1389h150l530 -1389v-96h-1218zM201 109h942l-322 833q-14 41 -34.5 93t-41 105.5t-40 103.5t-29.5 87h-8q-8 -31 -22.5 -74t-34.5 -92l-39 -98q-19 -49 -31 -92z" />
<glyph unicode="&#x220f;" horiz-adv-x="1452" d="M53 1325v119h1344v-119h-236v-1524h-127v1524h-616v-1524h-131v1524h-234z" />
<glyph unicode="&#x2211;" horiz-adv-x="1155" d="M47 -111l576 729l-549 736v90h1001v-115h-817v-6l516 -686l-553 -705v-6h887v-125h-1061v88z" />
<glyph unicode="&#x2212;" horiz-adv-x="1323" d="M156 655v123h1009v-123h-1009z" />
<glyph unicode="&#x2215;" horiz-adv-x="118" d="M-309 0l637 1434h114l-635 -1434h-116z" />
<glyph unicode="&#x2219;" horiz-adv-x="602" d="M233 610v219h138v-219h-138z" />
<glyph unicode="&#x221a;" horiz-adv-x="1183" d="M72 682l270 104l279 -796q10 -37 19 -76t13 -68h2q4 27 12.5 66t16.5 74l395 1726h103l-463 -2025h-123l-340 970l-156 -57z" />
<glyph unicode="&#x221e;" horiz-adv-x="1617" d="M106 592q0 70 24 129t69 102t102 67.5t129 24.5q57 0 110.5 -21.5t101.5 -56t91 -80.5t86 -95q41 47 84 92t90 80.5t100.5 58t118.5 22.5q68 0 123.5 -23.5t94 -64.5t60 -99t21.5 -126v-2q0 -74 -26.5 -134t-70.5 -102t-101.5 -66t-116.5 -24q-100 0 -187 64.5 t-198 187.5q-43 -47 -85 -92t-90 -80t-102.5 -57.5t-117.5 -22.5t-119.5 25t-99.5 68t-67 101t-24 124zM203 590q0 -47 16.5 -89t45 -73t69.5 -49.5t94 -18.5h2q51 0 97 24t87 57.5t78 73.5t70 75q-35 43 -73 86t-80 77.5t-90 57.5t-105 23q-51 0 -91 -20.5t-67 -54.5 t-40 -77t-13 -92zM864 598q55 -57 98.5 -102t82 -75t77.5 -45.5t82 -15.5q49 0 90 20.5t68 53.5t41 76t14 84q0 115 -61.5 177.5t-153.5 62.5h-2q-53 0 -101 -27t-91 -63.5t-79 -76.5t-65 -69z" />
<glyph unicode="&#x222b;" horiz-adv-x="724" d="M25 -293l24 96q14 -6 40 -16t58 -10q25 0 51.5 13t45.5 36q14 20 28.5 49t24.5 72t16 102.5t6 140.5q0 125 -4 260.5t-10 272.5t-10 272t-4 256q0 168 24.5 269.5t83.5 160.5q39 41 87.5 59.5t97.5 18.5q33 0 63.5 -9t46.5 -19l-24 -93q-14 10 -35 15.5t-43 5.5 q-27 0 -55.5 -9.5t-51.5 -37.5q-39 -47 -56 -135t-17 -238q0 -121 4 -254t10 -269t10 -270.5t4 -257.5q0 -86 -8 -152.5t-20.5 -116.5t-29.5 -87t-34 -63q-33 -47 -84 -72t-110 -25q-37 0 -74 12.5t-55 22.5z" />
<glyph unicode="&#x2248;" horiz-adv-x="1183" d="M98 344q49 92 122 144.5t163 52.5q39 0 72.5 -9.5t63.5 -23.5t54.5 -28.5t47.5 -26.5q51 -27 96 -50.5t106 -23.5q66 0 111 39t92 119l55 -52q-39 -78 -102.5 -135t-161.5 -57q-63 0 -117.5 24.5t-132.5 63.5q-47 29 -95 50.5t-103 21.5q-76 0 -123 -48.5t-88 -109.5z M98 692q49 90 122 142.5t163 52.5q39 0 72.5 -10.5t63.5 -22.5t54.5 -27.5t47.5 -27.5q55 -29 99 -50.5t103 -21.5q63 0 109.5 39t93.5 117l55 -49q-39 -80 -103.5 -136.5t-160.5 -56.5q-63 0 -117.5 23.5t-132.5 64.5q-47 27 -96 49.5t-102 22.5q-74 0 -122 -47t-89 -109z " />
<glyph unicode="&#x2260;" horiz-adv-x="1183" d="M109 344v88h358l145 311h-503v88h540l113 244l72 -33l-97 -211h336v-88h-375l-145 -311h520v-88h-557l-115 -250l-71 35l100 215h-321z" />
<glyph unicode="&#x2264;" horiz-adv-x="1183" d="M109 16v93h964v-93h-964zM121 666v92l948 471v-109l-850 -403v-4l850 -410v-108z" />
<glyph unicode="&#x2265;" horiz-adv-x="1183" d="M111 16v93h962v-93h-962zM123 195v108l846 408v4l-846 405v109l946 -471v-92z" />
<glyph unicode="&#x25ca;" horiz-adv-x="1185" d="M117 721l424 817h108l418 -817l-422 -815h-108zM238 725l315 -606q14 -31 23.5 -56.5t13.5 -46.5h6q6 20 17.5 50t21.5 53l311 600l-313 602q-10 25 -21.5 53.5t-19.5 48.5h-4q-8 -23 -17.5 -48t-21.5 -54z" />
<glyph unicode="&#xe000;" horiz-adv-x="1055" d="M0 1055h1055v-1055h-1055v1055z" />
</font>
</defs>
</svg>
