<?xml version="1.0" encoding="utf-8"?>
<!-- Generator: Adobe Illustrator 19.2.1, SVG Export Plug-In . SVG Version: 6.00 Build 0)  -->
<!DOCTYPE svg PUBLIC "-//W3C//DTD SVG 1.1//EN" "http://www.w3.org/Graphics/SVG/1.1/DTD/svg11.dtd">
<svg version="1.1" id="Layer_1" xmlns="http://www.w3.org/2000/svg" xmlns:xlink="http://www.w3.org/1999/xlink" x="0px" y="0px"
	 viewBox="0 0 460.7 220" style="enable-background:new 0 0 460.7 220;" xml:space="preserve">
<style type="text/css">
	.st0{fill:#69B145;}
	.st1{fill:#F0F0F0;}
	.st2{fill:#F2CA19;}
	.st3{fill:#ED3941;}
	.st4{fill:#4F8DCA;}
</style>
<g>
	<circle class="st0" cx="57.6" cy="20.8" r="2.2"/>
	<circle class="st0" cx="100.6" cy="20.8" r="2.2"/>
	<path class="st1" d="M107.4,18.6h15v4.5h-15V18.6z"/>
	<circle class="st2" cx="93.6" cy="20.8" r="2.2"/>
	<path class="st3" d="M71.3,23.1h5.3l-2.6-4.5L71.3,23.1z M126.2,23.1h5.3l-2.6-4.5L126.2,23.1z"/>
	<path class="st4" d="M81.3,18.6h4.5v4.5h-4.5V18.6z"/>
	<circle class="st0" cx="162.9" cy="27.4" r="2.2"/>
	<circle class="st0" cx="169.9" cy="27.4" r="2.2"/>
	<path class="st1" d="M210.7,27.4c0-1.2-1-2.2-2.1-2.2h-33.1v4.5h33.1C209.7,29.5,210.7,28.6,210.7,27.4z M50,25.1h103.2v4.5H50
		L50,25.1z"/>
	<circle class="st0" cx="113.1" cy="14.3" r="2.2"/>
	<circle class="st0" cx="120" cy="14.3" r="2.2"/>
	<path class="st1" d="M72.3,12.1H108v4.5H72.3L72.3,12.1z M131.9,31.7h13.9v4.5h-13.9V31.7z M98.8,31.7h23.3v4.5H98.8V31.7z
		 M43.6,31.7h21.8v4.5H43.6V31.7z"/>
	<circle class="st2" cx="93.6" cy="33.9" r="2.2"/>
	<path class="st3" d="M71.4,36.1h5.3l-2.7-4.4L71.4,36.1z"/>
	<path class="st4" d="M81.7,31.7h4.5v4.5h-4.5V31.7z"/>
	<circle class="st0" cx="39.3" cy="40.4" r="2.2"/>
	<circle class="st0" cx="82.4" cy="40.4" r="2.2"/>
	<path class="st1" d="M89.2,38.2h15v4.5h-15V38.2z M138.6,38.2h27.8v4.5h-27.8V38.2z"/>
	<circle class="st2" cx="75.4" cy="40.4" r="2.2"/>
	<circle class="st2" cx="132.1" cy="40.4" r="2.2"/>
	<path class="st3" d="M53,42.6h5.3l-2.7-4.4L53,42.6z M109.7,42.6h5.3l-2.6-4.4L109.7,42.6z"/>
	<path class="st4" d="M63.1,38.2h4.5v4.5h-4.5V38.2z M119.8,38.2h4.5v4.5h-4.5V38.2z"/>
	<circle class="st0" cx="190.4" cy="46.9" r="2.2"/>
	<circle class="st0" cx="120" cy="46.9" r="2.2"/>
	<circle class="st0" cx="127" cy="46.9" r="2.2"/>
	<path class="st1" d="M132.6,44.7h37.6v4.5h-37.6V44.7z M101.7,44.7H115v4.5h-13.3V44.7z"/>
	<path class="st4" d="M178.9,44.7h4.5v4.5h-4.5V44.7z"/>
	<circle class="st0" cx="70.2" cy="46.9" r="2.2"/>
	<path class="st1" d="M33.4,44.7h21v4.5h-21V44.7z M76,44.7h17.4v4.5H76V44.7z"/>
	<path class="st4" d="M58.6,44.7h4.5v4.5h-4.5V44.7z"/>
	<path class="st1" d="M135.2,51.2h18.2v4.5h-18.2V51.2z M49.8,51.2h26.6v4.5H49.8L49.8,51.2z"/>
	<circle class="st2" cx="128.4" cy="53.4" r="2.2"/>
	<circle class="st2" cx="44.6" cy="53.4" r="2.2"/>
	<path class="st3" d="M106.1,55.7h5.3l-2.7-4.5L106.1,55.7z"/>
	<path class="st4" d="M116.5,51.2h4.5v4.5h-4.5V51.2z M32.7,51.2h4.5v4.5h-4.5V51.2z"/>
	<circle class="st0" cx="134.1" cy="60" r="2.2"/>
	<circle class="st0" cx="177.2" cy="60" r="2.2"/>
	<path class="st1" d="M188.4,57.7h-7.3v4.5h7.3c1.2,0,2.2-1,2.2-2.2C190.6,58.7,189.6,57.7,188.4,57.7z"/>
	<circle class="st2" cx="170.1" cy="60" r="2.2"/>
	<path class="st3" d="M147.8,62.2h5.3l-2.7-4.5L147.8,62.2z"/>
	<path class="st4" d="M157.9,57.7h4.5v4.5h-4.5V57.7z"/>
	<circle class="st0" cx="28" cy="60" r="2.2"/>
	<path class="st1" d="M69.8,57.7h23v4.5h-23V57.7z"/>
	<circle class="st2" cx="64" cy="60" r="2.2"/>
	<circle class="st2" cx="118" cy="60" r="2.2"/>
	<path class="st3" d="M41.7,62.2h5.2l-2.6-4.5L41.7,62.2z M98.4,62.2h5.2l-2.6-4.5L98.4,62.2z"/>
	<path class="st4" d="M51.8,57.7h4.5v4.5h-4.5L51.8,57.7z M108.5,57.7h4.5v4.5h-4.5V57.7z"/>
	<path class="st1" d="M171.8,70.8h16.3v4.5h-16.3V70.8z M25.4,70.8h44.9v4.5H25.4V70.8z"/>
	<circle class="st2" cx="212.7" cy="73" r="2.2"/>
	<circle class="st2" cx="130" cy="73" r="2.2"/>
	<path class="st3" d="M190.3,75.2h5.3l-2.6-4.4L190.3,75.2z M107.8,75.2h5.3l-2.7-4.4L107.8,75.2z"/>
	<path class="st4" d="M200.8,70.8h4.5v4.5h-4.5V70.8z M118.1,70.8h4.5v4.5h-4.5V70.8z"/>
	<circle class="st0" cx="51" cy="79.5" r="2.2"/>
	<path class="st1" d="M57.7,77.2h10.8v4.5H57.7V77.2z M106,77.2h20.3v4.5H106L106,77.2z"/>
	<circle class="st2" cx="43.9" cy="79.5" r="2.2"/>
	<circle class="st2" cx="150.3" cy="79.5" r="2.2"/>
	<path class="st3" d="M128.1,81.7h5.2l-2.6-4.4L128.1,81.7z"/>
	<path class="st4" d="M31.7,77.2h4.5v4.5h-4.5V77.2z M138.1,77.2h4.5v4.5h-4.5V77.2z"/>
	<path class="st1" d="M96.8,83.7h53.5v4.5H96.8L96.8,83.7z M97.4,90.2h23.3v4.5H97.4V90.2z"/>
	<circle class="st2" cx="149" cy="92.5" r="2.2"/>
	<path class="st3" d="M126.7,94.8h5.2l-2.6-4.5L126.7,94.8z"/>
	<path class="st4" d="M137.1,90.2h4.5v4.5h-4.5V90.2z"/>
	<circle class="st0" cx="84.5" cy="99.1" r="2.2"/>
	<circle class="st0" cx="173.3" cy="99.1" r="2.2"/>
	<path class="st1" d="M88.7,96.7h37.9v4.5H88.7V96.7z"/>
	<circle class="st2" cx="166.3" cy="99.1" r="2.2"/>
	<circle class="st2" cx="223" cy="99.1" r="2.2"/>
	<path class="st3" d="M131.3,101.3h5.3l-2.6-4.5L131.3,101.3z M200.8,101.3h5.2l-2.6-4.5L200.8,101.3z"/>
	<path class="st4" d="M149.9,96.7h4.5v4.5h-4.5V96.7z M210.8,96.7h4.5v4.5h-4.5V96.7z"/>
	<circle class="st0" cx="139.1" cy="105.6" r="2.2"/>
	<path class="st1" d="M88.9,103.3H124v4.5H88.9V103.3z"/>
	<path class="st4" d="M127.5,103.3h4.5v4.5h-4.5V103.3z"/>
	<path class="st1" d="M81,109.8h79.9v4.5H81V109.8z"/>
	<circle class="st2" cx="189.7" cy="112" r="2.2"/>
	<path class="st3" d="M167.5,114.3h5.2l-2.6-4.4L167.5,114.3z"/>
	<path class="st4" d="M177.9,109.8h4.5v4.5h-4.5V109.8z"/>
	<circle class="st0" cx="108.8" cy="118.5" r="2.2"/>
	<path class="st1" d="M113.4,116.3h19.4v4.5h-19.4L113.4,116.3z"/>
	<circle class="st2" cx="101.8" cy="118.5" r="2.2"/>
	<path class="st3" d="M79.5,120.9h5.3l-2.6-4.5L79.5,120.9z"/>
	<path class="st4" d="M89.5,116.3h4.5v4.5h-4.5V116.3z"/>
	<circle class="st0" cx="109.1" cy="125" r="2.2"/>
	<circle class="st0" cx="116" cy="125" r="2.2"/>
	<path class="st1" d="M73.7,122.8H104v4.5H73.7V122.8z M72.6,129.3h16.5v4.5H72.6V129.3z"/>
	<circle class="st2" cx="113.9" cy="131.6" r="2.2"/>
	<path class="st3" d="M91.7,133.9h5.3l-2.6-4.5L91.7,133.9z"/>
	<path class="st4" d="M102.1,129.3h4.5v4.5h-4.5V129.3z"/>
	<path class="st1" d="M68.3,135.9h47.2v4.5H68.3V135.9z M140.2,135.9h8.5v4.5h-8.5V135.9z M70.6,142.4h26v4.5h-26V142.4z"/>
	<path class="st3" d="M102.5,146.8h5.2l-2.6-4.4L102.5,146.8z"/>
	<circle class="st0" cx="81.2" cy="151.1" r="2.2"/>
	<path class="st1" d="M88,148.9h15v4.5H88V148.9z"/>
	<circle class="st2" cx="74.2" cy="151.1" r="2.2"/>
	<path class="st3" d="M106,153.3h5.2l-2.6-4.4L106,153.3z"/>
	<path class="st1" d="M77.9,164.6h22.4v4.5H77.9V164.6z"/>
	<circle class="st0" cx="97.4" cy="173.3" r="2.2"/>
	<path class="st1" d="M102,171.1h8.3v4.5H102V171.1z"/>
	<circle class="st2" cx="90.4" cy="173.3" r="2.2"/>
	<path class="st3" d="M68.2,175.5h5.2l-2.6-4.4L68.2,175.5z"/>
	<path class="st4" d="M78.2,171.1h4.5v4.5h-4.5V171.1z"/>
	<circle class="st2" cx="238.4" cy="173.3" r="2.2"/>
	<path class="st3" d="M190.8,175.5h5.3l-2.7-4.4L190.8,175.5z"/>
	<path class="st4" d="M208.9,171.1h4.5v4.5h-4.5V171.1z"/>
	<circle class="st0" cx="103.9" cy="179.8" r="2.2"/>
	<circle class="st0" cx="111" cy="179.8" r="2.2"/>
	<path class="st1" d="M68.5,177.5h30.3v4.5H68.5V177.5z M70.1,184h13.5v4.5H70.1V184z"/>
	<circle class="st2" cx="108.5" cy="186.2" r="2.2"/>
	<path class="st3" d="M86.2,188.5h5.2l-2.6-4.5L86.2,188.5z"/>
	<path class="st4" d="M96.5,184h4.5v4.5h-4.5V184z"/>
	<path class="st1" d="M98.4,190.5h13.9v4.5H98.4V190.5z"/>
	<circle class="st2" cx="92.4" cy="192.7" r="2.2"/>
	<path class="st3" d="M70,194.9h5.3l-2.6-4.4L70,194.9z"/>
	<path class="st4" d="M80.4,190.5H85v4.5h-4.5V190.5z"/>
	<circle class="st0" cx="127.5" cy="199.2" r="2.2"/>
	<path class="st1" d="M76.3,196.9h18.2v4.5H76.3V196.9z"/>
	<circle class="st2" cx="110.1" cy="199.2" r="2.2"/>
	<path class="st4" d="M97.8,196.9h4.5v4.5h-4.5V196.9z"/>
	<circle class="st0" cx="83.7" cy="205.7" r="2.2"/>
	<circle class="st0" cx="90.8" cy="205.7" r="2.2"/>
	<circle class="st0" cx="133.6" cy="66.5" r="2.2"/>
	<circle class="st0" cx="140.6" cy="66.5" r="2.2"/>
	<path class="st1" d="M146.2,64.2h7.5v4.5h-7.5V64.2z M112.1,64.2h16.4v4.5h-16.4V64.2z M30.3,64.2H72v4.5H30.3L30.3,64.2z"/>
	<circle class="st2" cx="261.4" cy="131.4" r="2.2"/>
	<path class="st3" d="M202.8,133.7h5.3l-2.6-4.4L202.8,133.7z"/>
	<path class="st4" d="M236.8,129.2h4.5v4.5h-4.5V129.2z"/>
	<path class="st1" d="M263.7,85.9c0-1.2-1-2.2-2.1-2.2H183v4.5h78.6C262.8,88,263.7,87,263.7,85.9z M249.9,111.9
		c0-1.2-1-2.2-2.1-2.2h-34v4.5h34C249,114.1,249.9,113.1,249.9,111.9z M220.9,137.9c0-1.2-1-2.2-2.1-2.2h-55v4.5h55
		C220,140.2,220.9,139.2,220.9,137.9z M312.5,142.4c0-1.2-1-2.2-2.1-2.2h-31v4.5h31C311.6,144.5,312.5,143.6,312.5,142.4z
		 M197.9,153.4c-0.5-1.3-1.3-2.6-2.5-3.6c-2.1-2.1-5-3.3-7.8-3.3c-0.9,0-1.7,0.1-2.6,0.3l-1.1,0.3c-0.3,0.2-0.5,0.4-0.7,0.5
		c-0.4,0.4-0.5,0.9-0.5,1.4c0,1.2,1.1,2.3,2.3,2.3c0.4,0,0.7-0.1,1-0.3c0.5-0.1,1-0.2,1.5-0.2c1.7,0,3.3,0.6,4.6,2
		c0.6,0.6,1.2,1.4,1.4,2.2c0.4,0.8,0.4,1.6,0.4,2.5c0,0.9-0.2,1.7-0.4,2.5c-0.4,0.8-0.8,1.5-1.4,2.2c-0.6,0.6-1.4,1.2-2.2,1.4
		c-0.8,0.4-1.7,0.4-2.6,0.4l-0.1,0.1h-41.3v4.5h41.6c1.4,0,2.8-0.3,4.3-0.8c1.3-0.5,2.6-1.3,3.6-2.4l0.1-0.1c1.1-1.1,2-2.4,2.5-3.7
		c0.5-1.3,0.8-2.8,0.8-4.3C198.8,156.2,198.5,154.8,197.9,153.4L197.9,153.4z M270.4,51.5c-0.5-1.3-1.3-2.6-2.5-3.6
		c-2.1-2.1-5-3.3-7.8-3.3c-1.4,0-2.8,0.3-4.3,0.8c-1.3,0.5-2.7,1.3-3.7,2.5l-4.7,4.7l-2.6-2.6l-1-1l-1.2-1.2c-1.1-1.1-2.4-1.5-3.7-2
		c-1.3-0.5-2.8-0.4-4.3-0.4h-19.6v4.4h19.7c0.9,0,1.8-0.3,2.6,0.1c0.8,0.4,1.6,0.6,2.2,1.3l1.1,1l3.6,3.6l-4.7,4.7
		c-0.6,0.6-1.4,1.2-2.2,1.4c-0.8,0.4-1.6,0.4-2.5,0.4c-0.8,0-1.7-0.2-2.5-0.4l-0.2-0.1h-0.1c-0.2-0.1-0.4-0.1-0.7-0.1
		c-1.2,0-2.3,1.1-2.3,2.3c0,1.1,0.7,2,1.8,2.2c1.2,0.4,2.7,0.7,4,0.7c1.4,0,2.8-0.3,4.2-0.8c1.3-0.5,2.6-1.3,3.6-2.5l4.7-4.7
		l4.7,4.7c1.1,1.1,2.3,1.9,3.6,2.5c1.3,0.5,2.8,0.8,4.2,0.8s2.8-0.3,4.3-0.8c1.3-0.5,2.7-1.3,3.7-2.5c1.1-1.1,2-2.4,2.5-3.7
		c0.5-1.3,0.8-2.8,0.8-4.3C271.2,54.3,270.9,52.9,270.4,51.5L270.4,51.5z M266.2,58.2c-0.4,0.8-0.8,1.5-1.4,2.2
		c-0.6,0.6-1.4,1.2-2.2,1.4c-0.8,0.4-1.7,0.4-2.6,0.4c-0.8,0-1.7-0.2-2.5-0.5c-0.8-0.4-1.5-0.8-2.2-1.4l-4.7-4.6l4.7-4.7
		c0.6-0.6,1.4-1.2,2.2-1.4c0.8-0.4,1.7-0.4,2.6-0.4c1.7,0,3.3,0.6,4.6,2c0.6,0.6,1.2,1.4,1.4,2.2c0.4,0.8,0.4,1.6,0.4,2.5
		C266.6,56.6,266.4,57.4,266.2,58.2L266.2,58.2z"/>
	<circle class="st0" cx="386.2" cy="20.8" r="2.2"/>
	<circle class="st0" cx="429.3" cy="20.8" r="2.2"/>
	<circle class="st2" cx="422.3" cy="20.8" r="2.2"/>
	<path class="st3" d="M399.9,23.1h5.3l-2.7-4.5L399.9,23.1z"/>
	<path class="st4" d="M410,18.6h4.5v4.5H410V18.6z"/>
	<circle class="st0" cx="422.2" cy="27.4" r="2.2"/>
	<circle class="st0" cx="323.3" cy="27.4" r="2.2"/>
	<path class="st1" d="M383,25.1h34.1v4.5H383V25.1z M379.7,12.1H433v4.5h-53.3V12.1z M380.4,31.7h21.8v4.5h-21.8V31.7z"/>
	<circle class="st2" cx="430.3" cy="33.9" r="2.2"/>
	<path class="st3" d="M408,36.1h5.3l-2.6-4.4L408,36.1z"/>
	<path class="st4" d="M418.4,31.7h4.5v4.5h-4.5V31.7z"/>
	<circle class="st0" cx="390.7" cy="40.4" r="2.2"/>
	<path class="st1" d="M397.4,38.2h15v4.5h-15V38.2z"/>
	<circle class="st2" cx="383.6" cy="40.4" r="2.2"/>
	<path class="st3" d="M361.3,42.6h5.3l-2.6-4.4L361.3,42.6z M418.1,42.6h5.2l-2.6-4.4L418.1,42.6z"/>
	<path class="st4" d="M371.4,38.2h4.5v4.5h-4.5V38.2z M428.1,38.2h4.5v4.5h-4.5V38.2z"/>
	<circle class="st0" cx="428.7" cy="46.9" r="2.2"/>
	<circle class="st0" cx="421.7" cy="46.9" r="2.2"/>
	<path class="st1" d="M394.9,51.2h26.6v4.5h-26.6V51.2z"/>
	<circle class="st2" cx="389.8" cy="53.4" r="2.2"/>
	<path class="st4" d="M377.9,51.2h4.5v4.5h-4.5V51.2z"/>
	<path class="st1" d="M385,57.7h23v4.5h-23V57.7z"/>
	<circle class="st2" cx="379.1" cy="60" r="2.2"/>
	<circle class="st2" cx="433.1" cy="60" r="2.2"/>
	<path class="st3" d="M413.5,62.2h5.2l-2.6-4.5L413.5,62.2z"/>
	<path class="st4" d="M366.9,57.7h4.5v4.5h-4.5V57.7z M423.6,57.7h4.5v4.5h-4.5V57.7z"/>
	<path class="st1" d="M385.1,70.8h16.6v4.5h-16.6V70.8z"/>
	<circle class="st2" cx="425.6" cy="73" r="2.2"/>
	<path class="st3" d="M403.3,75.2h5.3l-2.7-4.4L403.3,75.2z"/>
	<path class="st4" d="M413.6,70.8h4.5v4.5h-4.5V70.8z"/>
	<circle class="st0" cx="381" cy="79.5" r="2.2"/>
	<path class="st1" d="M387.8,77.2h43.3v4.5h-43.3V77.2z"/>
	<circle class="st2" cx="373.9" cy="79.5" r="2.2"/>
	<path class="st3" d="M351.7,81.7h5.2l-2.6-4.4L351.7,81.7z"/>
	<path class="st4" d="M361.8,77.2h4.5v4.5h-4.5V77.2z"/>
	<circle class="st0" cx="316.5" cy="79.5" r="2.2"/>
	<circle class="st2" cx="309.4" cy="79.5" r="2.2"/>
	<path class="st4" d="M286.6,77.2h4.5v4.5h-4.5V77.2z"/>
	<path class="st1" d="M384.9,83.7H428v4.5h-43.1V83.7z M380.6,90.2h22.2v4.5h-22.2V90.2z"/>
	<circle class="st2" cx="431.1" cy="92.5" r="2.2"/>
	<path class="st3" d="M408.7,94.8h5.3l-2.6-4.5L408.7,94.8z"/>
	<path class="st4" d="M419.2,90.2h4.5v4.5h-4.5V90.2z"/>
	<circle class="st2" cx="363.3" cy="92.5" r="2.2"/>
	<path class="st3" d="M327,94.8h5.3l-2.6-4.5L327,94.8z"/>
	<path class="st4" d="M340,90.2h4.5v4.5H340V90.2z"/>
	<path class="st1" d="M383.8,96.7h15v4.5h-15V96.7z"/>
	<circle class="st2" cx="426.7" cy="99.1" r="2.2"/>
	<path class="st3" d="M404.5,101.3h5.2l-2.6-4.5L404.5,101.3z"/>
	<path class="st4" d="M414.5,96.7h4.5v4.5h-4.5V96.7z"/>
	<circle class="st0" cx="342.8" cy="105.6" r="2.2"/>
	<path class="st1" d="M381.3,103.3h34v4.5h-34V103.3z"/>
	<path class="st4" d="M418.8,103.3h4.5v4.5h-4.5V103.3z"/>
	<path class="st1" d="M413.7,109.8h16.6v4.5h-16.6V109.8z"/>
	<circle class="st2" cx="407.6" cy="112" r="2.2"/>
	<path class="st3" d="M385.2,114.3h5.3l-2.6-4.4L385.2,114.3z"/>
	<path class="st4" d="M395.7,109.8h4.5v4.5h-4.5V109.8z"/>
	<circle class="st0" cx="409.1" cy="118.5" r="2.2"/>
	<path class="st1" d="M413.6,116.3h14.8v4.5h-14.8V116.3z"/>
	<circle class="st2" cx="402.1" cy="118.5" r="2.2"/>
	<path class="st3" d="M379.8,120.9h5.2l-2.6-4.5L379.8,120.9z"/>
	<path class="st4" d="M389.9,116.3h4.5v4.5h-4.5V116.3z"/>
	<circle class="st0" cx="286.4" cy="125" r="2.2"/>
	<circle class="st0" cx="293.4" cy="125" r="2.2"/>
	<circle class="st0" cx="360.1" cy="125" r="2.2"/>
	<circle class="st0" cx="368.8" cy="125" r="2.2"/>
	<path class="st1" d="M306.8,122.8h46v4.5h-46V122.8z M381.6,122.8h47.6v4.5h-47.6V122.8z M384.6,129.3h16.5v4.5h-16.5V129.3z"/>
	<circle class="st2" cx="425.9" cy="131.6" r="2.2"/>
	<path class="st3" d="M403.8,133.9h5.2l-2.6-4.5L403.8,133.9z"/>
	<path class="st4" d="M414.1,129.3h4.5v4.5h-4.5V129.3z"/>
	<path class="st1" d="M384.2,135.9h46v4.5h-46V135.9z M387.9,142.4h26v4.5h-26V142.4z"/>
	<path class="st3" d="M419.8,146.8h5.2l-2.6-4.4L419.8,146.8z"/>
	<circle class="st0" cx="396.1" cy="151.1" r="2.2"/>
	<path class="st1" d="M403,148.9h15v4.5h-15V148.9z"/>
	<circle class="st2" cx="389.1" cy="151.1" r="2.2"/>
	<path class="st3" d="M420.8,153.3h5.2l-2.6-4.4L420.8,153.3z"/>
	<path class="st1" d="M390.9,164.6h24.3v4.5h-24.3V164.6z"/>
	<circle class="st0" cx="409.9" cy="173.3" r="2.2"/>
	<path class="st1" d="M386.2,171.1h17.4v4.5h-17.4V171.1z"/>
	<circle class="st2" cx="416.9" cy="173.3" r="2.2"/>
	<path class="st4" d="M424,171.1h4.5v4.5H424V171.1z"/>
	<circle class="st0" cx="417.4" cy="179.8" r="2.2"/>
	<circle class="st0" cx="424.3" cy="179.8" r="2.2"/>
	<path class="st1" d="M383.8,177.5h27.3v4.5h-27.3V177.5z M384.8,184h12.1v4.5h-12.1V184z"/>
	<circle class="st2" cx="421.8" cy="186.2" r="2.2"/>
	<path class="st3" d="M399.6,188.5h5.2l-2.6-4.5L399.6,188.5z"/>
	<path class="st4" d="M409.9,184h4.5v4.5h-4.5V184z"/>
	<path class="st1" d="M389.8,190.5h32v4.5h-32V190.5z"/>
	<circle class="st2" cx="416.3" cy="199.2" r="2.2"/>
	<path class="st3" d="M385.3,201.4h5.2l-2.6-4.4L385.3,201.4z"/>
	<path class="st4" d="M395.4,196.9h4.5v4.5h-4.5V196.9z"/>
	<circle class="st0" cx="400.6" cy="205.7" r="2.2"/>
	<circle class="st0" cx="409.9" cy="205.7" r="2.2"/>
	<path class="st1" d="M330.7,31.7c-1.4,0-2.8,0.3-4.3,0.8c-1.3,0.5-2.7,1.3-3.7,2.5l-1.2,1.2l-1,1l-0.9,0.9l-3.6,3.6l-1.1,1.1
		c-0.6,0.6-1.4,1.2-2.2,1.5c-0.8,0.4-1.7,0.4-2.6,0.4h-8.4c-1.2,0-2.2,1-2.2,2.2c0,1.2,1,2.2,2.2,2.2h8.4c1.4,0,2.8-0.3,4.3-0.8
		c1.3-0.5,2.7-1.3,3.7-2.5l1.2-1.2l1-1l0.9-0.9l3.6-3.6l1.1-1.1c0.6-0.6,1.4-1.2,2.2-1.5c0.8-0.4,1.7-0.4,2.6-0.4h18.2v-4.4
		C348.8,31.7,330.7,31.7,330.7,31.7z M263,125c0,1.2,1,2.2,2.1,2.2h16.2v-4.5h-16.2C263.9,122.9,263,123.9,263,125z M291,92.5
		c0,1.2,1,2.2,2.1,2.2H321v-4.5H293C292,90.3,291,91.3,291,92.5z M341,46.9c0,1.2,1,2.2,2.1,2.2h66.1v-4.5h-66.1
		C342,44.8,341,45.7,341,46.9L341,46.9z M336.1,177.7h-13.3c-0.9,0-1.8-0.2-2.6-0.4c-0.8-0.4-1.6-0.9-2.2-1.5l-1.1-1.1l-3.6-3.6
		l4.7-4.7c0.6-0.6,1.4-1.2,2.2-1.4c0.8-0.4,1.6-0.5,2.5-0.5c0.9,0,1.7,0.2,2.6,0.4l0.2,0.1h0.1c0.3,0.1,0.5,0.2,0.8,0.2
		c1.2,0,2.3-1,2.3-2.3c0-1-0.6-1.8-1.5-2.1H327c-1.3-0.5-2.8-0.8-4.3-0.8c-1.4,0-2.8,0.3-4.2,0.8c-1.3,0.5-2.6,1.3-3.6,2.5l-4.7,4.7
		l-4.7-4.7c-1.1-1.1-2.3-1.9-3.6-2.5c-1.3-0.5-2.8-0.8-4.2-0.8c-1.4,0-2.8,0.3-4.3,0.8c-1.3,0.5-2.7,1.3-3.7,2.5
		c-1.1,1.1-2,2.4-2.5,3.7c-0.5,1.3-0.8,2.8-0.8,4.3c0,1.4,0.3,2.8,0.8,4.2c0.5,1.3,1.3,2.6,2.5,3.6c2.1,2.1,5,3.3,7.8,3.3
		c1.4,0,2.8-0.3,4.3-0.8c1.3-0.5,2.7-1.3,3.7-2.5l4.7-4.7l2.6,2.6l1,1l1.2,1.2c1.1,1.1,2.4,2,3.7,2.5c1.3,0.5,2.8,0.8,4.3,0.8h33.1
		v-4.5L336.1,177.7L336.1,177.7z M302.1,175.8c-0.6,0.6-1.4,1.2-2.2,1.4c-0.8,0.4-1.7,0.4-2.6,0.4c-1.7,0-3.3-0.6-4.6-2
		c-0.6-0.6-1.2-1.4-1.4-2.2c-0.4-0.8-0.4-1.6-0.4-2.5s0.2-1.7,0.4-2.5c0.4-0.8,0.8-1.5,1.4-2.2c0.6-0.6,1.4-1.2,2.2-1.4
		c0.8-0.4,1.7-0.4,2.6-0.4c0.8,0,1.7,0.2,2.5,0.5c0.8,0.4,1.5,0.8,2.2,1.4l4.7,4.7L302.1,175.8L302.1,175.8z"/>
</g>
</svg>
