<?xml version="1.0" encoding="utf-8"?>
<!-- Generator: Adobe Illustrator 21.1.0, SVG Export Plug-In . SVG Version: 6.00 Build 0)  -->
<svg version="1.1" id="Layer_1" xmlns="http://www.w3.org/2000/svg" xmlns:xlink="http://www.w3.org/1999/xlink" x="0px" y="0px"
	 viewBox="0 0 591 290" style="enable-background:new 0 0 591 290;" xml:space="preserve">
<style type="text/css">
	.st0{fill:#CCCCCC;}
	.st1{fill:#EFC100;}
	.st2{fill:#EC1C24;}
	.st3{fill:#FFFFFF;}
	.st4{fill:#231F20;}
	.st5{fill:none;stroke:#FDD600;stroke-width:12;stroke-miterlimit:10;stroke-dasharray:141.4709,10.1051;}
	.st6{fill:none;}
	.st7{font-family:'HelvNeueRomanforIBM';}
	.st8{font-size:15.1361px;}
</style>
<path class="st0" d="M300,4v29.4c0.3,0,0.6,0,0.9,0c58,3.3,103.2,49.9,106,106.6h179V4H300z"/>
<path class="st0" d="M182.3,139.4c3.3-58,49.9-103.3,106.7-106.1V4H3v136h179.3C182.3,139.8,182.3,139.6,182.3,139.4z"/>
<path class="st0" d="M407,150c0,0.7-0.1,1.4-0.1,2.1c-3.3,58.1-50.1,103.4-107,106.1V286h286V150H407z"/>
<path class="st0" d="M288.3,258.1c-58.5-3.3-104-50.7-106.1-108.1H3v136h286v-27.9C288.8,258.1,288.5,258.1,288.3,258.1z"/>
<g>
	<g>
		<circle class="st1" cx="294.6" cy="145.7" r="80.6"/>
	</g>
	<g>
		<path d="M256.9,143.3c1.1,0,2.1,0.2,3.1,0.5c1,0.4,1.8,0.9,2.5,1.6c0.7,0.7,1.2,1.6,1.6,2.6c0.4,1.1,0.6,2.3,0.6,3.7
			c0,1.3-0.2,2.4-0.5,3.5c-0.3,1.1-0.8,2-1.5,2.7c-0.7,0.8-1.5,1.4-2.4,1.8c-1,0.4-2.1,0.7-3.4,0.7h-7.4v-17.2H256.9z M256.7,157.3
			c0.5,0,1.1-0.1,1.6-0.3c0.5-0.2,1-0.5,1.4-0.9c0.4-0.4,0.7-0.9,1-1.6c0.2-0.7,0.4-1.5,0.4-2.4c0-0.9-0.1-1.6-0.3-2.3
			c-0.2-0.7-0.4-1.3-0.8-1.8c-0.4-0.5-0.9-0.9-1.5-1.1c-0.6-0.3-1.4-0.4-2.3-0.4h-2.7v10.8H256.7z"/>
		<path d="M271.1,143.3v17.2h-3.8v-17.2H271.1z"/>
		<path d="M284.6,160.4c-0.8,0.3-1.6,0.5-2.5,0.5c-1.3,0-2.5-0.2-3.5-0.7s-1.9-1.1-2.7-1.9c-0.7-0.8-1.3-1.7-1.7-2.8
			c-0.4-1.1-0.6-2.3-0.6-3.5c0-1.3,0.2-2.5,0.6-3.6c0.4-1.1,0.9-2.1,1.7-2.9c0.7-0.8,1.6-1.5,2.7-1.9s2.2-0.7,3.5-0.7
			c0.9,0,1.7,0.1,2.6,0.4c0.8,0.3,1.6,0.7,2.2,1.2c0.7,0.5,1.2,1.1,1.6,1.9c0.4,0.8,0.7,1.6,0.8,2.6h-3.6c-0.2-1-0.7-1.7-1.3-2.2
			c-0.6-0.5-1.4-0.7-2.3-0.7c-0.8,0-1.6,0.2-2.2,0.5c-0.6,0.3-1.1,0.8-1.4,1.3c-0.4,0.6-0.6,1.2-0.8,1.9c-0.2,0.7-0.3,1.4-0.3,2.2
			c0,0.7,0.1,1.4,0.3,2.1c0.2,0.7,0.4,1.3,0.8,1.8c0.4,0.5,0.8,1,1.4,1.3c0.6,0.3,1.3,0.5,2.2,0.5c1.3,0,2.2-0.3,2.9-1
			c0.7-0.6,1.1-1.6,1.2-2.8h-3.8v-2.8h7.2v9.3h-2.4l-0.4-1.9C286.2,159.4,285.4,160,284.6,160.4z"/>
		<path d="M296.5,143.3v17.2h-3.8v-17.2H296.5z"/>
		<path d="M298.5,146.5v-3.2h14.1v3.2h-5.2v14h-3.8v-14H298.5z"/>
		<path d="M320.9,143.3l6.4,17.2h-3.9l-1.3-3.8h-6.4l-1.3,3.8h-3.8l6.5-17.2H320.9z M321.1,153.9l-2.2-6.3h0l-2.2,6.3H321.1z"/>
		<path d="M332.6,143.3v14h8.4v3.2h-12.2v-17.2H332.6z"/>
		<path d="M272.6,176.8c-0.2-0.4-0.5-0.7-0.8-1c-0.3-0.3-0.7-0.5-1.1-0.6c-0.4-0.2-0.9-0.2-1.3-0.2c-0.9,0-1.6,0.2-2.2,0.5
			c-0.6,0.3-1.1,0.8-1.4,1.3s-0.6,1.2-0.8,1.9c-0.2,0.7-0.3,1.4-0.3,2.2c0,0.7,0.1,1.4,0.3,2.1c0.2,0.7,0.4,1.3,0.8,1.8
			s0.8,1,1.4,1.3c0.6,0.3,1.3,0.5,2.2,0.5c1.2,0,2.1-0.4,2.7-1.1c0.6-0.7,1-1.6,1.2-2.8h3.7c-0.1,1.1-0.3,2-0.7,2.9
			c-0.4,0.9-0.9,1.6-1.6,2.2c-0.7,0.6-1.4,1.1-2.3,1.4c-0.9,0.3-1.9,0.5-2.9,0.5c-1.3,0-2.5-0.2-3.5-0.7c-1.1-0.5-1.9-1.1-2.7-1.9
			c-0.7-0.8-1.3-1.7-1.7-2.8c-0.4-1.1-0.6-2.2-0.6-3.5c0-1.3,0.2-2.5,0.6-3.6c0.4-1.1,0.9-2.1,1.7-2.9c0.7-0.8,1.6-1.5,2.7-1.9
			c1.1-0.5,2.2-0.7,3.5-0.7c0.9,0,1.8,0.1,2.7,0.4c0.8,0.3,1.6,0.7,2.3,1.2c0.7,0.5,1.2,1.2,1.6,1.9c0.4,0.8,0.7,1.7,0.8,2.6H273
			C272.9,177.6,272.8,177.2,272.6,176.8z"/>
		<path d="M279.2,177.3c0.4-1.1,0.9-2.1,1.7-2.9c0.7-0.8,1.6-1.5,2.7-1.9c1.1-0.5,2.2-0.7,3.5-0.7c1.3,0,2.5,0.2,3.6,0.7
			c1,0.5,1.9,1.1,2.6,1.9s1.3,1.8,1.7,2.9c0.4,1.1,0.6,2.3,0.6,3.6c0,1.3-0.2,2.4-0.6,3.5c-0.4,1.1-0.9,2-1.7,2.8s-1.6,1.4-2.6,1.9
			c-1,0.5-2.2,0.7-3.6,0.7c-1.3,0-2.5-0.2-3.5-0.7c-1.1-0.5-1.9-1.1-2.7-1.9c-0.7-0.8-1.3-1.7-1.7-2.8c-0.4-1.1-0.6-2.2-0.6-3.5
			C278.6,179.6,278.8,178.4,279.2,177.3z M282.6,183c0.2,0.7,0.4,1.3,0.8,1.8c0.4,0.5,0.8,1,1.4,1.3c0.6,0.3,1.3,0.5,2.2,0.5
			c0.8,0,1.6-0.2,2.2-0.5c0.6-0.3,1.1-0.8,1.4-1.3c0.4-0.5,0.6-1.2,0.8-1.8c0.2-0.7,0.3-1.4,0.3-2.1c0-0.8-0.1-1.5-0.3-2.2
			c-0.2-0.7-0.4-1.3-0.8-1.9c-0.4-0.6-0.8-1-1.4-1.3c-0.6-0.3-1.3-0.5-2.2-0.5c-0.8,0-1.6,0.2-2.2,0.5c-0.6,0.3-1.1,0.8-1.4,1.3
			c-0.4,0.6-0.6,1.2-0.8,1.9c-0.2,0.7-0.3,1.4-0.3,2.2C282.4,181.6,282.5,182.3,282.6,183z"/>
		<path d="M307.3,172.2c0.8,0,1.5,0.1,2.1,0.4c0.6,0.2,1.1,0.6,1.6,1c0.4,0.4,0.8,0.9,1,1.5c0.2,0.6,0.3,1.2,0.3,1.8
			c0,1-0.2,1.9-0.6,2.6c-0.4,0.7-1.1,1.3-2.1,1.7v0c0.5,0.1,0.9,0.3,1.2,0.6c0.3,0.3,0.6,0.6,0.7,0.9c0.2,0.4,0.3,0.8,0.4,1.2
			c0.1,0.4,0.1,0.9,0.2,1.3c0,0.3,0,0.6,0,1c0,0.4,0,0.7,0.1,1.1c0,0.4,0.1,0.8,0.2,1.1c0.1,0.3,0.2,0.6,0.4,0.9h-3.8
			c-0.2-0.5-0.3-1.2-0.4-1.9c0-0.8-0.1-1.5-0.2-2.2c-0.1-0.9-0.4-1.6-0.8-2c-0.4-0.4-1.1-0.6-2-0.6h-3.8v6.7h-3.8v-17.2H307.3z
			 M306,180c0.9,0,1.5-0.2,1.9-0.6c0.4-0.4,0.6-1,0.6-1.9c0-0.8-0.2-1.4-0.6-1.8c-0.4-0.4-1.1-0.6-1.9-0.6h-4.1v4.8H306z"/>
		<path d="M328.3,172.2v3.2h-9.1v3.7h8.3v2.9h-8.3v4.2h9.3v3.2h-13v-17.2H328.3z"/>
	</g>
	<g>
		<g>
			<polyline class="st2" points="334.2,99.9 347.1,99.9 345,109.4 354.5,109.4 352,121.4 342.6,121.4 340.7,130.3 330.2,130.3 
				330.8,127.2 338.1,127.2 340,118.3 349.5,118.4 350.7,112.4 341.2,112.4 343.2,103 336.8,103 334.8,112.4 331.6,112.4 
				334.2,99.9 			"/>
		</g>
		<g>
			<polyline class="st3" points="326.4,130.3 328,122.4 238.2,122.4 236.5,130.3 326.4,130.3 			"/>
		</g>
		<g>
			<path class="st4" d="M282.6,112.4h0.8c0.7,0,1.3,0.3,1.7,0.7c0.4,0.4,0.6,0.9,0.6,1.6c0,1.8-1.7,2.7-3.3,2.7h-0.9L282.6,112.4
				 M282.5,109.8h-2.7l0,0l0,0.1l-3.2,15.1l0,0.1l0,0h3.3l0,0l0-0.1c0,0,1-4.6,1.1-4.9h1.6c2,0,3.9-0.7,5.1-1.9c1-1,1.5-2.3,1.5-3.8
				c0-1.2-0.4-2.2-1.1-2.9C286.7,110.1,284.3,109.8,282.5,109.8z"/>
		</g>
		<g>
			<path class="st4" d="M295.9,122.8c-0.8,0-1.5-0.3-2-0.8c-0.6-0.6-1-1.6-1-2.8c0-2.1,0.8-4.4,2.1-5.7c0.9-0.9,1.9-1.3,3-1.3
				c0.9,0,1.6,0.3,2.1,0.8c0.6,0.6,1,1.6,1,2.7C301.1,118.6,299.2,122.8,295.9,122.8 M302.8,111.2c-1.1-1.1-2.7-1.7-4.7-1.7
				c-2.7,0-4.6,0.9-6.3,2.9c-1.6,1.8-2.4,4.2-2.4,6.6c0,1.9,0.6,3.6,1.8,4.7c1.1,1.1,2.6,1.7,4.3,1.7c2.7,0,5-0.9,6.5-2.6
				c1.6-1.9,2.6-4.3,2.6-6.8C304.5,114,303.9,112.4,302.8,111.2z"/>
		</g>
		<g>
			<path class="st4" d="M246,112.4h0.2c1.7,0,2.9,0.3,3.6,1.1c0.6,0.6,0.8,1.4,0.8,2.4c-0.2,4.5-2.1,6.5-6.1,6.5h-0.6L246,112.4
				 M247.2,109.8c0,0-3.2,0-3.8,0h-0.1l0,0l0,0.1l-3.2,15.1l0,0.1l0,0h5.3c3.1,0,5.4-0.9,6.9-2.8c1.4-1.8,1.8-4,1.9-5.5
				C254.2,112.5,251.9,110.1,247.2,109.8z"/>
		</g>
		<g>
			<path class="st4" d="M315.9,110.3c-1.1-0.4-2.4-0.7-4-0.7c-2.7,0-5.8,1.2-5.8,4.7c0,2.3,1.6,3.2,3,4c1.1,0.6,2.1,1.2,2.1,2.3
				c0,1.5-1.4,2.2-2.7,2.2c-1.3,0-2.6-0.5-3.6-1l-0.1-0.1l0,0l0,0l0,0.1l-0.8,2.6l0,0.1l0,0l0,0l0.1,0c1.5,0.6,3,0.9,4.3,0.9
				c2.2,0,3.9-0.6,5-1.7c0.9-0.9,1.3-2,1.3-3.5c0-2.5-1.8-3.5-3.2-4.3c-1-0.6-2-1.2-2-2.1c0-0.4,0.1-0.7,0.4-0.9
				c0.6-0.6,1.7-0.7,2-0.7c1,0,2.1,0.3,3.1,0.8l0.1,0.1l0,0l0,0l0-0.1l0.7-2.5l0-0.1l0,0L315.9,110.3L315.9,110.3"/>
		</g>
		<g>
			<polyline class="st4" points="272.9,109.8 263.9,109.8 263.9,109.8 263.9,109.9 260.7,124.9 260.7,125.1 260.6,125.1 
				269.9,125.1 269.9,125.1 269.9,125 270.5,122.6 270.5,122.5 270.5,122.4 264.6,122.4 265.4,118.5 270.7,118.5 270.7,118.5 
				270.7,118.4 271.2,116 271.2,115.9 271.2,115.9 265.9,115.9 266.6,112.4 272.5,112.4 272.5,112.4 272.6,112.3 273,110 273,109.8 
				273,109.8 272.9,109.8 			"/>
		</g>
		<g>
			<polyline class="st4" points="261.1,109.8 261.1,109.8 257.6,109.8 257.6,109.8 257.6,109.9 254.4,124.9 254.4,125.1 
				254.4,125.1 257.9,125.1 257.9,125.1 257.9,125 261.1,110 261.1,109.8 			"/>
		</g>
		<g>
			<path class="st4" d="M328.8,109.8H317v0l0,0.1l-0.5,2.4l0,0.1l0,0h4.2l-2.7,12.5l0,0.1l0,0h3.5v0l0-0.1c0,0,2.6-12,2.7-12.6h4.2
				l0,0l0-0.1l0.5-2.4L328.8,109.8L328.8,109.8L328.8,109.8"/>
		</g>
	</g>
</g>
<g>
	
		<ellipse transform="matrix(5.610638e-02 -0.9984 0.9984 5.610638e-02 132.5909 431.7284)" class="st5" cx="294.6" cy="145.7" rx="96.5" ry="96.5"/>
</g>
<rect x="11.5" y="30.3" class="st6" width="232.7" height="34.7"/>
<text transform="matrix(1 0 0 1 11.46 41.1333)"><tspan x="0" y="0" class="st7 st8">Beschleunigung durch Ready to </tspan><tspan x="0" y="18.2" class="st7 st8">Use Technologie</tspan></text>
<rect x="385.4" y="30.3" class="st6" width="189.2" height="34.7"/>
<text transform="matrix(1 0 0 1 385.4473 41.1333)"><tspan x="0" y="0" class="st7 st8">Syngergieeffekte durch die </tspan><tspan x="0" y="18.2" class="st7 st8">Zentralisierung der Plattform</tspan></text>
<rect x="11.5" y="88.3" class="st6" width="173.4" height="34.7"/>
<text transform="matrix(1 0 0 1 11.46 99.1548)"><tspan x="0" y="0" class="st7 st8">Collaborative dank offener </tspan><tspan x="0" y="18.2" class="st7 st8">Standards</tspan></text>
<rect x="413.2" y="171.6" class="st6" width="161.5" height="49.8"/>
<text transform="matrix(1 0 0 1 542.2412 182.4023)"><tspan x="0" y="0" class="st7 st8">Agile </tspan><tspan x="-121.3" y="18.2" class="st7 st8">Entwicklungsmethoden </tspan><tspan x="-28.9" y="36.3" class="st7 st8">(DevOps)</tspan></text>
<rect x="360.9" y="237.2" class="st6" width="213.8" height="34.7"/>
<text transform="matrix(1 0 0 1 363.002 247.9932)"><tspan x="0" y="0" class="st7 st8">Kombination lokaler Bedürfnisse </tspan><tspan x="58.9" y="18.2" class="st7 st8">mit globaler Reichweite</tspan></text>
<rect x="11.5" y="180.4" class="st6" width="232.7" height="73.8"/>
<text transform="matrix(1 0 0 1 11.46 191.2324)"><tspan x="0" y="0" class="st7 st8">Umfassende </tspan><tspan x="0" y="18.2" class="st7 st8">Datenintegration</tspan><tspan x="0" y="36.3" class="st7 st8">(extern/intern, </tspan><tspan x="0" y="54.5" class="st7 st8">strukturiert/unstruktiert)</tspan></text>
<rect x="405" y="94.7" class="st6" width="169.7" height="20.8"/>
<text transform="matrix(1 0 0 1 404.998 105.4614)" class="st7 st8">Führende PaaS Services</text>
</svg>
