<svg id="locked" xmlns="http://www.w3.org/2000/svg" viewBox="0 0 60 60"><defs><style>.cls-1{fill:#5aaafa;}</style></defs><title>Atlas-Icons-v8 (Page 1)</title><path class="cls-1" d="M46.57,53H34c-3.23,0-5.16-1.88-5.16-5V12c0-3.14,1.93-5,5.16-5H46.57a1.12,1.12,0,0,1,0,2.23H34c-2,0-2.92.89-2.92,2.79V48c0,1.9.93,2.79,2.92,2.79H46.57A1.12,1.12,0,0,1,46.57,53Z"/><path class="cls-1" d="M46.57,31.12H13.43a1.12,1.12,0,0,1,0-2.23H46.57A1.12,1.12,0,0,1,46.57,31.12Z"/><path class="cls-1" d="M51.92,14.54a6.46,6.46,0,1,1,6.46-6.46A6.47,6.47,0,0,1,51.92,14.54Zm0-10.69a4.23,4.23,0,1,0,4.23,4.23A4.23,4.23,0,0,0,51.92,3.85Z"/><path class="cls-1" d="M51.92,36.46A6.46,6.46,0,1,1,58.38,30,6.47,6.47,0,0,1,51.92,36.46Zm0-10.69A4.23,4.23,0,1,0,56.15,30,4.23,4.23,0,0,0,51.92,25.77Z"/><path class="cls-1" d="M8.08,36.46A6.46,6.46,0,1,1,14.54,30,6.47,6.47,0,0,1,8.08,36.46Zm0-10.69A4.23,4.23,0,1,0,12.31,30,4.23,4.23,0,0,0,8.08,25.77Z"/><path class="cls-1" d="M51.92,58.38a6.46,6.46,0,1,1,6.46-6.46A6.47,6.47,0,0,1,51.92,58.38Zm0-10.69a4.23,4.23,0,1,0,4.23,4.23A4.23,4.23,0,0,0,51.92,47.69Z"/></svg>