<?xml version="1.0" encoding="utf-8"?>
<!-- Generator: Adobe Illustrator 21.0.2, SVG Export Plug-In . SVG Version: 6.00 Build 0)  -->
<svg version="1.1" id="Layer_1" xmlns="http://www.w3.org/2000/svg" xmlns:xlink="http://www.w3.org/1999/xlink" x="0px" y="0px"
	 viewBox="0 0 256 258.5" style="enable-background:new 0 0 256 258.5;" xml:space="preserve">
<style type="text/css">
	.st0{fill:#00B198;}
	.st1{fill:#00AED1;}
	.st2{fill:#3B4B54;}
	.st3{fill:#FFFFFF;}
</style>
<g>
	<polygon class="st0" points="217.8,130 253.7,67.8 217.8,5.6 146,5.6 110,67.8 146,130 	"/>
	<polygon class="st1" points="110,192.2 146,254.4 217.8,254.4 253.7,192.2 217.8,130 146,130 	"/>
	<polygon class="st2" points="110,67.8 38.2,67.8 2.3,130 38.2,192.2 110,192.2 146,130 	"/>
	<path class="st3" d="M216.6,252.3h-69.5L113.4,194c9.8,5,20.8,7.8,32.5,7.8c38.4,0,69.7-30.1,71.7-67.9l33.7,58.3L216.6,252.3z
		 M4.6,129.9l34.8-60.2h67.3c-19.6,12.8-32.6,35-32.6,60.2c0,25.2,13,47.4,32.6,60.2H39.4L4.6,129.9z M147.1,7.6h69.5l34.8,60.2
		l-33.7,58.4c-2-37.9-33.3-68-71.7-68c-11.7,0-22.8,2.8-32.5,7.8C115.4,62.4,147.1,7.6,147.1,7.6L147.1,7.6z M213.7,133.7
		c-1.9,35.7-31.5,64.1-67.7,64.1c-11,0-21.4-2.6-30.6-7.3L213.7,133.7z M108.9,186.7c-18.5-12.1-30.7-33-30.7-56.8
		s12.2-44.7,30.7-56.8V186.7z M115.3,69.5c9.2-4.7,19.6-7.3,30.6-7.3c36.2,0,65.8,28.4,67.7,64.1L115.3,69.5z M122.7,174.2
		l24.4-42.3h61.4l-92.1,53.2L122.7,174.2z M125.3,98.1l18.4,31.8l-14.9,25.9l-15.8,27.3V76.7L125.3,98.1z M147.1,127.9l-8.2-14.2
		l-22.5-39l92.2,53.2H147.1z M256,67.8L218.9,3.5h-74.2l-35.9,62.2H37.1L0,129.9l37.1,64.2h71.8l35.9,62.2h74.2l37.1-64.2L220.1,130
		L256,67.8z"/>
</g>
</svg>
