<?xml version="1.0" encoding="utf-8"?>
<!-- Generator: Adobe Illustrator 19.0.0, SVG Export Plug-In . SVG Version: 6.00 Build 0)  -->
<svg version="1.1" id="Layer_1" xmlns="http://www.w3.org/2000/svg" xmlns:xlink="http://www.w3.org/1999/xlink" x="0px" y="0px"
	 viewBox="0 0 280 170" style="enable-background:new 0 0 280 170;" xml:space="preserve">
<style type="text/css">
	.st0{display:none;}
	.st1{display:inline;}
	.st2{fill:none;}
	.st3{fill:none;stroke:#325C80;stroke-linecap:round;stroke-miterlimit:10;}
	.st4{fill:none;stroke:#27496D;stroke-linecap:round;stroke-linejoin:round;stroke-miterlimit:10;}
	.st5{fill:none;stroke:#27496D;stroke-linecap:round;stroke-miterlimit:10;}
	.st6{fill:#27496D;}
	.st7{fill:none;stroke:#27496D;stroke-linejoin:round;stroke-miterlimit:10;}
</style>
<g id="Layer_2" class="st0">
	<g id="_x36_yf2iF.tif" class="st1">
	</g>
</g>
<polyline id="XMLID_70_" class="st2" points="70.8,97.9 70.8,79.9 207.8,79.9 207.8,98.9 "/>
<polyline id="XMLID_25_" class="st3" points="248.3,99.9 248.3,88.6 31.4,88.6 31.4,99.9 "/>
<polyline id="XMLID_546_" class="st4" points="147.8,62.3 139.3,69.7 130.7,62.3 "/>
<line id="XMLID_1_" class="st5" x1="139.5" y1="68.5" x2="139.5" y2="41.3"/>
<path id="XMLID_10_" class="st4" d="M152.2,54.2L152.2,54.2c0.1,0,0.1,0,0.2,0c4.7,0,8.6-3.8,8.6-8.6c0-4.5-3.5-8.3-8-8.6
	c-0.3-5.8-5.1-10.5-11-10.5c-4.4,0-8.2,2.6-10,6.4c-1.3-0.5-2.7-0.8-4.2-0.8c-6.1,0-11,4.9-11,11s4.9,11,11,11h0.1"/>
<line id="XMLID_5_" class="st4" x1="183.8" y1="120.4" x2="172.8" y2="120.4"/>
<line id="XMLID_6_" class="st4" x1="178.3" y1="114.9" x2="178.3" y2="125.9"/>
<line id="XMLID_3_" class="st4" x1="107.8" y1="120.4" x2="96.8" y2="120.4"/>
<line id="XMLID_2_" class="st4" x1="102.3" y1="114.9" x2="102.3" y2="125.9"/>
<g>
	<rect id="XMLID_730_" x="204.8" y="100.3" class="st4" width="20" height="40.2"/>
	<line id="XMLID_729_" class="st4" x1="209.6" y1="114.5" x2="220.1" y2="114.5"/>
	<line id="XMLID_728_" class="st4" x1="209.6" y1="109.8" x2="220.1" y2="109.8"/>
	<line id="XMLID_727_" class="st4" x1="209.6" y1="105" x2="220.1" y2="105"/>
	<g id="XMLID_722_">
		<polyline id="XMLID_726_" class="st4" points="224.8,105 234.8,105 234.8,135.7 224.8,135.7 		"/>
		<line id="XMLID_725_" class="st4" x1="224.8" y1="119.3" x2="230.1" y2="119.3"/>
		<line id="XMLID_724_" class="st4" x1="224.8" y1="114.5" x2="230.1" y2="114.5"/>
		<line id="XMLID_723_" class="st4" x1="224.8" y1="109.8" x2="230.1" y2="109.8"/>
	</g>
	<g id="XMLID_717_">
		<polyline id="XMLID_721_" class="st4" points="204.8,105 194.8,105 194.8,135.7 204.8,135.7 		"/>
		<line id="XMLID_720_" class="st4" x1="204.8" y1="119.3" x2="199.5" y2="119.3"/>
		<line id="XMLID_719_" class="st4" x1="204.8" y1="114.5" x2="199.5" y2="114.5"/>
		<line id="XMLID_718_" class="st4" x1="204.8" y1="109.8" x2="199.5" y2="109.8"/>
	</g>
</g>
<g>
	<circle id="XMLID_678_" class="st6" cx="144.6" cy="103.3" r="1.3"/>
	<circle id="XMLID_677_" class="st6" cx="144.6" cy="136.4" r="1.3"/>
	<circle id="XMLID_676_" class="st6" cx="144.6" cy="119.8" r="1.3"/>
	<rect id="XMLID_2130_" x="118.3" y="130.9" class="st7" width="31.4" height="11"/>
	<rect id="XMLID_2129_" x="118.3" y="114.3" class="st7" width="31.4" height="11"/>
	<rect id="XMLID_2128_" x="118.3" y="97.8" class="st7" width="31.4" height="11"/>
	<path id="XMLID_675_" class="st4" d="M153.4,136.4h4.3c1,0,1.8-0.8,1.8-1.8v-29.5c0-1-0.8-1.8-1.8-1.8h-4.3"/>
	<line id="XMLID_674_" class="st4" x1="159.4" y1="119.8" x2="153.4" y2="119.8"/>
</g>
<g>
	<ellipse id="XMLID_1129_" class="st4" cx="64.6" cy="106.1" rx="20.6" ry="4.9"/>
	<path id="XMLID_1125_" class="st4" d="M44,111.8c0,0,0,2.7,0,4.1c0,2.7,9.2,4.9,20.6,4.9c11.4,0,20.6-2.2,20.6-4.9v-4.1"/>
	<path id="XMLID_1124_" class="st4" d="M44,122.7c0,0,0,2.7,0,4.1c0,2.7,9.2,4.9,20.6,4.9c11.4,0,20.6-2.2,20.6-4.9v-4.1"/>
	<path id="XMLID_1123_" class="st4" d="M44,133.5c0,0,0,2.7,0,4.1c0,2.7,9.2,4.9,20.6,4.9c11.4,0,20.6-2.2,20.6-4.9v-4.1"/>
</g>
</svg>
