<?xml version="1.0" encoding="utf-8"?>
<!-- Generator: Adobe Illustrator 18.0.0, SVG Export Plug-In . SVG Version: 6.00 Build 0)  -->
<!DOCTYPE svg PUBLIC "-//W3C//DTD SVG 1.1//EN" "http://www.w3.org/Graphics/SVG/1.1/DTD/svg11.dtd">
<svg version="1.1" xmlns="http://www.w3.org/2000/svg" xmlns:xlink="http://www.w3.org/1999/xlink" x="0px" y="0px"
	 viewBox="0 0 60 60" enable-background="new 0 0 60 60" xml:space="preserve">
<g id="locked">
	<g>
		<defs>
			<path id="SVGID_1_" d="M208.7-136.8c-0.9-8.2-7.8-14.6-16.2-14.6c-8.1,0-14.8,5.9-16,13.6c-0.7-0.1-1.4-0.2-2.2-0.2
				c-7.9,0-14.4,6.4-14.4,14.4c0,7.9,6.4,14.4,14.4,14.4h28.7c7.9,0,14.4-6.4,14.4-14.4C217.5-129.5,213.9-134.6,208.7-136.8z"/>
		</defs>
		<clipPath id="SVGID_2_">
			<use xlink:href="#SVGID_1_"  overflow="visible"/>
		</clipPath>
		<g clip-path="url(#SVGID_2_)">
			<defs>
				<rect id="SVGID_3_" x="-594.7" y="-897.1" width="2919.2" height="1735.3"/>
			</defs>
			<clipPath id="SVGID_4_">
				<use xlink:href="#SVGID_3_"  overflow="visible"/>
			</clipPath>
		</g>
		
			<use xlink:href="#SVGID_1_"  overflow="visible" fill-rule="evenodd" clip-rule="evenodd" fill="none" stroke="#5AAAFA" stroke-width="1.3" stroke-linecap="round" stroke-miterlimit="10"/>
	</g>
	<g>
		<defs>
			<path id="SVGID_5_" d="M-282.4-142.5c-1,0-1.9-0.8-1.9-1.8c0-1,0.8-1.8,1.9-1.8c1,0,1.9,0.8,1.9,1.8
				C-280.5-143.3-281.3-142.5-282.4-142.5z M-275-145.1c-0.5-3.5-3.6-6.3-7.4-6.3s-6.9,2.7-7.4,6.3h-7.5v1.8h7.5
				c0.5,3.5,3.6,6.3,7.4,6.3s6.9-2.7,7.4-6.3h33.6v-1.8H-275z"/>
		</defs>
		<clipPath id="SVGID_6_">
			<use xlink:href="#SVGID_5_"  overflow="visible"/>
		</clipPath>
		<g clip-path="url(#SVGID_6_)">
			<defs>
				<rect id="SVGID_7_" x="-1105.5" y="-676.8" width="3101.8" height="1843.8"/>
			</defs>
			<clipPath id="SVGID_8_">
				<use xlink:href="#SVGID_7_"  overflow="visible"/>
			</clipPath>
		</g>
	</g>
	<g>
		<defs>
			<path id="SVGID_9_" d="M-256.2-128.1c-1,0-1.9-0.8-1.9-1.8s0.8-1.8,1.9-1.8c1,0,1.9,0.8,1.9,1.8S-255.2-128.1-256.2-128.1z
				 M-256.2-137.1c-3.8,0-6.9,2.7-7.4,6.3h-33.6v1.8h33.6c0.5,3.5,3.6,6.3,7.4,6.3s6.9-2.7,7.4-6.3h7.5v-1.8h-7.5
				C-249.3-134.4-252.4-137.1-256.2-137.1z"/>
		</defs>
		<clipPath id="SVGID_10_">
			<use xlink:href="#SVGID_9_"  overflow="visible"/>
		</clipPath>
		<g clip-path="url(#SVGID_10_)">
			<defs>
				<rect id="SVGID_11_" x="-1105.5" y="-676.8" width="3101.8" height="1843.8"/>
			</defs>
			<clipPath id="SVGID_12_">
				<use xlink:href="#SVGID_11_"  overflow="visible"/>
			</clipPath>
		</g>
	</g>
	<g>
		<defs>
			<path id="SVGID_13_" d="M-282.4-113.8c-1,0-1.9-0.8-1.9-1.8c0-1,0.8-1.8,1.9-1.8c1,0,1.9,0.8,1.9,1.8
				C-280.5-114.6-281.3-113.8-282.4-113.8z M-282.4-122.8c-3.8,0-6.9,2.7-7.4,6.3h-7.5v1.8h7.5c0.5,3.5,3.6,6.3,7.4,6.3
				s6.9-2.7,7.4-6.3h33.6v-1.8H-275C-275.4-120-278.6-122.8-282.4-122.8z"/>
		</defs>
		<clipPath id="SVGID_14_">
			<use xlink:href="#SVGID_13_"  overflow="visible"/>
		</clipPath>
		<g clip-path="url(#SVGID_14_)">
			<defs>
				<rect id="SVGID_15_" x="-1105.5" y="-676.8" width="3101.8" height="1843.8"/>
			</defs>
			<clipPath id="SVGID_16_">
				<use xlink:href="#SVGID_15_"  overflow="visible"/>
			</clipPath>
		</g>
	</g>
	<g>
		<defs>
			<path id="SVGID_17_" d="M-111.5-145.4c1.4,0,2.6,1.2,2.6,2.6c0,1.4-1.2,2.6-2.6,2.6s-2.6-1.2-2.6-2.6
				C-114.1-144.2-112.9-145.4-111.5-145.4z M-145.4-135h40v12.2h-40V-135z M-145.4-121.1h40v12.2h-40V-121.1z M-147.1-107.2h43.4
				v-43.4h-43.4V-107.2z"/>
		</defs>
		<clipPath id="SVGID_18_">
			<use xlink:href="#SVGID_17_"  overflow="visible"/>
		</clipPath>
		<g clip-path="url(#SVGID_18_)">
			<defs>
				<rect id="SVGID_19_" x="-1403.7" y="-583.5" width="2582.2" height="1535"/>
			</defs>
			<clipPath id="SVGID_20_">
				<use xlink:href="#SVGID_19_"  overflow="visible"/>
			</clipPath>
		</g>
	</g>
</g>
<g id="Layer_1">
	<g>
		<path fill="#5AAAFA" d="M16.4,40.5h26.9V13.3H16.4V40.5z M18.5,15.4h22.8v23.2H18.5V15.4z"/>
		<path fill="#5AAAFA" d="M29.9,21.9c-2.8,0-5,2.2-5,5c0,2.8,2.2,5,5,5c2.7,0,5-2.2,5-5C34.9,24.1,32.7,21.9,29.9,21.9z M29.9,29.9
			c-1.6,0-3-1.4-3-3s1.4-3,3-3s2.9,1.4,3,3C32.9,28.5,31.5,29.9,29.9,29.9z"/>
		<path fill="#5AAAFA" d="M3.9,20v1c0,2,1.6,3.7,3.7,3.7h6.8v-2H7.6c-0.9,0-1.6-0.8-1.6-1.6v-1c0-0.9,0.8-1.6,1.6-1.6h6.8v-2H7.6
			C5.6,16.4,3.9,18,3.9,20z"/>
		<path fill="#5AAAFA" d="M3.9,31.5v1c0,2,1.6,3.7,3.7,3.7h6.8v-2H7.6c-0.9,0-1.6-0.8-1.6-1.6v-1c0-0.9,0.8-1.6,1.6-1.6h6.8v-2H7.6
			C5.6,27.8,3.9,29.4,3.9,31.5z"/>
		<path fill="#5AAAFA" d="M52.1,28.5h-6.8v2h6.8c0.9,0,1.6,0.8,1.6,1.6v1c0,0.9-0.8,1.6-1.6,1.6h-6.8v2h6.8c2,0,3.7-1.6,3.7-3.7v-1
			C55.8,30.1,54.1,28.5,52.1,28.5z"/>
		<path fill="#5AAAFA" d="M52.1,17.1h-6.8v2h6.8c0.9,0,1.6,0.8,1.6,1.6v1c0,0.9-0.8,1.6-1.6,1.6h-6.8v2h6.8c2,0,3.7-1.6,3.7-3.7v-1
			C55.8,18.7,54.1,17.1,52.1,17.1z"/>
		<path fill="#5AAAFA" d="M26.3,49.2c0,0.9-0.8,1.6-1.6,1.6h-1c-0.9,0-1.6-0.8-1.6-1.6v-6.8h-2v6.8c0,2,1.6,3.7,3.7,3.7h1
			c2,0,3.7-1.6,3.7-3.7v-6.8h-2V49.2z"/>
		<path fill="#5AAAFA" d="M37.8,49.2c0,0.9-0.8,1.6-1.6,1.6h-1c-0.9,0-1.6-0.8-1.6-1.6v-6.8h-2v6.8c0,2,1.6,3.7,3.7,3.7h1
			c2,0,3.7-1.6,3.7-3.7v-6.8h-2V49.2z"/>
		<path fill="#5AAAFA" d="M33.5,4.5c0-0.9,0.8-1.6,1.6-1.6h1c0.9,0,1.6,0.8,1.6,1.6v6.8h2V4.5c0-2-1.6-3.7-3.7-3.7h-1
			c-2,0-3.7,1.6-3.7,3.7v6.8h2V4.5z"/>
		<path fill="#5AAAFA" d="M22,4.5c0-0.9,0.8-1.6,1.6-1.6h1c0.9,0,1.6,0.8,1.6,1.6v6.8h2V4.5c0-2-1.6-3.7-3.7-3.7h-1
			c-2,0-3.7,1.6-3.7,3.7v6.8h2V4.5z"/>
	</g>
</g>
</svg>
