<?xml version="1.0" encoding="utf-8"?>
<!-- Generator: Adobe Illustrator 19.2.0, SVG Export Plug-In . SVG Version: 6.00 Build 0)  -->
<svg version="1.1" id="locked" xmlns="http://www.w3.org/2000/svg" xmlns:xlink="http://www.w3.org/1999/xlink" x="0px" y="0px"
	 viewBox="0 0 60 60" style="enable-background:new 0 0 60 60;" xml:space="preserve">
<style type="text/css">
	.st0{fill:#5AAAFA;}
</style>
<title>Atlas-Icons-v8 (Page 3)</title>
<metadata><?xpacket begin="﻿" id="W5M0MpCehiHzreSzNTczkc9d"?>
<x:xmpmeta xmlns:x="adobe:ns:meta/" x:xmptk="Adobe XMP Core 5.6-c111 79.158366, 2015/09/25-01:12:00        ">
   <rdf:RDF xmlns:rdf="http://www.w3.org/1999/02/22-rdf-syntax-ns#">
      <rdf:Description rdf:about=""
            xmlns:dc="http://purl.org/dc/elements/1.1/">
         <dc:title>
            <rdf:Alt>
               <rdf:li xml:lang="x-default">Atlas-Icons-v8 (Page 3)</rdf:li>
            </rdf:Alt>
         </dc:title>
      </rdf:Description>
   </rdf:RDF>
</x:xmpmeta>
                                                                                                    
                                                                                                    
                                                                                                    
                                                                                                    
                                                                                                    
                                                                                                    
                                                                                                    
                                                                                                    
                                                                                                    
                                                                                                    
                                                                                                    
                                                                                                    
                                                                                                    
                                                                                                    
                                                                                                    
                                                                                                    
                                                                                                    
                                                                                                    
                                                                                                    
                                                                                                    
                           
<?xpacket end="w"?></metadata>
<path class="st0" d="M30.5,15.8c-11,0-27.3-1.9-27.3-7.3s16.3-7.3,27.3-7.3s27.3,1.9,27.3,7.3S41.5,15.8,30.5,15.8z M30.5,3.4
	C14,3.3,5.4,6.7,5.4,8.5s8.6,5.1,25.1,5.1s25.1-3.3,25.1-5.1S47,3.3,30.5,3.4z"/>
<path class="st0" d="M30.5,28.1c-11,0-27.3-1.9-27.3-7.3v-5.2c0-0.6,0.5-1.1,1.1-1.1s1.1,0.5,1.1,1.1v5.2c0,1.8,8.6,5.1,25.1,5.1
	s25.1-3.3,25.1-5.1v-5.2c0-0.6,0.5-1.1,1.1-1.1s1.1,0.5,1.1,1.1c0,0,0,0,0,0v5.2C57.8,26.2,41.5,28.1,30.5,28.1z"/>
<path class="st0" d="M30.5,41.9c-11,0-27.3-1.9-27.3-7.3v-5.2c0-0.6,0.5-1.1,1.1-1.1s1.1,0.5,1.1,1.1v5.2c0,1.8,8.6,5.1,25.1,5.1
	s25.1-3.3,25.1-5.1v-5.2c0-0.6,0.5-1.1,1.1-1.1c0.6,0,1.1,0.5,1.1,1.1v5.2C57.8,40,41.5,41.9,30.5,41.9z"/>
<path class="st0" d="M30.5,55.7c-11,0-27.3-1.9-27.3-7.3v-5.2c0-0.6,0.5-1.1,1.1-1.1s1.1,0.5,1.1,1.1v5.2c0,1.8,8.6,5.1,25.1,5.1
	s25.1-3.3,25.1-5.1v-5.2c0-0.6,0.5-1.1,1.1-1.1s1.1,0.5,1.1,1.1c0,0,0,0,0,0v5.2C57.8,53.8,41.5,55.7,30.5,55.7z"/>
</svg>
