<?xml version="1.0" encoding="utf-8"?>
<!-- Generator: Adobe Illustrator 18.0.0, SVG Export Plug-In . SVG Version: 6.00 Build 0)  -->
<!DOCTYPE svg PUBLIC "-//W3C//DTD SVG 1.1//EN" "http://www.w3.org/Graphics/SVG/1.1/DTD/svg11.dtd">
<svg version="1.1" xmlns="http://www.w3.org/2000/svg" xmlns:xlink="http://www.w3.org/1999/xlink" x="0px" y="0px"
	 viewBox="0 0 60 60" enable-background="new 0 0 60 60" xml:space="preserve">
<g id="locked">
	<g>
		<defs>
			<path id="SVGID_1_" d="M208.7-319.4c-0.9-8.2-7.8-14.6-16.2-14.6c-8.1,0-14.8,5.9-16,13.6c-0.7-0.1-1.4-0.2-2.2-0.2
				c-7.9,0-14.4,6.4-14.4,14.4c0,7.9,6.4,14.4,14.4,14.4h28.7c7.9,0,14.4-6.4,14.4-14.4C217.5-312.2,213.9-317.2,208.7-319.4z"/>
		</defs>
		<clipPath id="SVGID_2_">
			<use xlink:href="#SVGID_1_"  overflow="visible"/>
		</clipPath>
		<g clip-path="url(#SVGID_2_)">
			<defs>
				<rect id="SVGID_3_" x="-594.7" y="-1079.8" width="2919.2" height="1735.3"/>
			</defs>
			<clipPath id="SVGID_4_">
				<use xlink:href="#SVGID_3_"  overflow="visible"/>
			</clipPath>
		</g>
		
			<use xlink:href="#SVGID_1_"  overflow="visible" fill-rule="evenodd" clip-rule="evenodd" fill="none" stroke="#5AAAFA" stroke-width="1.3" stroke-linecap="round" stroke-miterlimit="10"/>
	</g>
	<g>
		<defs>
			<path id="SVGID_5_" d="M-282.4-325.2c-1,0-1.9-0.8-1.9-1.8c0-1,0.8-1.8,1.9-1.8c1,0,1.9,0.8,1.9,1.8
				C-280.5-325.9-281.3-325.2-282.4-325.2z M-275-327.8c-0.5-3.5-3.6-6.3-7.4-6.3s-6.9,2.7-7.4,6.3h-7.5v1.8h7.5
				c0.5,3.5,3.6,6.3,7.4,6.3s6.9-2.7,7.4-6.3h33.6v-1.8H-275z"/>
		</defs>
		<clipPath id="SVGID_6_">
			<use xlink:href="#SVGID_5_"  overflow="visible"/>
		</clipPath>
		<g clip-path="url(#SVGID_6_)">
			<defs>
				<rect id="SVGID_7_" x="-1105.5" y="-859.5" width="3101.8" height="1843.8"/>
			</defs>
			<clipPath id="SVGID_8_">
				<use xlink:href="#SVGID_7_"  overflow="visible"/>
			</clipPath>
		</g>
	</g>
	<g>
		<defs>
			<path id="SVGID_9_" d="M-256.2-310.8c-1,0-1.9-0.8-1.9-1.8s0.8-1.8,1.9-1.8c1,0,1.9,0.8,1.9,1.8S-255.2-310.8-256.2-310.8z
				 M-256.2-319.8c-3.8,0-6.9,2.7-7.4,6.3h-33.6v1.8h33.6c0.5,3.5,3.6,6.3,7.4,6.3s6.9-2.7,7.4-6.3h7.5v-1.8h-7.5
				C-249.3-317.1-252.4-319.8-256.2-319.8z"/>
		</defs>
		<clipPath id="SVGID_10_">
			<use xlink:href="#SVGID_9_"  overflow="visible"/>
		</clipPath>
		<g clip-path="url(#SVGID_10_)">
			<defs>
				<rect id="SVGID_11_" x="-1105.5" y="-859.5" width="3101.8" height="1843.8"/>
			</defs>
			<clipPath id="SVGID_12_">
				<use xlink:href="#SVGID_11_"  overflow="visible"/>
			</clipPath>
		</g>
	</g>
	<g>
		<defs>
			<path id="SVGID_13_" d="M-282.4-296.5c-1,0-1.9-0.8-1.9-1.8s0.8-1.8,1.9-1.8c1,0,1.9,0.8,1.9,1.8S-281.3-296.5-282.4-296.5z
				 M-282.4-305.5c-3.8,0-6.9,2.7-7.4,6.3h-7.5v1.8h7.5c0.5,3.5,3.6,6.3,7.4,6.3s6.9-2.7,7.4-6.3h33.6v-1.8H-275
				C-275.4-302.7-278.6-305.5-282.4-305.5z"/>
		</defs>
		<clipPath id="SVGID_14_">
			<use xlink:href="#SVGID_13_"  overflow="visible"/>
		</clipPath>
		<g clip-path="url(#SVGID_14_)">
			<defs>
				<rect id="SVGID_15_" x="-1105.5" y="-859.5" width="3101.8" height="1843.8"/>
			</defs>
			<clipPath id="SVGID_16_">
				<use xlink:href="#SVGID_15_"  overflow="visible"/>
			</clipPath>
		</g>
	</g>
	<g>
		<defs>
			<path id="SVGID_17_" d="M-111.5-328.1c1.4,0,2.6,1.2,2.6,2.6c0,1.4-1.2,2.6-2.6,2.6s-2.6-1.2-2.6-2.6
				C-114.1-326.9-112.9-328.1-111.5-328.1z M-145.4-317.7h40v12.2h-40V-317.7z M-145.4-303.8h40v12.2h-40V-303.8z M-147.1-289.9
				h43.4v-43.4h-43.4V-289.9z"/>
		</defs>
		<clipPath id="SVGID_18_">
			<use xlink:href="#SVGID_17_"  overflow="visible"/>
		</clipPath>
		<g clip-path="url(#SVGID_18_)">
			<defs>
				<rect id="SVGID_19_" x="-1403.7" y="-766.2" width="2582.2" height="1535"/>
			</defs>
			<clipPath id="SVGID_20_">
				<use xlink:href="#SVGID_19_"  overflow="visible"/>
			</clipPath>
		</g>
	</g>
</g>
<g id="Layer_1">
	<g>
		<path fill="#5AAAFA" d="M57.7,26.4h-6.2v-19c0-0.4-0.4-0.8-0.8-0.8h-6.2c-0.4,0-0.8,0.4-0.8,0.8s0.4,0.8,0.8,0.8H50v18.2h-6.2
			c-0.4,0-0.8,0.4-0.8,0.8v26.3c0,0.4,0.4,0.8,0.8,0.8h13.9c0.4,0,0.8-0.4,0.8-0.8V27.2C58.4,26.8,58.1,26.4,57.7,26.4z M56.9,52.7
			H44.6V28h12.3V52.7z"/>
		<path fill="#5AAAFA" d="M38.7,6.9L26.6,0.4c-0.3-0.1-0.5-0.1-0.8,0S25.5,0.8,25.5,1v5.6H9C8.6,6.6,8.2,7,8.2,7.4v27
			c0,0.4,0.4,0.8,0.8,0.8s0.8-0.3,0.8-0.8V8.2h15.7v5.9c0,0.3,0.1,0.5,0.4,0.6c0.1,0.1,0.3,0.1,0.4,0.1c0.1,0,0.3-0.1,0.4-0.1
			l12.1-6.6c0.3-0.1,0.4-0.4,0.4-0.6S38.9,7,38.7,6.9z M27,12.8V2.2l9.8,5.4L27,12.8z"/>
		<path fill="#5AAAFA" d="M37.5,46.1H16.7c-0.5-3.7-3.7-6.4-7.6-6.4c-4.2,0-7.7,3.3-7.7,7.3c0,4.1,3.5,7.3,7.7,7.3
			c4,0,7.3-3,7.7-6.7h20.8c0.5,0,0.8-0.3,0.8-0.8C38.3,46.4,37.9,46.1,37.5,46.1z M9,52.9c-3.3,0-6.2-2.7-6.2-5.9
			c0-3.3,2.7-5.9,6.2-5.9c3.5,0,6.2,2.7,6.2,5.9C15.2,50.3,12.5,52.9,9,52.9z"/>
	</g>
</g>
</svg>
