<svg id="locked" xmlns="http://www.w3.org/2000/svg" viewBox="0 0 60 60"><defs><style>.cls-1{fill:#5aaafa;}</style></defs><title>Atlas-Icons-v8 (Page 2)</title><path class="cls-1" d="M10,10.23H2.12A1.12,1.12,0,1,1,2.12,8H10A1.12,1.12,0,0,1,10,10.23Z"/><path class="cls-1" d="M56.64,10.23H21.53a1.12,1.12,0,1,1,0-2.23H56.64A1.12,1.12,0,0,1,56.64,10.23Z"/><path class="cls-1" d="M56.64,53.34H35.13a1.12,1.12,0,1,1,0-2.23H56.64A1.12,1.12,0,0,1,56.64,53.34Z"/><path class="cls-1" d="M56.64,31.71H48.78a1.12,1.12,0,0,1,0-2.23h7.86A1.12,1.12,0,0,1,56.64,31.71Z"/><path class="cls-1" d="M37.27,31.74H2.12a1.12,1.12,0,0,1,0-2.23H37.27A1.12,1.12,0,1,1,37.27,31.74Z"/><path class="cls-1" d="M23.62,53.25H2.12a1.12,1.12,0,0,1,0-2.23H23.62A1.12,1.12,0,0,1,23.62,53.25Z"/><path class="cls-1" d="M15.78,16a6.87,6.87,0,1,1,6.87-6.87A6.88,6.88,0,0,1,15.78,16Zm0-11.51a4.64,4.64,0,1,0,4.64,4.64A4.64,4.64,0,0,0,15.78,4.48Z"/><path class="cls-1" d="M43,37.46a6.87,6.87,0,1,1,6.87-6.87A6.88,6.88,0,0,1,43,37.46ZM43,26a4.64,4.64,0,1,0,4.64,4.64A4.64,4.64,0,0,0,43,26Z"/><path class="cls-1" d="M29.38,59a6.87,6.87,0,1,1,6.87-6.87A6.88,6.88,0,0,1,29.38,59Zm0-11.51A4.64,4.64,0,1,0,34,52.13,4.64,4.64,0,0,0,29.38,47.49Z"/></svg>