<?xml version="1.0" encoding="utf-8"?>
<!-- Generator: Adobe Illustrator 19.0.0, SVG Export Plug-In . SVG Version: 6.00 Build 0)  -->
<svg version="1.1" id="Layer_1" xmlns="http://www.w3.org/2000/svg" xmlns:xlink="http://www.w3.org/1999/xlink" x="0px" y="0px"
	 viewBox="0 0 280 170" style="enable-background:new 0 0 280 170;" xml:space="preserve">
<style type="text/css">
	.st0{display:none;}
	.st1{display:inline;}
	.st2{fill:none;}
	.st3{fill:none;stroke:#325C80;stroke-linecap:round;stroke-miterlimit:10;}
	.st4{fill:none;stroke:#27496D;stroke-linecap:round;stroke-linejoin:round;stroke-miterlimit:10;}
	.st5{fill:none;stroke:#27496D;stroke-linecap:round;stroke-miterlimit:10;}
	.st6{fill:none;stroke:#27496D;stroke-linejoin:round;stroke-miterlimit:10;}
	.st7{fill:#131313;stroke:#27496D;stroke-miterlimit:10;}
	.st8{fill:#27496D;}
	.st9{fill:none;stroke:#27496D;stroke-miterlimit:10;}
</style>
<g id="Layer_2" class="st0">
	<g id="_x36_yf2iF.tif" class="st1">
	</g>
</g>
<polyline id="XMLID_70_" class="st2" points="70.8,97.9 70.8,79.9 207.8,79.9 207.8,98.9 "/>
<polyline id="XMLID_25_" class="st3" points="248.3,99.9 248.3,88.6 31.4,88.6 31.4,99.9 "/>
<polyline id="XMLID_546_" class="st4" points="147.8,62.3 139.3,69.7 130.7,62.3 "/>
<line id="XMLID_1_" class="st5" x1="139.5" y1="68.5" x2="139.5" y2="41.3"/>
<path id="XMLID_10_" class="st4" d="M152.2,54.2L152.2,54.2c0.1,0,0.1,0,0.2,0c4.7,0,8.6-3.8,8.6-8.6c0-4.5-3.5-8.3-8-8.6
	c-0.3-5.8-5.1-10.5-11-10.5c-4.4,0-8.2,2.6-10,6.4c-1.3-0.5-2.7-0.8-4.2-0.8c-6.1,0-11,4.9-11,11s4.9,11,11,11h0.1"/>
<line id="XMLID_5_" class="st4" x1="183.8" y1="120.4" x2="172.8" y2="120.4"/>
<line id="XMLID_6_" class="st4" x1="178.3" y1="114.9" x2="178.3" y2="125.9"/>
<line id="XMLID_3_" class="st4" x1="107.8" y1="120.4" x2="96.8" y2="120.4"/>
<line id="XMLID_2_" class="st4" x1="102.3" y1="114.9" x2="102.3" y2="125.9"/>
<g>
	<line id="XMLID_991_" class="st5" x1="198.9" y1="105.9" x2="193.2" y2="105.9"/>
	<line id="XMLID_785_" class="st5" x1="233" y1="105.9" x2="207.4" y2="105.9"/>
	<line id="XMLID_784_" class="st5" x1="233" y1="137.4" x2="217.3" y2="137.4"/>
	<line id="XMLID_783_" class="st5" x1="233" y1="121.6" x2="227.3" y2="121.6"/>
	<line id="XMLID_782_" class="st5" x1="218.9" y1="121.6" x2="193.2" y2="121.6"/>
	<line id="XMLID_781_" class="st5" x1="208.9" y1="137.3" x2="193.2" y2="137.3"/>
	<circle id="XMLID_780_" class="st5" cx="203.1" cy="105.9" r="4.2"/>
	<circle id="XMLID_779_" class="st5" cx="223.1" cy="121.6" r="4.2"/>
	<circle id="XMLID_778_" class="st5" cx="213.1" cy="137.3" r="4.2"/>
</g>
<path id="XMLID_12_" class="st4" d="M147.6,107.5c4.8,2.8,8.1,8,8.1,13.9"/>
<path id="XMLID_13_" class="st4" d="M124,118c1.1-4.9,4.4-9,8.8-11.1"/>
<path id="XMLID_9_" class="st4" d="M132.1,135.6c-5-2.7-8.4-8-8.4-14.1"/>
<path id="XMLID_4_" class="st4" d="M155.3,124.9c-0.9,4.3-3.6,7.9-7.2,10.2"/>
<polyline id="XMLID_1988_" class="st4" points="121.1,123.1 123.6,120.6 126.1,123.1 "/>
<polyline id="XMLID_7_" class="st4" points="158.1,120.1 155.6,122.6 153.1,120.1 "/>
<g id="XMLID_11_">
	<path id="XMLID_2123_" class="st4" d="M147.9,142.3c0-3.6-2.5-6.6-5.9-7.4c1.5-0.7,2.6-2.2,2.6-4c0-2.4-1.9-4.4-4.4-4.4
		c-2.4,0-4.4,1.9-4.4,4.4c0,1.8,1.1,3.3,2.6,4c-3.4,0.8-5.9,3.8-5.9,7.4"/>
</g>
<g id="XMLID_14_">
	<path id="XMLID_2334_" class="st6" d="M143.7,118.6h-6.9c-0.9,0-1.6-0.7-1.6-1.6v-14.4c0-0.9,0.7-1.6,1.6-1.6h6.9
		c0.9,0,1.6,0.7,1.6,1.6V117C145.4,117.9,144.6,118.6,143.7,118.6z"/>
	<line id="XMLID_2333_" class="st6" x1="135.2" y1="114.7" x2="145.4" y2="114.7"/>
	<circle id="XMLID_2332_" class="st7" cx="140.3" cy="116.6" r="0.5"/>
</g>
<g>
	<line id="XMLID_1370_" class="st6" x1="81.2" y1="133" x2="57.5" y2="133"/>
	<circle id="XMLID_1369_" class="st8" cx="69.3" cy="137.6" r="1.2"/>
	<circle id="XMLID_1351_" class="st9" cx="57.5" cy="117.1" r="10.3"/>
	<line id="XMLID_1325_" class="st5" x1="57.5" y1="112.7" x2="57.5" y2="121.4"/>
	<line id="XMLID_1317_" class="st5" x1="61.9" y1="117.1" x2="53.1" y2="117.1"/>
	<path id="XMLID_1315_" class="st6" d="M57.5,127.3v12.7c0,1.2,1,2.2,2.2,2.2H79c1.2,0,2.2-1,2.2-2.2v-36.8c0-1.2-1-2.2-2.2-2.2
		H59.7c-1.2,0-2.2,1-2.2,2.2v3.5"/>
</g>
</svg>
