<?xml version="1.0" encoding="utf-8"?>
<!-- Generator: Adobe Illustrator 19.0.0, SVG Export Plug-In . SVG Version: 6.00 Build 0)  -->
<svg version="1.1" id="Layer_1" xmlns="http://www.w3.org/2000/svg" xmlns:xlink="http://www.w3.org/1999/xlink" x="0px" y="0px"
	 viewBox="0 0 280 170" style="enable-background:new 0 0 280 170;" xml:space="preserve">
<style type="text/css">
	.st0{display:none;}
	.st1{display:inline;}
	.st2{fill:none;}
	.st3{fill:none;stroke:#325C80;stroke-linecap:round;stroke-miterlimit:10;}
	.st4{fill:none;stroke:#27496D;stroke-linecap:round;stroke-linejoin:round;stroke-miterlimit:10;}
	.st5{fill:none;stroke:#27496D;stroke-linecap:round;stroke-miterlimit:10;}
	.st6{fill:none;stroke:#27496D;stroke-linejoin:round;stroke-miterlimit:10;}
	.st7{fill:none;stroke:#27496D;stroke-miterlimit:10;}
	.st8{fill:#27496D;}
	.st9{fill:none;stroke:#27496D;stroke-width:1.2572;stroke-miterlimit:10;}
</style>
<g id="Layer_2" class="st0">
	<g id="_x36_yf2iF.tif" class="st1">
	</g>
</g>
<polyline id="XMLID_70_" class="st2" points="70.8,97.9 70.8,79.9 207.8,79.9 207.8,98.9 "/>
<polyline id="XMLID_25_" class="st3" points="248.3,99.9 248.3,88.6 31.4,88.6 31.4,99.9 "/>
<polyline id="XMLID_546_" class="st4" points="147.8,62.3 139.3,69.7 130.7,62.3 "/>
<line id="XMLID_1_" class="st5" x1="139.5" y1="68.5" x2="139.5" y2="41.3"/>
<path id="XMLID_10_" class="st4" d="M152.2,54.2L152.2,54.2c0.1,0,0.1,0,0.2,0c4.7,0,8.6-3.8,8.6-8.6c0-4.5-3.5-8.3-8-8.6
	c-0.3-5.8-5.1-10.5-11-10.5c-4.4,0-8.2,2.6-10,6.4c-1.3-0.5-2.7-0.8-4.2-0.8c-6.1,0-11,4.9-11,11s4.9,11,11,11h0.1"/>
<line id="XMLID_5_" class="st4" x1="183.8" y1="120.4" x2="172.8" y2="120.4"/>
<line id="XMLID_6_" class="st4" x1="178.3" y1="114.9" x2="178.3" y2="125.9"/>
<line id="XMLID_3_" class="st4" x1="107.8" y1="120.4" x2="96.8" y2="120.4"/>
<line id="XMLID_2_" class="st4" x1="102.3" y1="114.9" x2="102.3" y2="125.9"/>
<g>
	<path id="XMLID_1737_" class="st6" d="M43,130.8h40.4v-25c0-1-0.8-1.8-1.8-1.8H44.8c-1,0-1.8,0.8-1.8,1.8V130.8z"/>
	<line id="XMLID_1736_" class="st7" x1="83.4" y1="109.6" x2="43" y2="109.6"/>
	<circle id="XMLID_1735_" class="st8" cx="80.4" cy="107" r="0.9"/>
	<circle id="XMLID_1734_" class="st8" cx="76.5" cy="107" r="0.9"/>
	<circle id="XMLID_1733_" class="st8" cx="72.6" cy="107" r="0.9"/>
	<line id="XMLID_1739_" class="st5" x1="47.5" y1="118.1" x2="55.2" y2="118.1"/>
	<line id="XMLID_1319_" class="st5" x1="47.5" y1="113.9" x2="55.2" y2="113.9"/>
	<line id="XMLID_1740_" class="st5" x1="47.5" y1="122.3" x2="55.2" y2="122.3"/>
	<line id="XMLID_1324_" class="st5" x1="43" y1="135" x2="83.4" y2="135"/>
	<line id="XMLID_1323_" class="st5" x1="43" y1="143.4" x2="83.4" y2="143.4"/>
	<line id="XMLID_1321_" class="st5" x1="43" y1="139.2" x2="83.4" y2="139.2"/>
</g>
<g>
	<circle id="XMLID_2256_" class="st9" cx="126.1" cy="110.8" r="4.8"/>
	<path id="XMLID_2255_" class="st9" d="M117,110.9c0,4.7,3.8,8.5,8.5,8.5h23.9c4.7,0,8.5-3.8,8.5-8.5s-3.8-8.5-8.5-8.5h-23.9
		C120.8,102.4,117,106.2,117,110.9z"/>
	<circle id="XMLID_2254_" class="st9" cx="148.9" cy="135.1" r="4.8"/>
	<path id="XMLID_2253_" class="st9" d="M158,135c0-4.7-3.8-8.5-8.5-8.5h-23.9c-4.7,0-8.5,3.8-8.5,8.5s3.8,8.5,8.5,8.5h23.9
		C154.2,143.4,158,139.6,158,135z"/>
</g>
<path id="XMLID_2203_" class="st9" d="M193.2,143.5h36.4v-25.1c0-1-0.8-1.9-1.9-1.9H195c-1,0-1.9,0.8-1.9,1.9L193.2,143.5
	L193.2,143.5z"/>
<line id="XMLID_2202_" class="st9" x1="229.7" y1="122.4" x2="193.2" y2="122.4"/>
<path id="XMLID_2198_" class="st9" d="M229.7,128.8h5.1v-25.7c0-1-0.8-1.9-1.9-1.9h-32.7c-1,0-1.9,0.8-1.9,1.9v13.4"/>
<line id="XMLID_2197_" class="st9" x1="234.8" y1="107.1" x2="198.4" y2="107.1"/>
<circle id="XMLID_1916_" class="st8" cx="226.6" cy="119.6" r="0.9"/>
<circle id="XMLID_1915_" class="st8" cx="222.6" cy="119.6" r="0.9"/>
<circle id="XMLID_1914_" class="st8" cx="218.5" cy="119.6" r="0.9"/>
<circle id="XMLID_1920_" class="st8" cx="231.8" cy="104.3" r="0.9"/>
<circle id="XMLID_1919_" class="st8" cx="227.7" cy="104.3" r="0.9"/>
<circle id="XMLID_1918_" class="st8" cx="223.7" cy="104.3" r="0.9"/>
</svg>
