<!-- Generator: Adobe Illustrator 19.2.1, SVG Export Plug-In  -->
<svg version="1.1"
	 xmlns="http://www.w3.org/2000/svg" xmlns:xlink="http://www.w3.org/1999/xlink" xmlns:a="http://ns.adobe.com/AdobeSVGViewerExtensions/3.0/"
	 x="0px" y="0px" width="173.707px" height="256.388px" viewBox="0 0 173.707 256.388"
	 style="enable-background:new 0 0 173.707 256.388;" xml:space="preserve">
<style type="text/css">
	.st0{fill:#545454;}
	.st1{fill:#E5E5E5;}
	.st2{fill:#CE8651;}
	.st3{fill:#BC6226;}
	.st4{fill:#C6C6C6;}
	.st5{fill:#D4D6D5;}
</style>
<defs>
</defs>
<g>
	<path class="st0" d="M173.578,225.554c0.882,5.429-2.839,10.592-8.268,11.473L46.861,256.259
		c-5.429,0.882-10.592-2.839-11.473-8.268L0.129,30.834c-0.882-5.429,2.839-10.592,8.268-11.473L126.846,0.129
		c5.429-0.882,10.592,2.839,11.473,8.268L173.578,225.554z"/>
	
		<rect x="28.395" y="28.24" transform="matrix(0.9871 -0.1603 0.1603 0.9871 -18.8672 15.4399)" class="st1" width="115.778" height="192.889"/>
	
		<ellipse transform="matrix(0.9871 -0.1603 0.1603 0.9871 -35.9714 19.6518)" class="st1" cx="103.842" cy="232.824" rx="8.774" ry="8.774"/>
	<path class="st1" d="M75.739,18.558c0.292,1.799-0.93,3.494-2.729,3.786l-6.515,1.058c-1.799,0.292-3.494-0.929-3.786-2.729l0,0
		c-0.292-1.799,0.93-3.494,2.729-3.786l6.515-1.058C73.752,15.537,75.447,16.759,75.739,18.558L75.739,18.558z"/>
	<g>
		
			<ellipse transform="matrix(0.9871 -0.1603 0.1603 0.9871 -15.0509 14.5002)" class="st2" cx="82.366" cy="100.556" rx="40" ry="40"/>
		<path class="st3" d="M117.795,81.989c-7.773-14.836-24.399-23.748-41.839-20.916l6.411,39.483L117.795,81.989z"/>
	</g>
	<path class="st4" d="M80.974,46.114c0.595-0.982,0.28-2.266-0.703-2.861c-0.982-0.595-2.266-0.28-2.861,0.702
		c-0.495,0.818-0.359,1.844,0.267,2.508l-1.55,2.559c-0.159,0.262-0.075,0.604,0.187,0.763c0.262,0.159,0.604,0.075,0.763-0.187
		l1.55-2.559C79.507,47.287,80.479,46.932,80.974,46.114z M78.545,46.104c-0.589-0.357-0.779-1.127-0.422-1.716
		c0.357-0.589,1.127-0.779,1.716-0.422c0.589,0.357,0.779,1.127,0.422,1.716C79.905,46.272,79.135,46.461,78.545,46.104z"/>
	
		<rect x="84.704" y="38.857" transform="matrix(0.9871 -0.1603 0.1603 0.9871 -5.3745 17.3815)" class="st4" width="40.726" height="6.303"/>
	
		<rect x="21.704" y="48.857" transform="matrix(0.9871 -0.1603 0.1603 0.9871 -7.7915 7.4141)" class="st4" width="40.726" height="6.303"/>
	<g>
		
			<rect x="103.05" y="168.916" transform="matrix(0.9871 -0.1603 0.1603 0.9871 -25.8798 22.1177)" class="st5" width="42.253" height="5.163"/>
		
			<rect x="105.454" y="183.722" transform="matrix(0.9871 -0.1603 0.1603 0.9871 -28.2216 22.6944)" class="st5" width="42.253" height="5.163"/>
		
			<rect x="107.975" y="199.982" transform="matrix(0.9871 -0.1603 0.1603 0.9871 -30.9117 21.8549)" class="st5" width="24.115" height="5.163"/>
	</g>
</g>
</svg>