<!-- Generator: Adobe Illustrator 19.2.1, SVG Export Plug-In  -->
<svg version="1.1"
	 xmlns="http://www.w3.org/2000/svg" xmlns:xlink="http://www.w3.org/1999/xlink" xmlns:a="http://ns.adobe.com/AdobeSVGViewerExtensions/3.0/"
	 x="0px" y="0px" width="39.8px" height="16.1px" viewBox="0 0 39.8 16.1" style="enable-background:new 0 0 39.8 16.1;"
	 xml:space="preserve">
<style type="text/css">
	.st0{fill:#666666;}
</style>
<defs>
</defs>
<g id="_x2014_ÎÓÈ_x5F_1_1_">
	<g>
		<path class="st0" d="M19.9,2.4c6.7,0,12.9,1.9,18.2,5.2l1.7-1.7C34,2.2,27.2,0,19.9,0S5.7,2.2,0,5.9l1.7,1.7
			C7,4.4,13.2,2.4,19.9,2.4z"/>
		<path class="st0" d="M4,10l1.8,1.8c4.2-2.4,9-3.7,14.1-3.7s10,1.4,14.1,3.7l1.8-1.8c-4.7-2.8-10.1-4.3-15.9-4.3
			C14.1,5.6,8.7,7.2,4,10z"/>
		<path class="st0" d="M8.3,14.3l1.8,1.8c3-1.4,6.3-2.2,9.8-2.2s6.8,0.8,9.8,2.2l1.8-1.8c-3.5-1.8-7.4-2.8-11.6-2.8
			C15.7,11.5,11.8,12.5,8.3,14.3z"/>
	</g>
</g>
</svg>