<?xml version="1.0" encoding="utf-8"?>
<!-- Generator: Adobe Illustrator 15.1.0, SVG Export Plug-In . SVG Version: 6.00 Build 0)  -->
<!DOCTYPE svg PUBLIC "-//W3C//DTD SVG 1.1//EN" "http://www.w3.org/Graphics/SVG/1.1/DTD/svg11.dtd">
<svg version="1.1" id="Layer_1" xmlns="http://www.w3.org/2000/svg" xmlns:xlink="http://www.w3.org/1999/xlink" x="0px" y="0px"
	 width="64px" height="64px" viewBox="0 0 64 64" enable-background="new 0 0 64 64" xml:space="preserve">
<path id="timer" fill="#666666" d="M31,58C17.215,58,6,46.785,6,33c0-6.678,2.6-12.956,7.321-17.679l1.414,1.414
	C10.392,21.08,8,26.856,8,33c0,12.684,10.317,23,23,23c12.684,0,23-10.316,23-23c0-12.347-9.779-22.453-22-22.979V20h-2V8h1
	c13.785,0,25,11.215,25,25S44.785,58,31,58z M32.414,31.586c0.781,0.78,0.781,2.048,0,2.828c-0.781,0.781-2.048,0.781-2.828,0
	l-7.012-9.84L32.414,31.586z M31,36c-0.802,0-1.556-0.313-2.122-0.879l-0.106-0.127l-10.47-14.692l14.819,10.576
	C33.688,31.444,34,32.198,34,33s-0.313,1.557-0.879,2.122S31.801,36,31,36z M30.344,33.755c0.381,0.333,1,0.313,1.363-0.048
	C31.896,33.518,32,33.268,32,33c0-0.244-0.087-0.475-0.245-0.656l-4.908-3.497L30.344,33.755z"/>
</svg>
