<svg id="Layer_1" data-name="Layer 1" xmlns="http://www.w3.org/2000/svg" width="64" height="64" viewBox="0 0 64 64"><defs><style>.cls-1{fill:#666;}</style></defs><title>box_closed</title><path class="cls-1" d="M58,16.85a0.9,0.9,0,0,0-.08-0.28,0.09,0.09,0,0,1,0,0,0,0,0,0,0,0,0,0.92,0.92,0,0,0-.22-0.26l-0.08-.06-0.1-.07-26-14a1,1,0,0,0-1,0l-26,14-0.1.07-0.08.06a1.09,1.09,0,0,0-.22.26,0,0,0,0,1,0,0,0.09,0.09,0,0,0,0,0,0.9,0.9,0,0,0-.08.28s0,0.06,0,.09A0.14,0.14,0,0,0,4,17V47a1,1,0,0,0,.53.88l26,14,0.06,0,0.07,0a0.86,0.86,0,0,0,.68,0l0.07,0,0,0,26-14A1,1,0,0,0,58,47V17s0,0,0-.06S58,16.88,58,16.85ZM31,4.14L54.89,17,44.54,22.57,20.63,9.72Zm0,25.72L7.11,17l11.41-6.14L42.44,23.71ZM6,18.67L30,31.6V59.33L6,46.4V18.67ZM32,59.33V31.6L56,18.68V46.4Z"/></svg>