<svg id="Layer_1" data-name="Layer 1" xmlns="http://www.w3.org/2000/svg" width="64" height="64" viewBox="0 0 64 64"><defs><style>.cls-1{fill:#666;}</style></defs><title>camera-01</title><path class="cls-1" d="M56,18H48a2,2,0,0,1-1.72-1,0.94,0.94,0,0,0,0-.1l-2.59-4.61A0.92,0.92,0,0,0,43.46,12,4,4,0,0,0,40,10H24a4,4,0,0,0-3.54,2.13l-2.69,4.78a0.46,0.46,0,0,0,0,.1A2,2,0,0,1,16,18H8a4,4,0,0,0-4,4V50a4,4,0,0,0,4,4H56a4,4,0,0,0,4-4V22A4,4,0,0,0,56,18ZM32,46.11A12.11,12.11,0,1,1,44.11,34,12.11,12.11,0,0,1,32,46.11Z"/><circle class="cls-1" cx="32" cy="34" r="9.69"/></svg>