<svg id="Layer_1" data-name="Layer 1" xmlns="http://www.w3.org/2000/svg" width="64" height="64" viewBox="0 0 64 64"><defs><style>.cls-1{fill:#666;}</style></defs><title>clock</title><path class="cls-1" d="M31,60A27,27,0,1,0,4,33,27,27,0,0,0,31,60ZM31,8A25,25,0,1,1,6,33,25,25,0,0,1,31,8Z"/><path class="cls-1" d="M30.07,33.34a0.64,0.64,0,0,0,.1.18,0.75,0.75,0,0,0,.07.12l10,12A1,1,0,0,0,41,46a1,1,0,0,0,.64-0.23,1,1,0,0,0,.13-1.41L32,32.64V17a1,1,0,0,0-2,0V33a0.5,0.5,0,0,0,0,.13A0.78,0.78,0,0,0,30.07,33.34Z"/><path class="cls-1" d="M31,14a1,1,0,0,0,1-1V11a1,1,0,0,0-2,0v2A1,1,0,0,0,31,14Z"/><path class="cls-1" d="M31,56a1,1,0,0,0,1-1V53a1,1,0,0,0-2,0v2A1,1,0,0,0,31,56Z"/><path class="cls-1" d="M20.13,16.18a1,1,0,0,0,1.74-1l-1-1.73a1,1,0,0,0-1.74,1Z"/><path class="cls-1" d="M41.87,49.82a1,1,0,1,0-1.74,1l1,1.73a1,1,0,0,0,1.74-1Z"/><path class="cls-1" d="M11.45,22.87l1.73,1a1,1,0,0,0,1-1.74l-1.73-1A1,1,0,0,0,11.45,22.87Z"/><path class="cls-1" d="M47.82,43.87l1.73,1a1,1,0,0,0,1-1.74l-1.73-1A1,1,0,1,0,47.82,43.87Z"/><path class="cls-1" d="M12,33a1,1,0,0,0-1-1H9a1,1,0,0,0,0,2h2A1,1,0,0,0,12,33Z"/><path class="cls-1" d="M50,33a1,1,0,0,0,1,1h2a1,1,0,0,0,0-2H51A1,1,0,0,0,50,33Z"/><path class="cls-1" d="M14.55,42.5a1,1,0,0,0-1.37-.37l-1.73,1a1,1,0,0,0,1,1.74l1.73-1A1,1,0,0,0,14.55,42.5Z"/><path class="cls-1" d="M48.32,24a1,1,0,0,0,.5-0.13l1.73-1a1,1,0,0,0-1-1.74l-1.73,1A1,1,0,0,0,48.32,24Z"/><path class="cls-1" d="M19.5,52.92a1,1,0,0,0,1.37-.37l1-1.73a1,1,0,0,0-1.74-1l-1,1.73A1,1,0,0,0,19.5,52.92Z"/><path class="cls-1" d="M40.5,16.55a1,1,0,0,0,1.37-.37l1-1.73a1,1,0,1,0-1.74-1l-1,1.73A1,1,0,0,0,40.5,16.55Z"/></svg>