<?xml version="1.0" encoding="utf-8"?>
<!-- Generator: Adobe Illustrator 15.1.0, SVG Export Plug-In . SVG Version: 6.00 Build 0)  -->
<!DOCTYPE svg PUBLIC "-//W3C//DTD SVG 1.1//EN" "http://www.w3.org/Graphics/SVG/1.1/DTD/svg11.dtd">
<svg version="1.1" id="Layer_1" xmlns="http://www.w3.org/2000/svg" xmlns:xlink="http://www.w3.org/1999/xlink" x="0px" y="0px"
	 width="64px" height="64px" viewBox="0 0 64 64" enable-background="new 0 0 64 64" xml:space="preserve">
<path id="more" fill="#666666" d="M11,38c-2.757,0-5-2.243-5-5s2.243-5,5-5s5,2.243,5,5S13.757,38,11,38z M11,30
	c-1.654,0-3,1.346-3,3c0,1.654,1.346,3,3,3s3-1.346,3-3C14,31.346,12.654,30,11,30z M31,38c-2.757,0-5-2.243-5-5s2.243-5,5-5
	s5,2.243,5,5S33.757,38,31,38z M31,30c-1.654,0-3,1.346-3,3c0,1.654,1.346,3,3,3c1.654,0,3-1.346,3-3C34,31.346,32.654,30,31,30z
	 M51,38c-2.757,0-5-2.243-5-5s2.243-5,5-5s5,2.243,5,5S53.757,38,51,38z M51,30c-1.654,0-3,1.346-3,3c0,1.654,1.346,3,3,3
	s3-1.346,3-3C54,31.346,52.654,30,51,30z"/>
</svg>
