<svg id="Layer_1" data-name="Layer 1" xmlns="http://www.w3.org/2000/svg" width="64" height="64" viewBox="0 0 64 64"><defs><style>.cls-1{fill:#666;}</style></defs><title>past</title><path class="cls-1" d="M35,8A25,25,0,0,0,10,33v1.59L3.71,28.3A1,1,0,1,0,2.3,29.71l8,8a1,1,0,0,0,.33.22A1.11,1.11,0,0,0,11,38a1,1,0,0,0,.71-0.3l8-8a1,1,0,0,0-1.41-1.41L12,34.59V33A23,23,0,1,1,35,56a1,1,0,0,0,0,2A25,25,0,1,0,35,8Z"/><path class="cls-1" d="M35,16a1,1,0,0,0-1,1V33a1,1,0,0,0,1,1H47a1,1,0,0,0,0-2H36V17A1,1,0,0,0,35,16Z"/></svg>