<svg id="Layer_1" data-name="Layer 1" xmlns="http://www.w3.org/2000/svg" width="64" height="64" viewBox="0 0 64 64"><defs><style>.cls-1{fill:#666;}</style></defs><title>warning</title><path class="cls-1" d="M31,48a3,3,0,1,0-3-3A3,3,0,0,0,31,48Zm0-4a1,1,0,1,1-1,1A1,1,0,0,1,31,44Z"/><path class="cls-1" d="M31,40a3,3,0,0,0,3-3V21a3,3,0,0,0-6,0V37A3,3,0,0,0,31,40ZM30,21a1,1,0,0,1,2,0V37a1,1,0,0,1-2,0V21Z"/><path class="cls-1" d="M9,56H53a7,7,0,0,0,7-7,8.7,8.7,0,0,0-.73-3.11,1,1,0,0,0-.08-0.14L36.75,11l-0.06-.1a7,7,0,0,0-11.38,0l-0.06.1L2.8,45.76s0,0.09-.08.14A8.86,8.86,0,0,0,2,49,7,7,0,0,0,9,56ZM4.53,46.77L27,12a0,0,0,0,1,0,0A5,5,0,0,1,35,12a0,0,0,0,0,0,0L57.47,46.77A6.82,6.82,0,0,1,58,49a5,5,0,0,1-5,5H9a5,5,0,0,1-5-5A6.82,6.82,0,0,1,4.53,46.77Z"/></svg>