<svg id="Layer_1" data-name="Layer 1" xmlns="http://www.w3.org/2000/svg" width="64" height="64" viewBox="0 0 64 64"><defs><style>.cls-1{fill:#666;}</style></defs><title>box_open</title><path class="cls-1" d="M61.47,25.12L53.82,21l7.65-4.12a1,1,0,0,0,0-1.77l-21-11a1,1,0,0,0-.94,0L31,8.71,22.47,4.12a1,1,0,0,0-.94,0l-21,11a1,1,0,0,0,0,1.77L8.18,21,0.53,25.12a1,1,0,0,0,0,1.77l9.46,5V46a1,1,0,0,0,.52.88l20,11,0.06,0,0.08,0a0.86,0.86,0,0,0,.68,0l0.08,0,0.06,0,20-11A1,1,0,0,0,52,46V31.84l9.46-5A1,1,0,0,0,62,26,1,1,0,0,0,61.47,25.12ZM40,6.13L58.87,16l-7.15,3.85-18.61-10ZM31,31h0L12.39,21,31,11,49.61,21ZM3.13,16L22,6.13l6.9,3.71-18.6,10Zm7.16,6.13,18.6,10L22,35.87,3.13,26ZM12,32.89l9.54,5A1,1,0,0,0,22,38a1,1,0,0,0,.47-0.12l7.53-4V55.31l-18-9.9V32.89ZM50,45.41l-18,9.9V33.83l7.53,4A1,1,0,0,0,40,38a1,1,0,0,0,.46-0.11l9.54-5V45.41ZM40,35.87l-6.9-3.71,18.6-10L58.86,26Z"/></svg>