<svg id="Layer_1" data-name="Layer 1" xmlns="http://www.w3.org/2000/svg" width="64" height="64" viewBox="0 0 64 64"><defs><style>.cls-1{fill:#666;}</style></defs><title>bluetooth-01 2</title><path id="bluetooth" class="cls-1" d="M31,60.6a1.29,1.29,0,0,1-1.3-1.3V35.51L16.26,47.21a1.3,1.3,0,1,1-1.72-2L29.7,32h0L14.54,18.68a1.3,1.3,0,1,1,1.72-2h0L29.7,28.49V4.7a1.3,1.3,0,0,1,2.18-1L47.48,18a1.3,1.3,0,0,1,.1,1.84l-0.1.1L33.72,32,47.46,44a1.3,1.3,0,0,1,.1,1.84l-0.1.1-15.6,14.3A1.3,1.3,0,0,1,31,60.6Zm1.3-26.39v22.1L44.65,45Zm0-26.56v22.1L44.65,19Z"/></svg>